<svg width="17" height="17" viewBox="0 0 17 17" fill="none" xmlns="http://www.w3.org/2000/svg">
<g clip-path="url(#clip0_161_17)">
<path d="M5.43351 1.46008C4.46583 1.84489 3.55925 2.42752 2.77634 3.21043C2.73076 3.25576 2.68839 3.30331 2.64404 3.34937C2.98549 4.29316 3.41415 5.2123 3.93543 6.09203C4.93538 4.71491 5.43524 3.0875 5.43351 1.46008Z" fill="#AEEA00"/>
<path d="M16.1903 7.96608C13.7881 7.59138 11.2467 8.32797 9.39588 10.1786C9.09977 10.4747 8.83247 10.7893 8.59326 11.1177C10.4072 12.3938 12.4228 13.2556 14.5109 13.7032C15.839 12.0435 16.399 9.97264 16.1903 7.96608Z" fill="#AEEA00"/>
<path d="M7.13089 16.5722C9.53284 16.9464 12.0745 16.2098 13.9253 14.3592C14.0012 14.2833 14.0736 14.2055 14.1456 14.1276C12.09 13.6529 10.1086 12.7848 8.31709 11.5256C7.3462 13.0503 6.95007 14.8347 7.13089 16.5722Z" fill="#AEEA00"/>
<path d="M3.61298 6.50572C3.0779 5.62599 2.63249 4.70807 2.27405 3.76379C1.06814 5.2195 0.465807 7.00655 0.467778 8.79336C1.43496 8.40856 2.34179 7.82568 3.12471 7.04301C3.29765 6.86983 3.45926 6.69024 3.61298 6.50572Z" fill="#AEEA00"/>
<path d="M3.88626 6.94324C3.75446 7.09598 3.61773 7.2465 3.47288 7.39136C2.59733 8.26665 1.5757 8.90545 0.486816 9.31242C0.609254 11.1507 1.37123 12.954 2.77619 14.359C2.78284 14.3659 2.79023 14.3723 2.79713 14.3792C3.31225 12.4495 4.17548 10.5942 5.39074 8.91309C4.83447 8.28611 4.33216 7.62786 3.88626 6.94324Z" fill="#AEEA00"/>
<path d="M7.91537 11.2374C7.2778 10.7607 6.66536 10.2355 6.08569 9.6558C5.96424 9.53435 5.84969 9.40871 5.73267 9.28455C4.53194 10.9667 3.68842 12.8244 3.20557 14.7553C4.21611 15.6277 5.39418 16.2012 6.62644 16.4759C6.47074 14.6686 6.90063 12.82 7.91537 11.2374Z" fill="#AEEA00"/>
<path d="M6.03027 8.88228C6.1633 9.02492 6.29535 9.1683 6.43454 9.30749C6.99179 9.86474 7.58083 10.37 8.19351 10.83C8.44799 10.4801 8.73229 10.1456 9.04762 9.83025C10.9763 7.90155 13.6113 7.11124 16.12 7.45663C15.8583 5.91815 15.1397 4.44249 13.9616 3.2489C11.592 4.01531 9.36197 5.33503 7.47982 7.21693C6.95115 7.7456 6.47075 8.3036 6.03027 8.88228Z" fill="#AEEA00"/>
<path d="M4.21484 6.53969C4.65163 7.22455 5.14458 7.8838 5.69469 8.51101C6.1332 7.94144 6.60891 7.39109 7.13118 6.86882C9.002 4.99776 11.2061 3.66449 13.5519 2.86384C11.4116 0.980213 8.49599 0.454493 5.92159 1.28594C5.96199 3.13532 5.39316 4.99455 4.21484 6.53969Z" fill="#AEEA00"/>
</g>
<defs>
<clipPath id="clip0_161_17">
<rect width="15.7667" height="15.7667" fill="white" transform="translate(0.466797 0.900146)"/>
</clipPath>
</defs>
</svg>
