<svg width="117" height="123" viewBox="0 0 117 123" fill="none" xmlns="http://www.w3.org/2000/svg">
<g clip-path="url(#clip0_569_96)">
<path d="M0.000133078 122.943C-0.00652411 122.048 0.238127 121.192 0.387914 120.325C1.14683 115.907 1.92739 111.492 2.70628 107.077C3.40861 103.098 4.12592 99.1217 4.82493 95.1417C5.58717 90.8033 6.32779 86.46 7.09003 82.1217C7.84396 77.8333 8.61786 73.55 9.37178 69.2633C10.2871 64.0517 11.1825 58.8367 12.0979 53.6233C12.8502 49.335 13.6241 45.0517 14.378 40.765C15.1818 36.195 15.9707 31.6233 16.7746 27.0533C17.64 22.1233 18.5171 17.1967 19.3842 12.2667C19.8801 9.44167 20.3661 6.61667 20.8538 3.79C20.9886 3.005 20.9836 3 21.7808 3C51.9362 3 82.0932 3 112.249 3C113.144 3 113.151 3.02 112.991 3.935C112.006 9.53167 111.025 15.1283 110.038 20.725C109.281 25.0117 108.509 29.2967 107.755 33.5833C106.736 39.385 105.736 45.1917 104.718 50.9933C103.91 55.5883 103.082 60.18 102.274 64.7767C101.203 70.8867 100.151 77.0017 99.0773 83.1117C98.172 88.2717 97.2416 93.4283 96.3329 98.5883C95.4159 103.8 94.5172 109.015 93.6068 114.228C93.1358 116.925 92.6615 119.62 92.1871 122.317C92.0623 123.022 92.059 123.022 91.3517 123.028C91.2219 123.028 91.0904 123.028 90.9606 123.028C61.0132 123.028 31.0659 123.028 1.11854 123.025C0.759052 123.025 0.391243 123.092 0.000133078 122.942V122.943ZM72.2805 114.202C72.4969 114.013 72.7232 113.838 72.9263 113.637C77.0454 109.582 80.8683 105.263 84.2019 100.538C90.6027 91.4667 93.6584 81.395 93.0193 70.26C92.8745 67.72 92.3785 65.2433 91.5764 62.8317C90.2649 58.8883 88.1446 55.4683 85.0074 52.7083C84.8659 52.5833 84.6862 52.4833 84.5663 52.1433C88.5473 53.7783 90.8391 56.9083 92.7696 60.4183C92.9327 60.215 92.8712 60.0283 92.8828 59.8567C93.006 57.9783 92.9211 56.1 92.8728 54.22C92.7946 51.2383 92.51 48.2833 91.8976 45.3633C90.8823 40.5283 88.9767 36.1183 85.6132 32.4267C83.601 30.2183 81.2993 28.4167 78.455 27.3867C75.8371 26.4383 73.1626 26.0267 70.3899 26.5083C70.1885 26.5433 69.9854 26.6733 69.6859 26.58C70.5679 25.63 71.5449 24.9433 72.5867 24.3483C74.5539 23.2233 76.6859 22.56 78.8928 22.0967C79.387 21.9933 79.9229 22.03 80.4306 21.7233C80.2791 21.67 80.1842 21.6333 80.0877 21.6017C76.6992 20.5333 73.2591 19.97 69.6875 20.36C66.9498 20.6583 64.46 21.5367 62.2847 23.24C60.8917 24.33 59.74 25.6333 58.9611 27.24C58.605 27.9733 58.6067 27.97 59.2724 28.3833C59.76 28.6867 60.2493 28.9867 60.7186 29.315C62.8107 30.775 64.6946 32.4483 66.0377 34.6567C66.9697 36.1883 67.469 37.8367 67.3359 39.6483C67.3009 40.1217 67.2161 40.585 66.9814 41C66.7018 41.4917 66.3207 41.6067 65.7914 41.395C65.4719 41.2667 65.2023 41.0633 64.9509 40.8317C64.45 40.3667 64.0422 39.8283 63.6828 39.2483C63.0753 38.2683 62.596 37.2267 62.1982 36.1467C62.0368 35.7067 61.7921 35.3583 61.3477 35.1833C60.9 35.0067 60.4191 35.115 60.2576 35.51C59.8149 36.605 59.6102 37.72 60.2942 38.81C60.6621 39.3967 61.1846 39.8267 61.7538 40.2067C64.0156 41.7217 66.3639 43.0467 69.0052 43.8133C70.6145 44.2817 71.1172 45.1983 70.8692 46.8433C70.8342 47.075 70.7943 47.31 70.796 47.5417C70.8026 48.24 71.0822 48.585 71.7463 48.795C72.1024 48.9083 72.4669 48.905 72.8297 48.915C74.0397 48.95 74.9284 49.5283 75.4593 50.5917C76.4462 52.5667 75.9886 53.8467 73.8999 54.5617C72.4253 55.0667 70.9241 55.01 69.4262 54.6467C68.4626 54.4133 67.5339 54.0633 66.6003 53.7333C65.5168 53.35 64.4184 53.03 63.275 52.8833C62.7474 52.815 62.2331 52.8633 61.7239 52.995C61.5092 53.0517 61.3428 53.1883 61.2928 53.4067C61.2379 53.6483 61.4176 53.79 61.5824 53.9183C61.897 54.1617 62.2797 54.2617 62.6392 54.415C65.8929 55.8017 69.0285 57.365 71.4217 60.1C72.2605 61.0583 72.8048 60.9833 73.5237 59.9233C73.9631 59.275 74.3625 58.6017 74.7903 57.9467C75.1797 57.3517 75.6557 56.8333 76.2232 56.405C76.6343 56.095 76.7159 56.11 77.057 56.5083C77.4199 56.9317 77.6445 57.4317 77.8226 57.9517C78.3885 59.595 78.4783 61.2733 78.1005 62.965C78.024 63.31 78.0689 63.555 78.267 63.8283C78.8628 64.655 79.3854 65.53 79.853 66.435C82.9803 72.4683 84.2418 78.8833 83.8157 85.6583C83.601 89.0633 82.9603 92.38 81.9484 95.6317C80.116 101.522 77.2168 106.87 73.6785 111.892C73.1692 112.615 72.6566 113.338 72.1457 114.062C71.8711 114.283 71.6864 114.575 71.5183 114.883C71.8195 114.705 72.0874 114.493 72.2822 114.202H72.2805ZM46.5605 119.277H47.3876C52.3439 119.277 57.3002 119.268 62.2565 119.288C62.8456 119.29 63.2866 119.13 63.7194 118.73C65.6749 116.918 67.5373 115.018 69.2615 112.987C70.9008 111.055 72.5318 109.102 73.79 106.902C78.6315 98.4367 81.1229 89.3783 80.4638 79.5633C80.3007 77.135 79.8664 74.7483 79.0409 72.45C78.5016 70.9467 77.8326 69.5117 76.7941 68.265C76.4179 67.815 76.0102 67.6267 75.446 67.6717C75.005 67.7083 74.5589 67.6867 74.1162 67.7167C73.4022 67.7667 72.843 67.4917 72.417 66.9367C72.0825 66.5033 71.7579 66.0617 71.4434 65.6133C71.2736 65.3717 71.1172 65.3467 70.8625 65.5117C69.9155 66.125 68.8687 66.5283 67.8302 66.9517C65.8031 67.7767 63.7393 68.515 61.7671 69.47C60.9899 69.845 60.2243 70.2467 59.6002 70.855C58.9645 71.475 58.1939 71.8317 57.3651 72.095C56.2017 72.4633 55.1616 72.2767 54.2379 71.4467C53.5189 70.8 52.7184 70.255 51.8896 69.7583C50.9908 69.22 50.0655 68.745 49.002 68.6167C48.8738 68.6017 48.749 68.5533 48.6259 68.51C48.0484 68.3033 47.8936 67.83 48.2714 67.3533C48.4311 67.1517 48.6658 67.0133 48.8439 66.825C49.0453 66.6083 49.473 66.41 49.2616 66.085C49.0752 65.8 48.6908 65.9967 48.4012 66.1217C47.1247 66.6717 46.0961 67.535 45.259 68.635C44.0507 70.2267 43.1121 71.9667 42.433 73.845C41.3163 76.9333 40.9951 80.0833 41.7573 83.3067C42.7459 87.4883 45.0709 90.805 48.3546 93.495C49.6611 94.565 51.079 95.4317 52.7683 95.7417C54.5791 96.0717 56.4048 96.0267 58.2255 95.8367C60.3275 95.6183 62.3929 95.1917 64.4517 94.7183C65.3188 94.5183 66.2008 94.4183 67.0912 94.495C68.2529 94.595 68.6973 95.3083 68.3012 96.3917C68.1464 96.8133 67.9101 97.1867 67.6471 97.545C66.6186 98.9433 65.2805 100 63.7194 100.695C61.3261 101.762 58.8213 102.453 56.1718 102.515C54.0714 102.563 52.0127 102.29 49.9773 101.793C49.7626 101.74 49.5396 101.612 49.3082 101.807C49.3332 101.933 49.3482 102.063 49.3864 102.187C50.0622 104.433 50.0522 106.71 49.7077 109.008C49.2134 112.312 48.2115 115.453 46.8001 118.473C46.6936 118.7 46.5056 118.908 46.5588 119.273L46.5605 119.277ZM14.3813 62.3867C11.0561 81.3167 7.72912 100.248 4.41052 119.135C4.57362 119.282 4.70843 119.273 4.83658 119.273C8.74767 119.273 12.6588 119.27 16.5699 119.283C16.9277 119.283 17.1574 119.138 17.377 118.902C18.2658 117.947 19.1778 117.013 20.0449 116.04C21.2948 114.635 22.4415 113.15 23.47 111.572C25.5221 108.428 26.6838 104.997 26.9867 101.245C27.2813 97.59 27.0399 93.995 25.9748 90.4833C25.1476 87.755 23.9327 85.1817 22.6545 82.64C21.353 80.0533 20.0033 77.4917 18.7351 74.89C16.7962 70.9117 15.3449 66.7617 14.3797 62.385L14.3813 62.3867ZM21.7492 119.152C22.0238 119.32 22.2085 119.273 22.3832 119.273C29.2185 119.277 36.0521 119.277 42.8874 119.275C43.5964 119.275 43.5964 119.27 43.8643 118.55C45.0759 115.298 45.3472 111.943 44.8995 108.528C44.3237 104.128 42.8558 100.018 40.6938 96.155C39.5438 94.1 38.5535 91.9767 37.8329 89.7317C36.6097 85.92 36.122 82.04 36.861 78.075C37.8961 72.5283 40.787 68.1367 45.3073 64.805C46.0828 64.2333 46.91 63.7317 47.7155 63.2C48.045 62.9833 48.3529 62.7417 48.5709 62.4083C48.8089 62.045 48.8039 61.4833 48.5743 61.23C48.2614 60.8867 47.9036 61.0383 47.5624 61.1633C47.3926 61.225 47.2395 61.3333 47.0797 61.42C45.9247 62.05 44.9112 62.8683 43.9775 63.7867C41.9737 65.7583 40.3393 68.0167 38.8897 70.415C37.2271 73.1633 35.8407 76.0633 34.3163 78.8867C33.1496 81.0467 32.1327 83.2767 31.3139 85.5967C29.9425 89.48 29.5314 93.52 29.3067 97.5933C29.1802 99.8867 29.1087 102.182 28.849 104.467C28.3481 108.87 26.8535 112.87 24.1341 116.393C23.4018 117.342 22.6063 118.235 21.7508 119.153L21.7492 119.152ZM36.6879 24.6433C36.8576 24.8 37.0207 24.77 37.1705 24.7467C38.0243 24.6133 38.8864 24.6333 39.7435 24.5733C43.4898 24.3133 47.1896 24.6633 50.8477 25.4733C52.4987 25.84 54.133 26.2867 55.7657 26.7333C56.1884 26.85 56.4514 26.775 56.6977 26.4283C57.0455 25.94 57.4333 25.48 57.7862 24.995C59.4321 22.7217 60.8551 20.3283 61.5957 17.59C62.6625 13.6383 61.8554 10.1617 58.9512 7.215C58.6316 6.89167 58.3087 6.76 57.8577 6.76167C48.8089 6.77333 39.7585 6.77 30.7097 6.775C30.5566 6.775 30.3536 6.66667 30.2237 6.91C36.3683 11.3733 38.0526 17.4767 36.6895 24.6433H36.6879ZM19.5989 32.6717C19.8219 32.7483 19.9384 32.6717 20.0582 32.6317C22.1769 31.9067 24.2839 31.1433 26.3326 30.2383C28.2432 29.395 30.0989 28.4483 31.7033 27.0783C33.7554 25.325 34.7789 23.095 34.7107 20.4017C34.6524 18.145 33.9967 16.0433 32.9083 14.0683C31.4204 11.3667 29.3433 9.20667 26.8735 7.39167C26.2527 6.93667 25.632 6.69333 24.8581 6.75833C24.1624 6.81667 24.1457 6.77333 24.0226 7.47C23.5849 9.93333 23.1571 12.3967 22.7261 14.86C22.0204 18.8883 21.3131 22.9183 20.6058 26.9467C20.2729 28.8417 19.9401 30.7383 19.5989 32.67V32.6717ZM21.9489 60.6833C22.0038 62.6583 22.1236 64.7133 22.3783 66.7633C22.8909 70.8767 23.8961 74.8583 25.5121 78.6783C25.5937 78.87 25.6736 79.0633 25.7668 79.2483C25.8134 79.3417 25.8916 79.4167 26.0147 79.3867C26.1396 79.355 26.1562 79.2417 26.1645 79.14C26.2128 78.595 26.2611 78.0483 26.2977 77.5017C26.4525 75.1783 26.797 72.8883 27.4244 70.6433C28.5079 66.7617 30.6631 63.6767 34.1032 61.52C35.7858 60.465 37.5533 59.5733 39.3391 58.7117C39.5471 58.6117 39.9499 58.6 39.86 58.265C39.7934 58.0133 39.4523 58.145 39.2359 58.1517C36.9392 58.23 34.6474 58.25 32.3724 57.845C29.0088 57.2467 25.8766 56.1283 23.2786 53.8033C22.8659 53.435 22.7577 53.4717 22.6129 53.9883C22.5846 54.0883 22.5763 54.1933 22.5547 54.2967C22.1153 56.375 22.0038 58.4833 21.9489 60.685V60.6833ZM50.5964 49.015C50.0405 47.9717 49.9457 46.93 50.1986 45.8567C50.2635 45.5833 50.1753 45.4883 49.9207 45.4267C49.4663 45.3167 49.0087 45.1983 48.5709 45.035C45.4803 43.885 42.7143 42.1983 40.3244 39.92C39.2659 38.9117 38.0077 38.4533 36.573 38.4217C35.0153 38.3883 33.6106 38.8983 32.2608 39.6283C30.6082 40.52 29.0155 41.5117 27.4177 42.495C26.767 42.895 26.2011 42.86 25.6053 42.45C25.2841 42.2283 24.9696 41.99 24.6284 41.805C24.0475 41.4917 23.4334 41.4083 22.7061 41.65C24.1358 42.9383 25.602 44.0117 27.2097 44.8883C28.0801 45.365 28.9855 45.75 29.9591 45.9817C30.8112 46.1833 31.6034 46.1183 32.3773 45.6983C33.2045 45.25 34.0816 44.9117 34.992 44.6783C38.7416 43.715 42.428 43.9867 46.0412 45.325C47.0797 45.71 47.9785 46.3383 48.739 47.15C49.1335 47.5717 49.4281 48.0667 49.7576 48.535C49.9373 48.79 50.0888 49.0783 50.5964 49.0133V49.015Z" fill="white"/>
<path d="M55.127 92.355C55.1436 90.96 55.3716 89.6067 55.9341 88.32C56.1022 87.935 56.3469 87.6633 56.7929 87.6233C57.3854 87.57 57.7466 87.8933 57.7299 88.4867C57.7233 88.72 57.665 88.9533 57.6733 89.1867C57.7 89.985 57.9762 90.2233 58.7551 90.1017C59.088 90.05 59.4125 89.9433 59.7404 89.86C61.2016 89.49 62.6346 89.0033 64.1391 88.805C64.8431 88.7117 65.5421 88.7 66.2428 88.7517C66.6522 88.7817 66.9385 88.6433 67.1665 88.305C67.4877 87.83 67.8222 87.3633 68.1734 86.91C68.5096 86.4767 68.8624 86.3933 69.2535 86.6117C69.6496 86.8333 69.7661 87.1633 69.618 87.685C69.2235 89.0617 68.8158 90.435 68.4313 91.8167C68.3082 92.26 68.0951 92.545 67.6092 92.6333C64.2057 93.2567 60.8388 94.07 57.4137 94.585C57.209 94.615 56.9976 94.6417 56.7929 94.625C55.6029 94.5333 55.1336 94.02 55.127 92.825C55.127 92.6683 55.127 92.5117 55.127 92.355Z" fill="white"/>
<path d="M69.3732 71.3268C68.358 71.4168 67.233 71.7351 66.1112 72.0784C64.8397 72.4684 63.6048 72.9584 62.3632 73.4301C61.9671 73.5801 61.7857 73.8268 61.7108 74.2134C61.4978 75.3134 61.2731 76.4118 61.0601 77.5134C60.9636 78.0134 60.7056 78.3718 60.2246 78.5618C59.5622 78.8234 59.0313 78.5468 58.8566 77.8551C58.7234 77.3301 58.8199 76.8101 58.9098 76.3018C59.0796 75.3268 59.3309 74.3668 59.6188 73.4168C59.717 73.0934 59.8834 72.8651 60.1564 72.6834C63.1221 70.7168 66.2943 69.2451 69.8409 68.7118C71.0658 68.5284 72.2907 68.6151 73.4408 69.1534C73.9301 69.3834 73.9567 69.4251 73.7537 69.9201C73.033 71.6818 72.3024 73.4401 71.5634 75.1951C71.377 75.6384 71.2073 75.6984 70.7679 75.5684C70.1987 75.4001 70.019 75.1851 70.1022 74.7118C70.2337 73.9668 70.3801 73.2251 70.5316 72.4851C70.7396 71.4668 70.6065 71.3051 69.3732 71.3251V71.3268Z" fill="white"/>
<path d="M33.0226 43.915C33.0193 44.08 32.9095 44.1517 32.798 44.2183C32.3536 44.4867 31.9042 44.7467 31.4615 45.0183C31.2685 45.1367 31.0821 45.1433 30.8674 45.0817C30.5195 44.98 30.1617 44.9133 29.8122 44.8117C29.3795 44.6867 29.3312 44.505 29.6175 44.15C30.1451 43.4983 31.6396 43.0867 32.4118 43.3767C32.6881 43.4817 32.9228 43.6267 33.021 43.9133L33.0226 43.915Z" fill="white"/>
</g>
<defs>
<clipPath id="clip0_569_96">
<rect width="117" height="123" fill="white"/>
</clipPath>
</defs>
</svg>
