<svg width="50" height="41" viewBox="0 0 50 41" fill="none" xmlns="http://www.w3.org/2000/svg">
<path d="M30.7981 29.4165H43.5208V21.2468H30.7981V29.4165ZM30.7981 15.7694H43.5208V7.59934H30.7981V15.7694ZM44.4495 6.67095H48.4548L48.9999 7.21582V16.153L48.4548 16.6978H44.4495V20.3184H48.4548L48.9999 20.8633V29.8L48.4548 30.3449H44.4495V34.349L43.9044 34.8939H25.8643L25.6212 34.6509V34.9909L25.5523 35.1028L22.6766 39.7792L22.5406 40H6.22208C5.5632 40 4.99194 39.8992 4.58154 39.514C4.17649 39.1339 4.02861 38.5691 3.95896 37.9193L2.6526 25.4912C2.56242 24.8461 2.5911 24.251 2.9555 23.8321C3.09206 23.6751 3.25807 23.5628 3.44386 23.4839C3.21445 23.4078 3.0064 23.2912 2.82899 23.1177C2.44218 22.7391 2.29557 22.1828 2.24722 21.5279L1.03109 9.73083C0.963706 9.10031 0.978411 8.49858 1.33581 8.07714C1.70145 7.64599 2.29397 7.55311 2.93419 7.55311H17.2403L17.4711 7.39988L24.9003 2.4778L25.6212 2V2.36492L25.8643 2.12194H43.9044L44.4495 2.66682V6.67095Z" fill="white" stroke="white" stroke-width="2"/>
</svg>
