<svg width="48" height="38" viewBox="0 0 48 38" fill="none" xmlns="http://www.w3.org/2000/svg">
<path d="M29.7981 27.4165H42.5208V19.2468H29.7981V27.4165ZM29.7981 13.7694H42.5208V5.59934H29.7981V13.7694ZM43.4495 4.67095H47.4548L47.9999 5.21582V14.153L47.4548 14.6978H43.4495V18.3184H47.4548L47.9999 18.8633V27.8L47.4548 28.3449H43.4495V32.349L42.9044 32.8939H24.8643L24.6212 32.6509V32.9909L24.5523 33.1028L21.6766 37.7792L21.5406 38H5.22208C4.5632 38 3.99194 37.8992 3.58154 37.514C3.17649 37.1339 3.02861 36.5691 2.95896 35.9193L1.6526 23.4912C1.56242 22.8461 1.5911 22.251 1.9555 21.8321C2.09206 21.6751 2.25807 21.5628 2.44386 21.4839C2.21445 21.4078 2.0064 21.2912 1.82899 21.1177C1.44218 20.7391 1.29557 20.1828 1.24722 19.5279L0.031093 7.73083C-0.0362944 7.10031 -0.0215892 6.49858 0.335806 6.07714C0.701451 5.64599 1.29397 5.55311 1.93419 5.55311H16.2403L16.4711 5.39988L23.9003 0.477795L24.6212 0V0.364917L24.8643 0.121939H42.9044L43.4495 0.666824V4.67095Z" fill="#AEEA00"/>
</svg>
