<svg width="72" height="59" viewBox="0 0 72 59" fill="none" xmlns="http://www.w3.org/2000/svg">
<g clip-path="url(#clip0_568_49)">
<path d="M64.3633 41.5542C61.1087 47.7255 58.5118 48.8366 48.4775 48.4102C51.0662 46.0632 53.5009 43.6946 56.1104 41.5456C58.7323 39.388 61.5166 39.9349 64.3675 41.5542H64.3633Z" fill="white"/>
<path d="M21.9122 48.3412C11.9778 48.8666 9.86776 47.9622 6.20117 41.722C9.08533 39.4869 12.1443 39.5084 15.0201 41.9761C17.3424 43.97 19.5274 46.1276 21.9122 48.3412Z" fill="white"/>
<path d="M15.2454 16.2099C14.4463 6.46416 15.6075 3.58307 21.6546 0C23.7147 3.42372 23.6565 6.26175 21.2801 9.21606C19.3948 11.5545 17.3638 13.7638 15.2454 16.2099Z" fill="white"/>
<path d="M16.04 54.224C18.3956 50.3352 20.7221 49.2973 24.8507 50.2017C27.5351 50.7917 30.2195 51.3817 32.804 51.9502C26.3198 57.4367 22.004 58.0698 16.04 54.224Z" fill="white"/>
<path d="M61.0546 10.2453C65.1416 16.7008 63.4394 22.2778 58.7656 27.5749C58.1247 23.9272 57.2549 20.3528 56.9302 16.7267C56.6597 13.7164 58.6241 11.7483 61.0546 10.241V10.2453Z" fill="white"/>
<path d="M14.2008 39.5558C5.44008 34.8745 3.50066 32.2604 3.80031 25.6585C6.96332 25.258 9.56447 26.4423 10.7215 29.3104C12.0533 32.605 13.0271 36.0502 14.2008 39.5558Z" fill="white"/>
<path d="M9.57663 10.2712C13.264 12.7001 14.2629 15.1161 13.3639 19.4744C12.8021 22.1832 12.2319 24.8877 11.6825 27.5018C6.59259 21.8731 5.75605 15.3358 9.57663 10.2712Z" fill="white"/>
<path d="M56.3896 39.4181C57.4759 36.1322 58.4081 32.8678 59.6317 29.7283C60.822 26.6663 63.315 25.3571 66.5945 25.6672C67.3395 32.0754 64.6051 35.7877 56.3896 39.4181Z" fill="white"/>
<path d="M37.6357 51.9889C40.4658 51.3601 43.2126 50.7227 45.9719 50.1457C49.8591 49.336 52.4727 50.6323 54.3414 54.2283C49.214 58.0956 44.9481 57.5228 37.6357 51.9889Z" fill="white"/>
<path d="M55.3276 16.2917C53.2841 13.9145 51.1741 11.6105 49.2305 9.16005C46.9581 6.30048 46.9248 3.3634 48.9017 0.14209C54.6617 2.91983 56.314 7.06275 55.3318 16.2917H55.3276Z" fill="white"/>
<path d="M36.5791 49.702C41.0905 47.5272 41.3902 41.4291 46.2429 39.9175C47.8119 45.8089 43.5877 50.2446 36.5791 49.702Z" fill="white"/>
<path d="M54.6373 39.4224C54.9536 34.5947 49.951 31.227 51.2079 26.1194C57.1136 28.4579 58.3663 33.2726 54.6373 39.4224Z" fill="white"/>
<path d="M24.064 39.8315C29.1207 41.3991 29.4079 47.5748 33.9776 49.6979C26.994 50.2621 23.6021 46.834 24.064 39.8315Z" fill="white"/>
<path d="M23.8688 47.3723C17.2431 43.7246 15.9945 38.94 19.94 33.6472C23.515 37.4155 20.7973 42.9322 23.8688 47.3723Z" fill="white"/>
<path d="M22.3668 19.2158C21.0891 24.3837 14.9046 24.5517 13.0775 29.2674C11.9413 22.5836 15.9575 18.2985 22.3668 19.2158Z" fill="white"/>
<path d="M57.3844 28.9056C55.1453 24.6507 49.5684 24.2158 48.1367 19.3192C54.0965 18.0315 58.3291 22.2864 57.3844 28.9056Z" fill="white"/>
<path d="M28.5178 14.8016C24.7389 18.4622 19.5033 15.6931 15.5703 18.6C17.8052 12.3512 23.1116 10.8181 28.5178 14.8016Z" fill="white"/>
<path d="M16.0483 39.642C12.0322 33.9702 13.2183 29.1426 19.203 25.9988C20.6805 31.1322 15.603 34.4913 16.0483 39.642Z" fill="white"/>
<path d="M54.87 18.3632C50.9953 15.7707 45.7597 18.4838 42.1348 14.8663C47.0291 10.7492 51.8277 12.0498 54.87 18.3632Z" fill="white"/>
<path d="M50.6414 33.5784C54.3288 39.3104 53.1135 44.0649 46.9082 47.1053C49.6301 42.7987 47.0622 37.5017 50.6414 33.5784Z" fill="white"/>
</g>
<defs>
<clipPath id="clip0_568_49">
<rect width="72" height="59" fill="white"/>
</clipPath>
</defs>
</svg>
