<svg width="185" height="185" viewBox="0 0 185 185" fill="none" xmlns="http://www.w3.org/2000/svg">
<g filter="url(#filter0_d_3_777)">
<path d="M82.2251 92.6001L88.5155 98.8905C88.8613 99.2363 89.4222 99.2363 89.7681 98.8905L102.975 85.6834M98.887 66.8186L98.2285 65.8964C95.4698 62.0345 89.7304 62.0345 86.9717 65.8964L86.3132 66.8186C84.8566 68.8576 82.4113 69.9495 79.9209 69.6728L76.9847 69.3466C72.5794 68.8571 68.8571 72.5794 69.3466 76.9847L69.6728 79.9209C69.9495 82.4113 68.8576 84.8566 66.8186 86.3132L65.8964 86.9717C62.0345 89.7304 62.0345 95.4698 65.8964 98.2285L66.8186 98.887C68.8576 100.344 69.9495 102.789 69.6728 105.279L69.3466 108.216C68.8571 112.621 72.5794 116.343 76.9847 115.854L79.9209 115.527C82.4113 115.251 84.8566 116.343 86.3132 118.382L86.9717 119.304C89.7304 123.166 95.4698 123.166 98.2285 119.304L98.887 118.382C100.344 116.343 102.789 115.251 105.279 115.527L108.216 115.854C112.621 116.343 116.343 112.621 115.854 108.216L115.527 105.279C115.251 102.789 116.343 100.344 118.382 98.887L119.304 98.2285C123.166 95.4698 123.166 89.7304 119.304 86.9717L118.382 86.3132C116.343 84.8566 115.251 82.4113 115.527 79.9209L115.854 76.9847C116.343 72.5794 112.621 68.8571 108.216 69.3466L105.279 69.6728C102.789 69.9495 100.344 68.8576 98.887 66.8186Z" stroke="#AEEA00" stroke-width="5" stroke-linecap="round" stroke-linejoin="round" shape-rendering="crispEdges"/>
</g>
<defs>
<filter id="filter0_d_3_777" x="0.5" y="0.5" width="184.2" height="184.2" filterUnits="userSpaceOnUse" color-interpolation-filters="sRGB">
<feFlood flood-opacity="0" result="BackgroundImageFix"/>
<feColorMatrix in="SourceAlpha" type="matrix" values="0 0 0 0 0 0 0 0 0 0 0 0 0 0 0 0 0 0 127 0" result="hardAlpha"/>
<feOffset/>
<feGaussianBlur stdDeviation="30"/>
<feComposite in2="hardAlpha" operator="out"/>
<feColorMatrix type="matrix" values="0 0 0 0 0.682353 0 0 0 0 0.917647 0 0 0 0 0 0 0 0 0.6 0"/>
<feBlend mode="normal" in2="BackgroundImageFix" result="effect1_dropShadow_3_777"/>
<feBlend mode="normal" in="SourceGraphic" in2="effect1_dropShadow_3_777" result="shape"/>
</filter>
</defs>
</svg>
