<svg width="31" height="31" viewBox="0 0 31 31" fill="none" xmlns="http://www.w3.org/2000/svg">
<mask id="path-1-inside-1_13_291" fill="white">
<path d="M31 15.5C31 19.5933 29.3808 23.5205 26.4959 26.4243C23.6109 29.3282 19.6945 30.9729 15.6012 30.9997C11.508 31.0264 7.57037 29.4329 4.64774 26.567C1.72511 23.7011 0.0547863 19.7954 0.00132219 15.7024C-0.0521419 11.6095 1.51559 7.66153 4.36237 4.72025C7.20914 1.77896 11.1038 0.0831681 15.1963 0.00297487C19.2889 -0.0772184 23.247 1.4647 26.2068 4.2922C29.1666 7.11971 30.8878 11.0032 30.9947 15.0951L25.2348 15.2456C25.1677 12.6748 24.0863 10.2349 22.2267 8.4585C20.3672 6.68207 17.8804 5.71333 15.3092 5.76372C12.738 5.8141 10.2911 6.87951 8.50258 8.72743C6.71405 10.5753 5.72909 13.0557 5.76268 15.6272C5.79627 18.1987 6.84568 20.6525 8.68187 22.453C10.5181 24.2536 12.992 25.2547 15.5636 25.2379C18.1352 25.2212 20.5958 24.1878 22.4084 22.3634C24.2209 20.539 25.2382 18.0717 25.2382 15.5H31Z"/>
</mask>
<path d="M31 15.5C31 19.5933 29.3808 23.5205 26.4959 26.4243C23.6109 29.3282 19.6945 30.9729 15.6012 30.9997C11.508 31.0264 7.57037 29.4329 4.64774 26.567C1.72511 23.7011 0.0547863 19.7954 0.00132219 15.7024C-0.0521419 11.6095 1.51559 7.66153 4.36237 4.72025C7.20914 1.77896 11.1038 0.0831681 15.1963 0.00297487C19.2889 -0.0772184 23.247 1.4647 26.2068 4.2922C29.1666 7.11971 30.8878 11.0032 30.9947 15.0951L25.2348 15.2456C25.1677 12.6748 24.0863 10.2349 22.2267 8.4585C20.3672 6.68207 17.8804 5.71333 15.3092 5.76372C12.738 5.8141 10.2911 6.87951 8.50258 8.72743C6.71405 10.5753 5.72909 13.0557 5.76268 15.6272C5.79627 18.1987 6.84568 20.6525 8.68187 22.453C10.5181 24.2536 12.992 25.2547 15.5636 25.2379C18.1352 25.2212 20.5958 24.1878 22.4084 22.3634C24.2209 20.539 25.2382 18.0717 25.2382 15.5H31Z" stroke="#AEEA00" stroke-width="100" mask="url(#path-1-inside-1_13_291)"/>
<mask id="path-2-inside-2_13_291" fill="white">
<path d="M31 15.5C31 12.224 29.962 9.03224 28.0351 6.38289C26.1081 3.73354 23.3913 1.76285 20.2746 0.753713C17.1579 -0.255426 13.8016 -0.251117 10.6875 0.76602C7.57344 1.78316 4.86168 3.76082 2.94155 6.4151L15.5 15.5H31Z"/>
</mask>
<path d="M31 15.5C31 12.224 29.962 9.03224 28.0351 6.38289C26.1081 3.73354 23.3913 1.76285 20.2746 0.753713C17.1579 -0.255426 13.8016 -0.251117 10.6875 0.76602C7.57344 1.78316 4.86168 3.76082 2.94155 6.4151L15.5 15.5H31Z" stroke="#EA5E00" stroke-width="100" mask="url(#path-2-inside-2_13_291)"/>
<circle cx="15.5002" cy="15.5" r="9.66234" fill="#212A1C"/>
</svg>
