<svg width="31" height="31" viewBox="0 0 31 31" fill="none" xmlns="http://www.w3.org/2000/svg">
<mask id="path-1-inside-1_472_135" fill="white">
<path d="M31 15.5C31 19.5933 29.3808 23.5205 26.4959 26.4243C23.6109 29.3282 19.6945 30.9729 15.6012 30.9997C11.508 31.0264 7.57037 29.4329 4.64774 26.567C1.72511 23.7011 0.0547863 19.7954 0.00132219 15.7024C-0.0521419 11.6095 1.51559 7.66153 4.36237 4.72025C7.20914 1.77896 11.1038 0.0831681 15.1963 0.00297487C19.2889 -0.0772184 23.247 1.4647 26.2068 4.2922C29.1666 7.11971 30.8878 11.0032 30.9947 15.0951L25.2348 15.2456C25.1677 12.6748 24.0863 10.2349 22.2267 8.4585C20.3672 6.68207 17.8804 5.71333 15.3092 5.76372C12.738 5.8141 10.2911 6.87951 8.50258 8.72743C6.71405 10.5753 5.72909 13.0557 5.76268 15.6272C5.79627 18.1987 6.84568 20.6525 8.68187 22.453C10.5181 24.2536 12.992 25.2547 15.5636 25.2379C18.1352 25.2212 20.5958 24.1878 22.4084 22.3634C24.2209 20.539 25.2382 18.0717 25.2382 15.5H31Z"/>
</mask>
<path d="M31 15.5C31 19.5933 29.3808 23.5205 26.4959 26.4243C23.6109 29.3282 19.6945 30.9729 15.6012 30.9997C11.508 31.0264 7.57037 29.4329 4.64774 26.567C1.72511 23.7011 0.0547863 19.7954 0.00132219 15.7024C-0.0521419 11.6095 1.51559 7.66153 4.36237 4.72025C7.20914 1.77896 11.1038 0.0831681 15.1963 0.00297487C19.2889 -0.0772184 23.247 1.4647 26.2068 4.2922C29.1666 7.11971 30.8878 11.0032 30.9947 15.0951L25.2348 15.2456C25.1677 12.6748 24.0863 10.2349 22.2267 8.4585C20.3672 6.68207 17.8804 5.71333 15.3092 5.76372C12.738 5.8141 10.2911 6.87951 8.50258 8.72743C6.71405 10.5753 5.72909 13.0557 5.76268 15.6272C5.79627 18.1987 6.84568 20.6525 8.68187 22.453C10.5181 24.2536 12.992 25.2547 15.5636 25.2379C18.1352 25.2212 20.5958 24.1878 22.4084 22.3634C24.2209 20.539 25.2382 18.0717 25.2382 15.5H31Z" stroke="#AEEA00" stroke-width="100" mask="url(#path-1-inside-1_472_135)"/>
<mask id="path-2-inside-2_472_135" fill="white">
<path d="M31 15.5C31 11.914 29.7566 8.43892 27.4817 5.6669C25.2067 2.89488 22.041 0.997424 18.5239 0.297828C15.0068 -0.401767 11.3559 0.139788 8.19335 1.83022C5.03078 3.52065 2.55217 6.25537 1.17987 9.56841C-0.192438 12.8814 -0.373538 16.5678 0.667424 19.9994C1.70839 23.431 3.907 26.3955 6.88866 28.3878C9.87032 30.3801 13.4505 31.2769 17.0193 30.9254C20.588 30.5739 23.9245 28.9958 26.4602 26.4602L15.5 15.5H31Z"/>
</mask>
<path d="M31 15.5C31 11.914 29.7566 8.43892 27.4817 5.6669C25.2067 2.89488 22.041 0.997424 18.5239 0.297828C15.0068 -0.401767 11.3559 0.139788 8.19335 1.83022C5.03078 3.52065 2.55217 6.25537 1.17987 9.56841C-0.192438 12.8814 -0.373538 16.5678 0.667424 19.9994C1.70839 23.431 3.907 26.3955 6.88866 28.3878C9.87032 30.3801 13.4505 31.2769 17.0193 30.9254C20.588 30.5739 23.9245 28.9958 26.4602 26.4602L15.5 15.5H31Z" stroke="#EA5E00" stroke-width="100" mask="url(#path-2-inside-2_472_135)"/>
<circle cx="15.5002" cy="15.5" r="9.66234" fill="#212A1C"/>
</svg>
