<svg width="79" height="69" viewBox="0 0 79 69" fill="none" xmlns="http://www.w3.org/2000/svg">
<g clip-path="url(#clip0_568_2)">
<path d="M48.2468 17.7289C48.4287 17.9541 48.5978 18.1594 48.7615 18.3665C50.3836 20.4253 53.415 20.908 55.6118 19.4563C57.032 18.5196 58.234 17.3705 59.2215 15.8935C57.5194 15.1748 56.1846 14.1572 55.3608 12.5631C54.7225 11.3257 54.8116 11.1546 56.1846 10.8664C57.9358 10.5007 59.5325 10.924 61.1691 11.749C61.8965 8.6185 63.5786 6.41744 67.1429 5.77082C66.9629 6.27335 66.8683 6.60297 66.7283 6.91277C63.2895 14.4616 61.2491 22.3994 59.938 30.548C59.6907 32.0862 59.7107 33.7487 58.4323 34.9537C58.0395 35.3229 57.6503 35.7138 57.1975 36.0002C56.9665 36.1479 56.601 36.0903 56.2955 36.1245C56.3373 35.8489 56.3537 35.5661 56.4283 35.2995C56.6101 34.6547 56.9375 34.0297 56.9938 33.3777C57.0829 32.3708 56.3373 31.789 55.479 31.6287C53.7987 31.3135 52.0639 30.8812 50.3927 31.0145C46.8848 31.2937 43.3678 31.7332 39.9199 32.4284C35.019 33.4155 30.2709 34.9609 25.9011 37.4339C24.7336 38.095 23.6479 38.9415 22.6423 39.8313C21.1111 41.1894 22.0404 42.5998 23.1715 43.4103C23.4988 43.6462 23.7371 44.0047 24.0153 44.3073C23.5661 44.3847 23.0988 44.5847 22.6732 44.5162C21.1166 44.2677 19.9327 43.4769 18.9835 42.1711C15.5174 37.3979 11.744 32.8733 7.32325 28.9233C5.19196 27.0195 2.95884 25.2255 0.772998 23.3829C0.529319 23.1775 0.289277 22.9668 0.00195312 22.7218C1.29491 21.9311 2.58605 21.814 3.8299 22.3364C4.98465 22.8209 6.09576 23.4549 7.13048 24.161C7.79969 24.6185 8.15612 24.8022 8.81987 24.0943C10.011 22.8209 11.3731 21.715 13.3298 21.5528C14.0226 23.9088 13.2261 25.9081 11.9004 27.8534C13.4098 28.718 14.9555 29.1016 16.5994 29.2367C19.1853 29.4511 21.2712 28.0858 21.9313 25.665C22.0386 25.2705 22.0768 24.8562 22.1349 24.5104C23.1897 24.7031 24.1771 25.0219 25.17 25.0363C26.894 25.0634 28.2724 24.2636 29.1416 22.7777C30.6783 20.1515 31.162 17.3092 30.7146 14.3139C30.6892 14.1446 30.5819 13.9878 30.6092 14.0527C29.2271 14.0527 27.9705 14.1391 26.7339 14.0203C26.0084 13.95 25.3101 13.5682 24.6081 13.3016C23.9389 13.0458 23.8643 12.6189 24.2462 12.0318C25.1828 10.5926 26.4448 9.58214 28.0978 9.06339C28.3833 8.97333 28.6725 8.89408 28.7452 8.87427C28.5561 7.07668 28.2415 5.34393 28.2469 3.61299C28.2506 2.61873 28.7234 1.60646 29.0853 0.641027C29.3326 -0.0182088 29.8163 -0.200129 30.5128 0.235759C32.9914 1.78478 34.2389 4.0741 34.6953 6.86054C34.719 7.00283 34.7226 7.14873 34.7372 7.29462C35.701 7.22078 36.6357 7.01184 37.5322 7.11811C38.5578 7.24059 39.5653 7.60263 40.5509 7.93945C41.2201 8.1682 41.3656 8.60229 40.9128 9.25432C39.8963 10.7169 38.5979 11.7616 36.8539 12.2353C36.5702 12.3127 36.2884 12.401 35.9265 12.5073C36.7139 15.0163 38.0905 17.0301 40.0745 18.6475C41.0146 19.4148 41.9803 20.1263 43.266 20.211C45.0608 20.328 46.512 19.6742 47.654 18.3179C47.7886 18.1576 47.9195 17.9919 48.0559 17.8316C48.0741 17.81 48.1086 17.8028 48.2468 17.7289Z" fill="white"/>
<path d="M40.8637 59.8914C38.496 62.3572 28.7197 62.5049 26.6521 60.0031C26.8921 59.9148 27.0922 59.8193 27.3031 59.7653C28.5488 59.4501 28.9561 58.9566 28.9561 57.6741C28.9543 51.3862 28.9616 45.0982 28.9216 38.8103C28.9161 37.9655 29.1653 37.5494 29.9854 37.2252C35.0008 35.2493 40.1581 33.803 45.4972 33.0302C46.2155 32.9258 47.0248 33.0374 47.7231 33.259C53.2804 35.017 56.7319 38.713 57.7594 44.421C58.7286 49.8083 57.9885 54.9723 55.0425 59.6879C52.4548 63.8306 48.5796 66.3126 43.9624 67.7554C41.0019 68.6812 37.9377 69.0505 34.859 68.9982C29.9636 68.9154 25.15 68.2849 20.8074 65.7939C17.9705 64.1674 15.7411 61.9916 15.0191 58.6846C14.3572 55.6604 15.2319 52.1985 17.7832 50.7251C19.8454 49.5346 22.0022 49.2626 24.1553 50.4748C26.2065 51.6293 27.1976 53.4756 27.4159 55.7613C27.4686 56.3178 27.3995 56.6529 26.6321 56.5448C25.6901 56.4115 24.7099 56.5502 24.1207 57.422C23.5133 58.3226 23.6243 59.315 24.0953 60.239C24.6663 61.3612 25.6719 62.0276 26.8012 62.5229C28.5906 63.3083 30.4746 63.6307 32.4258 63.7459C35.3573 63.9189 38.2068 63.6577 40.931 62.4995C45.2808 60.6497 47.5667 57.2743 48.1941 52.7335C48.6469 49.4463 48.5178 46.1753 47.6449 42.9548C46.5756 39.0048 43.7624 36.8506 39.7544 36.8542C39.0943 36.8542 38.8597 37.0271 38.8615 37.7133C38.8833 44.3922 38.8724 51.071 38.8779 57.7498C38.8779 58.9115 39.3689 59.4339 40.8655 59.8914H40.8637Z" fill="white"/>
</g>
<defs>
<clipPath id="clip0_568_2">
<rect width="79" height="69" fill="white"/>
</clipPath>
</defs>
</svg>
