<svg width="57" height="54" viewBox="0 0 57 54" fill="none" xmlns="http://www.w3.org/2000/svg">
<path d="M44.0113 19.3788C44.5034 19.5003 45.0467 19.6323 45.6824 19.7885C44.5068 22.74 42.5453 25.0317 40.3001 27.0526C38.0652 29.063 35.6595 30.879 33.1102 32.9554C40.4881 32.077 47.0151 29.9276 52.0317 24.2053C52.5375 24.4865 53.0227 24.7574 53.6071 25.0803C51.3619 28.2713 48.3034 30.2957 44.9408 31.8964C40.3548 34.0805 35.5296 35.1569 30.4481 35.0319C29.6621 35.011 28.8693 35.3166 27.7621 35.5319C30.783 39.0354 34.2925 40.9174 38.1677 42.1848C38.5641 42.3132 39.1724 42.0563 39.5825 41.8063C43.4509 39.4486 47.1005 36.8166 49.9335 32.9797C50.4529 33.2298 50.9792 33.4867 51.6114 33.7923C49.2432 37.3687 46.1164 39.9972 42.6786 42.348C45.7712 43.0841 50.7229 41.2542 55.2576 37.6916C55.6062 37.9868 55.9752 38.3027 56.3546 38.6257C56.2589 38.8514 56.2315 39.0423 56.1256 39.15C52.8245 42.5459 48.6827 44.4938 44.1377 44.5563C40.0507 44.6119 36.2062 45.6189 32.2524 46.1953C30.4823 46.4522 28.6745 46.4348 26.672 46.5529C29.9252 48.9175 33.3459 48.8064 36.9648 48.1154C37.04 49.612 38.0379 49.5217 39.1007 49.5807C44.377 49.8793 49.6498 50.2474 54.9227 50.6189C55.3977 50.6537 55.8591 50.9037 56.4127 51.0773C53.3098 53.6954 10.5697 53.8759 6.03493 50.8898C9.9614 50.3967 13.8845 49.9037 18.0023 49.3863C17.6811 49.1397 17.4385 48.9106 17.1582 48.7439C13.7034 46.6848 11.3078 43.6987 9.63677 40.0424C9.39756 39.5215 9.0114 38.9521 8.53981 38.6812C3.5574 35.8166 1.82483 33.7298 0 28.1845C0.539932 27.9241 1.08671 27.6567 1.75991 27.3303C2.7851 30.9971 4.80131 33.8687 7.71967 35.7784C6.74574 31.761 5.40274 27.6602 4.82864 23.4483C4.24086 19.1219 5.53259 14.8996 6.99519 10.6495C7.58296 10.8196 8.15024 10.9863 8.83711 11.1842C6.50652 17.2746 6.03493 23.3962 7.98279 29.8096C8.17416 29.3859 8.33478 29.122 8.42021 28.8304C8.79953 27.5109 8.87471 26.0004 9.57184 24.8893C11.9742 21.0524 12.7157 16.8128 13.3479 12.4169C14.0246 7.71889 17.4692 3.73618 21.6656 1.90976C21.8092 2.45143 21.9527 2.98618 22.1201 3.61813C17.6127 6.32304 15.0976 10.2988 14.9165 15.8614C16.6901 14.337 18.2005 12.6322 20.0595 11.5315C23.323 9.59739 25.8655 7.14943 27.5195 3.66673C28.1482 2.34379 29.2383 1.24308 30.1473 0C30.6907 0.444452 31.1725 0.836827 31.6441 1.22225C30.3148 3.14242 29.006 5.03482 27.6937 6.93068C27.7757 7.03832 27.8578 7.14944 27.9398 7.25708C31.5109 5.92372 35.0443 4.4723 38.6598 3.28131C43.7208 1.61114 48.7067 2.17366 53.7267 4.28481C53.5045 4.8612 53.3098 5.37163 53.0671 6.00359C47.9104 4.02786 42.7811 3.76049 37.4979 5.764C40.5393 6.44457 43.444 7.09735 46.4923 7.77792C46.1403 8.56266 45.9182 9.06614 45.8396 9.23628C41.6055 8.80919 37.5731 8.09391 33.5441 8.11127C31.2135 8.12168 28.8795 9.28837 26.566 9.99671C26.2516 10.0939 25.9441 10.5002 25.804 10.837C23.9484 15.3301 22.8617 19.9656 23.2479 25.0109C32.0884 13.2711 45.7678 11.9203 52.4589 14.4308C52.2812 14.9516 52.1 15.476 51.9223 15.9933C43.0852 14.1426 35.3314 16.3163 28.6301 22.2052C26.983 23.6532 25.7698 25.6081 24.3516 27.3303C23.6989 28.122 23.7126 28.8963 24.0885 29.8755C25.2982 33.0145 27.6903 33.8374 30.5233 31.9311C34.6924 29.1255 38.858 26.2956 42.0635 22.3025C42.7743 21.417 43.3347 20.4136 44.0147 19.3892L44.0113 19.3788ZM18.8395 37.8513C19.1437 36.1083 19.4649 34.8166 19.5503 33.5075C19.5913 32.9033 19.2975 32.1672 18.925 31.6707C17.6606 29.9971 16.1501 28.5005 15.0087 26.7505C14.1442 25.4206 13.6999 23.8094 13.0301 22.2261C10.8567 25.9761 9.6436 29.9936 10.3339 34.1499C10.5799 35.636 12.5756 37.2472 14.1408 37.9555C15.4598 38.5527 17.3188 37.9277 18.8395 37.8479V37.8513ZM23.1385 12.0349C22.9881 11.8856 22.8378 11.7329 22.6874 11.5835C20.3056 14.028 17.91 16.4552 15.5589 18.9309C15.2446 19.2608 14.9438 19.8684 15.019 20.2677C15.764 24.1775 17.1582 27.7401 20.7259 30.3408C20.9993 29.3825 21.5153 28.5422 21.4025 27.8026C20.5789 22.3789 21.4093 17.1635 23.1351 12.0349H23.1385ZM25.6468 37.2298C24.2833 37.8479 22.5917 38.6153 20.8284 39.4174C21.03 40.3757 21.1701 41.341 21.4606 42.2577C21.587 42.6639 21.9595 43.1883 22.3183 43.2855C26.5011 44.4348 30.7112 44.7195 34.7368 43.6119C31.8082 41.5528 28.8078 39.4486 25.6468 37.2263V37.2298ZM12.2476 39.7229C13.9699 45.6918 21.3444 49.4245 25.2948 48.6883C23.8459 47.0633 22.496 45.5182 20.1825 44.8237C18.0843 44.1917 16.2458 42.6292 14.3321 41.4139C13.5837 40.9382 12.9413 40.2924 12.2476 39.7229ZM24.83 35.4346C24.8608 35.2471 24.8916 35.0562 24.9223 34.8687C23.8493 34.4069 22.7763 33.9416 21.5597 33.4172C21.3683 34.7575 21.2146 35.8235 21.0232 37.1604C22.5165 36.4833 23.6716 35.9589 24.83 35.4346ZM19.5162 42.348C19.2872 41.3202 19.13 40.6153 18.9728 39.9139C18.1117 40.0493 17.3325 40.1743 16.2185 40.3479C17.4009 41.0632 18.2962 41.6084 19.5162 42.348Z" fill="#1E2934"/>
</svg>
