<svg width="66" height="61" viewBox="0 0 66 61" fill="none" xmlns="http://www.w3.org/2000/svg">
<g clip-path="url(#clip0_568_27)">
<path d="M26.6904 37.9681C28.2871 39.3384 29.7614 40.7814 31.3717 42.0788C31.9659 42.5568 32.3129 42.5204 32.8935 42.0469C41.7933 34.7565 47.1436 25.4153 49.0715 14.0689C49.2121 13.2427 48.9966 12.8716 48.2096 12.5712C42.8661 10.5295 37.3434 9.52575 31.6348 9.57582C30.6414 9.58493 30.4826 9.40056 30.9589 8.48101C32.3174 5.8612 33.8166 3.33926 35.5358 0.937949C36.0098 0.275599 36.4929 0.125375 37.2391 0.200487C43.6713 0.849181 49.8086 2.53806 55.6261 5.37183C55.6601 5.38776 55.6919 5.40597 55.7259 5.42418C60.0715 7.70941 59.3026 6.30959 58.9692 11.1623C58.0847 24.0269 53.0882 35.1731 44.2451 44.5643C40.9133 48.1037 37.1756 51.1264 33.0183 53.6324C32.517 53.9351 32.0997 54.1991 31.7278 53.4981C29.1467 48.6272 27.3958 43.4809 26.6904 37.9681Z" fill="white"/>
<path d="M16.3757 19.2834C18.6823 18.2978 20.9776 17.4579 23.3681 16.9048C24.5316 16.6362 24.552 16.6681 24.298 17.8107C23.765 20.2075 23.1821 22.6088 23.1096 25.067C23.0665 26.5078 22.597 27.3272 21.1749 27.7323C19.83 28.1147 19.8595 28.2171 20.558 29.4235C20.5762 29.4553 20.592 29.4918 20.6147 29.5214C22.2205 31.6791 23.0801 34.0349 23.2887 36.7867C23.6312 41.2866 24.8741 45.6181 26.5706 49.8061C26.6409 49.9814 26.7248 50.1544 26.5071 50.4161C24.3139 48.8274 22.3157 47.0088 20.4469 45.049C12.5972 36.8186 7.71183 27.0768 5.75224 15.8624C5.29637 13.2539 5.21472 10.6045 5.07637 7.96195C5.04235 7.31098 5.41657 7.03102 5.90874 6.76016C10.9597 3.96508 16.3122 1.99624 21.9823 0.92874C25.0601 0.352882 28.1628 -0.0431632 31.304 0.00463531C31.558 0.00918755 31.9232 -0.0272304 32.0388 0.116165C32.2724 0.409785 31.9277 0.660158 31.7712 0.896874C30.0407 3.51669 28.478 6.22755 27.2533 9.12277C27.0197 9.67587 26.7044 9.92852 26.0966 10.0082C22.6106 10.4634 19.2244 11.3215 15.9516 12.6212C15.4186 12.8328 15.0195 13.0081 15.1374 13.7251C15.4436 15.5847 15.7747 17.4329 16.3803 19.2834H16.3757Z" fill="white"/>
</g>
<defs>
<clipPath id="clip0_568_27">
<rect width="66" height="61" fill="white"/>
</clipPath>
</defs>
</svg>
