<svg width="16" height="17" viewBox="0 0 16 17" fill="none" xmlns="http://www.w3.org/2000/svg">
<g clip-path="url(#clip0_161_8)">
<path d="M15.5012 7.82923C15.5738 7.9375 15.5801 8.07703 15.519 8.19155C15.4574 8.30654 15.3375 8.37826 15.2072 8.37826H5.89624V0.900024H15.2072C15.3375 0.900024 15.4574 0.971713 15.519 1.08673C15.5801 1.20125 15.5738 1.34078 15.5012 1.44952L13.5058 4.44331C13.4264 4.56168 13.4264 4.7166 13.5058 4.83498L15.5012 7.82923Z" fill="#AEEA00"/>
<path d="M4.89921 0.900024H2.90479V14.8595H4.89921V0.900024Z" fill="#AEEA00"/>
<path d="M7.75115 15.1712C7.75115 15.9969 6.07767 16.6667 4.01205 16.6667C1.94739 16.6666 0.272949 15.9969 0.272949 15.1712C0.272949 14.3451 1.94739 13.6753 4.01205 13.6753C6.07767 13.6753 7.75115 14.345 7.75115 15.1712Z" fill="#AEEA00"/>
</g>
<defs>
<clipPath id="clip0_161_8">
<rect width="15.7667" height="15.7667" fill="white" transform="translate(0.0334473 0.900024)"/>
</clipPath>
</defs>
</svg>
