<svg width="16" height="15" viewBox="0 0 16 15" fill="none" xmlns="http://www.w3.org/2000/svg">
<path d="M10.1181 10.4964L8.61215 9.17539C7.8855 8.53786 7.52213 8.21913 7.10523 8.10261C6.73852 8.00015 6.34437 8.00391 5.98026 8.1134C5.56625 8.2379 5.21079 8.56349 4.49989 9.21468L0.891854 12.3672M10.1181 10.4964L10.4263 10.226C11.1538 9.58779 11.5176 9.26867 11.935 9.15215C12.3021 9.04969 12.6965 9.05376 13.0609 9.16365C13.4751 9.28855 13.8305 9.61502 14.5412 10.2679L15.2965 10.9403M10.1181 10.4964L13.7392 13.706M0.891854 12.3672C0.919867 12.5684 0.96757 12.7275 1.04885 12.8686C1.22195 13.1692 1.49816 13.4135 1.8379 13.5666C2.22413 13.7407 2.72973 13.7407 3.74094 13.7407H12.4076C12.9983 13.7407 13.4165 13.7407 13.7392 13.706M0.891854 12.3672C0.852051 12.0813 0.852051 11.7103 0.852051 11.1852V3.51851C0.852051 2.62398 0.852051 2.17671 1.04885 1.83505C1.22195 1.53451 1.49816 1.29017 1.8379 1.13704C2.22413 0.962952 2.72973 0.962952 3.74094 0.962952H12.4076C13.4188 0.962952 13.9245 0.962952 14.3107 1.13704C14.6504 1.29017 14.9266 1.53451 15.0997 1.83505C15.2965 2.17671 15.2965 2.62398 15.2965 3.51851V10.9403M15.2965 10.9403V11.1852C15.2965 12.0797 15.2965 12.527 15.0997 12.8686C14.9266 13.1692 14.6504 13.4135 14.3107 13.5666C14.1501 13.6391 13.9688 13.6813 13.7392 13.706M12.5882 4.95592C12.5882 5.83807 11.7798 6.55315 10.7826 6.55315C9.7854 6.55315 8.97705 5.83807 8.97705 4.95592C8.97705 4.0738 9.7854 3.3587 10.7826 3.3587C11.7798 3.3587 12.5882 4.0738 12.5882 4.95592Z" stroke="white" stroke-width="1.3" stroke-linecap="round" stroke-linejoin="round"/>
</svg>
