<svg width="47" height="47" viewBox="0 0 47 47" fill="none" xmlns="http://www.w3.org/2000/svg">
<ellipse cx="23.4426" cy="23.2266" rx="23.3205" ry="22.87" fill="#AEEA00" fill-opacity="0.18"/>
<path d="M22.2044 9.53172C22.5221 8.74986 22.9977 8.43146 23.8427 8.44215C24.6383 8.45246 25.1219 8.793 25.4079 9.54661C26.959 9.67107 28.476 9.95663 29.9266 10.5453C31.5358 11.1981 32.9404 12.1426 34.0633 13.4739C35.0719 14.6696 35.7207 16.0504 36.0908 17.5649C36.3232 18.5151 36.4597 19.4791 36.4796 20.4576C36.483 20.6198 36.5343 20.7084 36.6887 20.7893C38.0976 21.5261 38.907 22.6959 39.1497 24.2588C39.3241 25.3816 39.2384 26.4803 38.819 27.5447C38.3209 28.8084 37.4186 29.6311 36.1156 30.0136C35.9925 30.0499 35.9157 30.1041 35.8541 30.2243C35.0616 31.7755 33.8534 32.928 32.3604 33.7927C31.0063 34.5773 29.5351 35.0392 28.002 35.3274C26.2421 35.6581 24.464 35.723 22.6839 35.66C20.6231 35.5874 18.5991 35.2793 16.6757 34.483C15.2484 33.8924 13.9776 33.0746 12.9381 31.9217C12.4774 31.4105 12.0847 30.8501 11.7781 30.2335C11.7204 30.1171 11.6458 30.0548 11.5223 30.0155C10.7217 29.7609 10.006 29.3719 9.47652 28.6954C9.00359 28.0914 8.70041 27.4096 8.54748 26.6621C8.32153 25.5568 8.32917 24.4558 8.69544 23.3796C9.0942 22.2083 9.87223 21.3532 10.9645 20.7813C11.0796 20.721 11.1262 20.6614 11.1324 20.5263C11.2077 18.9186 11.4482 17.3439 12.0962 15.8534C13.1029 13.5391 14.79 11.8918 17.0576 10.8194C18.2531 10.254 19.5094 9.88104 20.8219 9.70352C21.2804 9.64129 21.7399 9.58784 22.204 9.52981L22.2044 9.53172ZM18.9505 18.6823C18.9707 18.5002 18.9792 18.3475 19.0059 18.1982C19.2743 16.7174 20.0867 15.6435 21.4734 15.0551C22.901 14.4497 24.3772 14.4329 25.8384 14.9253C27.0573 15.3365 27.9255 16.1627 28.3828 17.3736C28.5395 17.7882 28.6125 18.2341 28.7284 18.6827C30.8575 18.9309 33.02 19.1679 35.1575 19.8967C35.0424 19.2363 34.9706 18.6136 34.8218 18.0097C34.1925 15.4476 32.7397 13.5063 30.3819 12.2789C28.4982 11.2982 26.4673 10.8935 24.3626 10.8194C23.3197 10.7828 22.2797 10.8374 21.2448 11.0008C19.9881 11.1989 18.7777 11.5406 17.6273 12.0831C15.7669 12.96 14.3401 14.2832 13.4435 16.1512C12.997 17.082 12.7278 18.0635 12.5814 19.0809C12.5439 19.3409 12.5278 19.6039 12.5003 19.8799C14.6077 19.1744 16.7728 18.9072 18.9501 18.6819L18.9505 18.6823ZM23.8029 20.0342C21.9685 20.0437 20.1364 20.0926 18.3116 20.2835C17.2209 20.3976 16.1263 20.4961 15.0462 20.679C14.285 20.8076 13.5456 21.0661 12.7958 21.2658C12.6884 21.2944 12.6364 21.3532 12.6039 21.4685C12.3179 22.4859 12.1853 23.5232 12.147 24.5776C12.1035 25.7825 12.1994 26.9709 12.5018 28.1399C12.8043 29.307 13.3334 30.3541 14.1852 31.2196C15.0863 32.1355 16.1775 32.7597 17.3642 33.2262C19.0904 33.9046 20.9019 34.1443 22.7378 34.2096C24.4173 34.2692 26.0942 34.2203 27.755 33.9157C29.0369 33.6805 30.2726 33.3117 31.4291 32.7005C32.4182 32.1779 33.2941 31.5193 33.967 30.6122C34.9407 29.2989 35.3009 27.7825 35.4385 26.194C35.5112 25.356 35.4836 24.5184 35.4068 23.6804C35.3384 22.9356 35.2283 22.2007 35.0271 21.4792C34.9939 21.3593 34.9388 21.3016 34.8283 21.2577C33.9773 20.9195 33.0884 20.7221 32.1873 20.5954C31.2708 20.4663 30.3498 20.3682 29.428 20.2846C28.5288 20.2029 27.6277 20.1388 26.7258 20.1002C25.7524 20.0582 24.7775 20.0548 23.8029 20.0346V20.0342ZM27.2067 18.5674C27.081 17.5492 26.4513 16.7052 25.4878 16.3043C24.6341 15.9493 23.7456 15.9363 22.8502 16.0852C21.4834 16.3127 20.5884 17.2683 20.437 18.567H27.2064L27.2067 18.5674ZM11.1205 28.3396C10.672 26.3467 10.6862 24.3611 11.0211 22.3519C9.1936 23.6373 9.25516 27.2733 11.1205 28.3396ZM36.6253 22.3958C36.9491 24.405 36.9506 26.3719 36.5243 28.3357C37.5719 27.6352 37.9179 26.6033 37.9343 25.4152C37.9508 24.2287 37.6308 23.1853 36.6253 22.3958Z" fill="#AEEA00"/>
<path d="M23.4667 21.247C24.957 21.2863 26.2634 21.297 27.5671 21.3619C28.6326 21.415 29.697 21.5124 30.7576 21.6296C31.3961 21.6998 32.0101 21.8899 32.5343 22.2904C33.1532 22.763 33.4801 23.4201 33.6766 24.1485C33.8888 24.9353 33.9076 25.7381 33.8445 26.5471C33.7963 27.1629 33.6736 27.7596 33.4354 28.3307C32.9747 29.4337 32.1087 30.0911 31.029 30.516C30.1948 30.8443 29.3312 31.0508 28.4434 31.1673C26.393 31.436 24.3342 31.475 22.2712 31.3986C21.6797 31.3769 21.0871 31.3616 20.4976 31.3135C19.0046 31.191 17.5288 30.9821 16.1586 30.3213C14.8683 29.699 14.1246 28.6659 13.8754 27.2683C13.6769 26.1562 13.6758 25.0487 13.9924 23.9553C14.3839 22.6023 15.3202 21.8605 16.6843 21.6658C17.6068 21.5341 18.5386 21.4478 19.4695 21.3959C20.8616 21.3188 22.2563 21.2898 23.4667 21.2466V21.247ZM27.0579 25.9344C27.0479 26.2993 27.1462 26.6933 27.3821 27.0476C27.9341 27.8772 28.9775 28.054 29.6707 27.4366C30.4896 26.7075 30.5924 25.4014 29.8985 24.5482C29.3174 23.8339 28.2775 23.7804 27.6306 24.4325C27.2341 24.8318 27.0537 25.3178 27.0582 25.9344H27.0579ZM20.571 25.8359C20.5878 25.477 20.4762 25.101 20.2594 24.7543C19.7066 23.8702 18.6051 23.6995 17.8821 24.3855C17.132 25.0968 17.0624 26.42 17.7334 27.206C18.3642 27.9452 19.3281 28.0028 19.9902 27.3423C20.3932 26.9403 20.5775 26.4528 20.571 25.8363V25.8359Z" fill="#AEEA00"/>
</svg>
