<svg width="179" height="199" viewBox="0 0 179 199" fill="none" xmlns="http://www.w3.org/2000/svg">
<path d="M136.309 71.4313C136.653 70.2901 136.965 69.1371 137.348 68.0076C138.5 64.6152 140.908 62.5164 144.295 61.4846C144.788 61.3341 145.004 61.1934 145.083 60.6149C145.815 55.2273 146.622 49.8494 147.374 44.4636C148.001 39.9749 148.576 35.4783 149.185 30.9876C149.693 27.2317 150.212 23.4777 150.738 19.7256C150.93 18.3538 151.726 17.7207 153.077 17.8223C154.263 17.9102 154.989 18.7681 155.083 20.0325C155.107 20.3588 155.384 20.7907 155.671 20.9548C162.897 25.0684 170.141 29.1507 177.381 33.2388C177.55 33.3346 177.726 33.4127 177.897 33.5046C178.608 33.8857 179.099 34.4074 178.983 35.2809C178.873 36.1193 178.28 36.4339 177.532 36.6371C175.498 37.1863 173.479 37.7862 171.449 38.3451C165.2 40.0609 158.95 41.7708 152.698 43.467C152.132 43.6214 151.855 43.9106 151.777 44.4949C151.382 47.4477 150.958 50.3965 150.549 53.3473C150.194 55.9132 149.848 58.479 149.513 60.9393C151.133 61.637 152.782 62.1607 154.241 63.0147C158.567 65.5434 160.739 69.4811 161.342 74.3587C161.937 79.1738 160.623 83.6547 158.999 88.1005C156.429 95.1375 153.491 101.977 149.191 108.186C142.703 117.55 134.53 125.14 125.01 131.35C124.712 131.546 124.419 131.749 124.199 131.898C124.92 135.163 125.743 138.348 126.302 141.581C126.817 144.545 127.168 147.549 127.376 150.55C127.783 156.452 128.034 162.363 128.362 168.271C128.619 172.91 128.941 177.547 129.153 182.189C129.312 185.685 129 189.114 126.96 192.116C128.998 192.446 130.98 192.766 132.959 193.093C133.149 193.124 133.344 193.171 133.521 193.249C134.273 193.583 135.416 193.73 135.355 194.717C135.294 195.715 134.153 195.95 133.326 196.106C131.158 196.517 128.973 196.972 126.777 197.093C119.312 197.505 111.84 197.933 104.364 198.068C95.4434 198.228 86.5147 198.154 77.5919 198.06C72.563 198.006 67.5301 197.82 62.513 197.476C58.7879 197.22 55.0845 196.64 51.3791 196.139C50.7664 196.057 50.144 195.723 49.6256 195.362C48.8185 194.799 48.8519 193.982 49.763 193.626C50.9255 193.171 52.1724 192.901 53.4056 192.661C54.6368 192.421 55.8955 192.311 57.0796 192.153C52.844 184.057 51.0217 175.263 49.2073 166.489C48.5279 163.202 48.1744 159.821 47.9918 156.466C47.7188 151.482 48.577 146.574 49.6432 141.721C50.3894 138.321 51.2789 134.954 52.1233 131.493C50.4424 130.311 48.5946 129.103 46.8431 127.768C35.1888 118.887 26.3052 107.838 20.6813 94.2953C18.8983 90.0039 16.9798 85.7184 15.7643 81.257C14.1502 75.328 15.5091 69.784 19.8055 65.2151C22.1187 62.7567 25.0465 61.3067 28.479 61.0136C28.6047 61.0038 28.7264 60.9726 28.8953 60.9432C28.4574 57.1463 28.0195 53.3864 27.5934 49.6266C27.3715 47.6626 27.126 45.6987 26.9807 43.7269C26.9257 42.9902 26.6842 42.658 25.9675 42.4528C17.8674 40.141 9.77913 37.7921 1.68103 35.4744C0.895574 35.2497 0.110113 35.0503 0.00996716 34.1104C-0.0941064 33.1431 0.634408 32.7092 1.37471 32.3067C8.83265 28.2732 16.2867 24.232 23.7407 20.1927C23.8801 20.1165 24.0176 20.0325 24.1432 19.9601C23.8546 18.3636 24.6204 17.1833 26.0401 16.9878C27.3813 16.8041 28.3592 17.7461 28.5438 19.3329C29.1074 24.1949 29.7043 29.053 30.262 33.9169C30.6901 37.6514 31.0573 41.3936 31.4814 45.13C31.9056 48.8645 32.3749 52.593 32.8088 56.3255C32.9777 57.7755 33.1191 59.2275 33.231 60.6833C33.2939 61.5041 33.5256 62.0454 34.3778 62.4695C37.9242 64.24 39.4951 67.3491 39.984 71.1558C40.9344 69.8797 42.0046 68.6935 42.7547 67.3334C43.1435 66.6299 42.9864 65.6177 43.0375 64.7422C43.4204 58.1683 45.0031 51.9149 48.0428 46.0485C52.1135 38.1868 58.6348 33.1489 66.7663 29.9753C71.051 28.3026 75.4986 27.2961 80.072 26.8271C80.879 26.7451 81.4917 26.5575 81.9217 25.6507C82.6915 24.0307 84.3076 23.4308 85.9708 23.0849C88.6217 22.5338 91.2766 22.4654 93.8804 23.3331C95.3688 23.8294 96.6373 24.6287 97.2696 26.1823C97.358 26.3992 97.7232 26.5907 97.9864 26.6356C103.924 27.6596 109.745 29.0823 115.111 31.9158C124.788 37.0241 130.86 44.9424 133.483 55.5087C134.622 60.0932 135.017 64.7656 135.253 69.4654C135.288 70.165 135.791 70.8412 136.077 71.5271C136.156 71.4958 136.236 71.4665 136.315 71.4353L136.309 71.4313ZM62.4168 119.702C62.3107 119.899 62.1262 120.198 61.9808 120.513C59.5125 125.898 57.4468 131.421 55.9505 137.162C54.7075 141.93 53.655 146.718 53.2544 151.639C53.1876 152.452 53.382 152.895 54.1361 153.185C55.9505 153.882 57.7158 154.722 59.5597 155.322C64.5277 156.937 69.6666 157.722 74.8663 158.056C79.5889 158.359 84.3193 158.658 89.0498 158.711C94.9879 158.777 100.922 158.535 106.819 157.695C112.093 156.942 117.177 155.61 121.931 153.177C122.202 153.038 122.459 152.538 122.438 152.223C122.306 150.281 122.092 148.346 121.911 146.407C121.434 141.293 120.288 136.332 118.507 131.513C118.014 130.18 118.1 129.91 119.28 129.097C124.189 125.719 129.065 122.308 133.523 118.33C141.338 111.353 147.384 103.138 151.423 93.4804C152.036 92.0147 152.584 90.5217 153.163 89.0366C147.649 88.6594 143.364 86.2225 139.906 82.4392C137.64 87.2895 135.406 92.2102 133.051 97.0722C130.84 101.639 128.229 105.972 124.92 109.858C120.557 114.984 114.972 118.232 108.669 120.384C102.831 122.375 96.8062 123.215 90.6561 123.385C84.1426 123.563 77.6881 123.061 71.3043 121.8C68.3568 121.218 65.4506 120.425 62.4148 119.7L62.4168 119.702ZM117.617 61.6038C117.65 61.3732 117.723 61.0546 117.735 60.7361C117.935 55.5575 117.692 50.4102 116.148 45.4251C114.491 40.0726 111.265 36.047 105.866 33.9697C102.259 32.5822 98.493 31.8963 94.6776 31.5524C90.3163 31.1576 85.9452 31.2065 81.5761 31.6852C77.1972 32.164 72.9262 33.0629 68.8281 34.6654C63.7226 36.6606 59.1807 39.4902 55.6972 43.8129C52.2883 48.0417 50.2696 52.9018 49.1307 58.1546C48.8597 59.4034 48.683 60.6716 48.4218 62.1607C53.6903 59.9798 59.0314 59.3115 64.4236 58.6393C64.4236 58.3364 64.4197 58.1136 64.4236 57.8908C64.5473 52.2432 67.6224 47.7994 72.94 45.7905C77.4466 44.0884 82.1043 43.9555 86.7778 44.9346C91.255 45.8726 94.7463 48.202 96.6943 52.4758C97.6054 54.473 97.9844 56.5932 97.9922 58.6901C104.547 59.6633 111.029 60.6267 117.613 61.6057L117.617 61.6038ZM83.2079 63.386C73.7097 63.5384 65.5272 63.771 57.4566 65.3226C54.6505 65.8619 51.8916 66.6045 49.437 68.1561C48.3865 68.8206 47.4714 69.5495 47.0512 70.8451C45.7238 74.9352 45.0326 79.1171 44.7361 83.3988C44.4356 87.7468 44.7105 92.0284 45.8102 96.2338C47.1396 101.321 49.7041 105.678 53.8592 109.018C58.3029 112.59 63.485 114.584 68.9675 115.871C74.5639 117.187 80.2526 117.761 86.0002 117.888C92.0502 118.021 98.0531 117.763 103.95 116.27C109.513 114.861 114.599 112.534 118.891 108.645C122.273 105.581 124.635 101.782 126.797 97.8402C126.944 97.5724 126.927 97.1699 126.874 96.8474C126.41 94.0119 125.678 91.194 125.491 88.3428C125.152 83.1486 125.468 77.9505 126.473 72.8286C126.658 71.8867 126.363 71.3219 125.743 70.806C125.348 70.4777 124.896 70.1865 124.423 69.9911C122.481 69.186 120.566 68.2753 118.56 67.6735C111.047 65.4203 103.282 64.5976 95.5043 63.9664C90.982 63.599 86.4362 63.5286 83.2079 63.384V63.386ZM74.4009 181.772C74.4795 180.547 74.56 179.382 74.6268 178.216C74.7092 176.787 74.7524 175.357 74.8703 173.932C74.9841 172.541 75.9306 171.786 77.2247 171.97C79.6066 172.306 81.9826 172.705 84.3724 172.957C88.9045 173.434 93.4366 173.268 97.9451 172.64C99.8322 172.379 100.411 172.676 101.134 174.473C102.157 177.022 103.237 179.55 104.266 182.097C104.506 182.691 104.845 182.931 105.509 182.888C107.979 182.726 110.463 182.714 112.922 182.464C116.724 182.077 120.27 180.899 123.461 178.734C123.944 178.405 124.099 178.079 124.06 177.549C123.958 176.187 123.879 174.825 123.787 173.463C123.551 170.028 123.315 166.592 123.078 163.157C122.972 161.619 122.864 160.081 122.752 158.48C116.918 161.23 110.862 162.643 104.639 163.301C100.588 163.729 96.5018 163.897 92.4273 164.038C85.5996 164.275 78.7897 163.934 71.9974 163.172C67.6303 162.684 63.3259 161.902 59.1296 160.601C57.0992 159.971 55.11 159.207 52.9598 158.453C53.1209 159.776 53.2347 161.033 53.4311 162.277C54.3364 168.023 55.6481 173.678 57.4134 179.224C57.5214 179.564 57.8709 179.943 58.2008 180.08C63.3927 182.239 68.8006 182.464 74.397 181.774L74.4009 181.772ZM53.8356 126.602C55.218 123.502 56.5239 120.569 57.7983 117.708C56.2607 116.845 54.733 116.106 53.3388 115.172C51.9093 114.214 50.5033 113.175 49.2701 111.983C44.1077 106.994 41.659 100.685 40.4808 93.7618C39.7484 89.4509 38.9021 85.1575 38.0596 80.5965C34.4937 85.5366 29.9733 88.4484 23.9606 89.0698C29.6415 104.918 39.8407 117.161 53.8356 126.6V126.602ZM77.3916 191.512H103.856C100.979 187.471 98.9328 183.046 97.1538 178.483C97.0576 178.235 96.4901 177.997 96.1739 178.03C91.5731 178.54 86.986 178.347 82.4028 177.829C81.5447 177.731 80.6807 177.674 79.8442 177.6C79.2433 182.294 79.5536 187.037 77.3916 191.512ZM147.842 65.8756C146.408 65.858 145.118 66.3622 144.036 67.3647C140.814 70.3487 140.378 75.1775 143.144 78.7204C145.169 81.3136 148.275 82.4158 151.093 83.7876C153.232 84.8292 154.824 83.8502 155.663 81.5833C156.766 78.6032 156.87 75.5644 155.993 72.5218C154.932 68.8401 151.303 65.9186 147.84 65.8776L147.842 65.8756ZM35.2045 73.3699C35.2222 71.1793 34.6429 69.5123 33.4942 68.0799C32.2571 66.5381 30.6488 65.4828 28.6066 65.7408C26.2758 66.0359 24.2493 67.1341 22.8256 69.0336C19.9764 72.8325 19.6052 77.0692 20.9994 81.4817C21.8615 84.2136 23.6229 84.8546 26.1599 83.5219C27.6503 82.7382 29.1329 81.9312 30.5879 81.085C33.6709 79.2891 35.0513 76.5064 35.2025 73.3699H35.2045ZM92.0856 57.8889C92.0856 57.8889 92.115 57.7618 92.1092 57.6387C91.956 54.6508 90.3006 52.6106 87.6752 51.53C83.0999 49.6461 78.4284 49.8044 73.9532 51.8739C71.4751 53.019 70.1516 55.1374 70.236 57.8869H92.0856V57.8889ZM117.564 39.1932C121.587 46.6308 121.802 54.7114 121.705 62.7548C124.439 63.8354 127.101 64.8887 129.825 65.9655C129.169 55.4755 126.11 46.0817 117.564 39.1932ZM107.534 187.731C109.978 192.458 116.492 193.509 120.378 191.397C122.956 189.995 124.692 186.394 124.101 183.844C119.056 187.135 113.389 187.725 107.534 187.731ZM59.5361 185.634C60.8105 189.833 63.6009 192.11 67.2945 192.047C70.0515 192 72.9851 189.536 73.749 186.515C68.9538 187.344 64.2626 187.039 59.5361 185.634ZM131.85 74.5619C130.353 79.7796 130.281 84.9074 130.913 90.1075C132.425 86.6368 133.788 83.133 135.145 79.6233C135.2 79.4826 135.233 79.2969 135.186 79.1621C134.559 77.3603 133.654 75.752 131.85 74.56V74.5619Z" fill="url(#paint0_linear_181_33)"/>
<path d="M46.7218 11.1133C46.4528 10.9199 46.1975 10.7811 45.9991 10.5857C44.8151 9.41906 43.6545 8.23092 42.4646 7.06818C41.8853 6.50147 41.8421 5.98556 42.4528 5.41494C43.6899 4.25807 44.9231 3.09533 46.1366 1.91109C46.7355 1.32679 47.2304 1.38151 47.7959 1.96581C48.9289 3.13637 50.0894 4.28152 51.2578 5.4169C51.7958 5.94062 51.9097 6.47802 51.3501 7.01346C50.0541 8.25241 48.7345 9.46596 47.4149 10.6776C47.2343 10.8437 46.9928 10.9453 46.7198 11.1133H46.7218Z" fill="url(#paint1_linear_181_33)"/>
<path d="M130.407 23.0084C131.487 23.5243 132.396 23.9445 133.294 24.392C136.225 25.8557 136.094 25.4941 134.56 28.3531C134.085 29.2384 133.598 30.1158 133.131 31.0049C132.773 31.683 132.288 31.8198 131.607 31.4681C130.399 30.8466 129.172 30.2623 127.96 29.6487C126.953 29.1387 126.835 28.7889 127.346 27.8177C128.053 26.4712 128.754 25.1189 129.516 23.8018C129.712 23.4637 130.126 23.2507 130.411 23.0084H130.407Z" fill="url(#paint2_linear_181_33)"/>
<path d="M143.773 136.085C143.893 135.74 143.929 135.579 143.999 135.437C144.671 134.078 145.36 132.728 146.018 131.362C146.375 130.62 146.87 130.469 147.593 130.844C148.69 131.413 149.798 131.96 150.907 132.505C151.62 132.857 151.815 133.338 151.432 134.071C150.762 135.357 150.128 136.662 149.486 137.961C149.117 138.71 148.612 138.929 147.826 138.516C146.762 137.958 145.651 137.489 144.594 136.914C144.247 136.724 144.009 136.332 143.773 136.083V136.085Z" fill="url(#paint3_linear_181_33)"/>
<path d="M15.8074 105.825C15.6052 106.042 15.4344 106.337 15.1771 106.483C13.993 107.156 12.7815 107.783 11.5856 108.436C11.0201 108.744 10.5782 108.623 10.2758 108.074C9.53947 106.739 8.83255 105.391 8.0844 104.062C7.77218 103.507 7.93517 103.118 8.4359 102.849C9.69067 102.168 10.9415 101.479 12.2375 100.885C12.5105 100.76 13.1683 100.904 13.3018 101.129C14.1305 102.516 14.861 103.96 15.6209 105.389C15.6798 105.5 15.723 105.623 15.8094 105.827L15.8074 105.825Z" fill="url(#paint4_linear_181_33)"/>
<path d="M167.313 107.496C167.217 107.769 167.184 107.965 167.089 108.125C166.353 109.378 165.621 110.634 164.855 111.869C164.535 112.383 164.079 112.506 163.523 112.152C162.485 111.492 161.432 110.857 160.385 110.208C159.814 109.854 159.694 109.415 160.077 108.83C160.855 107.64 161.607 106.433 162.377 105.237C162.712 104.715 163.168 104.578 163.71 104.91C164.76 105.553 165.809 106.198 166.836 106.876C167.05 107.017 167.17 107.3 167.315 107.496H167.313Z" fill="url(#paint5_linear_181_33)"/>
<path d="M124.517 2.90397C124.378 3.11112 124.27 3.34953 124.095 3.51954C122.834 4.74481 121.552 5.94664 120.297 7.17582C119.7 7.76012 119.202 7.72103 118.65 7.11133C118.082 6.48404 117.462 5.9056 116.861 5.31153C116.403 4.85816 116.405 4.40283 116.857 3.95923C118.135 2.70465 119.394 1.42857 120.723 0.234562C120.975 0.00787708 121.69 -0.0859237 121.91 0.0958153C122.756 0.795412 123.492 1.62985 124.26 2.42325C124.366 2.53268 124.411 2.70074 124.517 2.90397Z" fill="url(#paint6_linear_181_33)"/>
<path d="M30.5219 131.735C30.3589 131.923 30.1939 132.212 29.9465 132.378C28.5484 133.318 27.1424 134.246 25.7148 135.143C25.2063 135.462 24.7252 135.35 24.3933 134.801C23.8906 133.971 23.3801 133.146 22.8734 132.319C22.5593 131.808 22.6849 131.387 23.168 131.075C24.6113 130.144 26.0447 129.197 27.5273 128.333C27.7963 128.177 28.4797 128.249 28.6309 128.46C29.2907 129.373 29.8267 130.373 30.4021 131.344C30.4492 131.424 30.459 131.528 30.5199 131.735H30.5219Z" fill="url(#paint7_linear_181_33)"/>
<path d="M171.128 56.6555C170.941 56.9565 170.798 57.2515 170.599 57.5017C169.771 58.5433 168.915 59.5633 168.088 60.6069C167.55 61.285 166.998 61.4511 166.279 60.8414C165.561 60.2336 164.797 59.6786 164.051 59.1022C163.505 58.6801 163.462 58.1778 163.882 57.6678C164.873 56.464 165.855 55.2505 166.924 54.117C167.143 53.8845 167.846 53.7926 168.112 53.9666C169.06 54.586 169.922 55.3384 170.796 56.0654C170.953 56.1963 171.014 56.4425 171.132 56.6555H171.128Z" fill="url(#paint8_linear_181_33)"/>
<path d="M13.9011 58.8071C13.7656 59.0983 13.6929 59.3152 13.5731 59.4989C12.8662 60.5854 12.1377 61.6602 11.4386 62.7507C11.0518 63.3545 10.6277 63.5128 9.98947 63.0751C9.0803 62.4497 8.14364 61.8674 7.20502 61.285C6.56486 60.8864 6.38028 60.4408 6.85352 59.7666C7.58007 58.7348 8.25753 57.6678 8.95266 56.6145C9.28452 56.1103 9.7558 55.8837 10.286 56.1963C11.3758 56.8373 12.4323 57.533 13.4848 58.2365C13.6733 58.3616 13.7695 58.6215 13.8991 58.8091L13.9011 58.8071Z" fill="url(#paint9_linear_181_33)"/>
<path d="M96.7059 9.18077C96.2974 10.7832 95.9832 12.1648 95.565 13.5151C95.4963 13.736 94.9425 13.9763 94.6578 13.9294C93.3834 13.7242 92.1109 13.4702 90.8758 13.1048C90.6107 13.0266 90.3044 12.3759 90.3652 12.0534C90.6127 10.7304 90.9465 9.41527 91.3628 8.13528C91.459 7.83629 92.0422 7.45718 92.3407 7.50408C93.5797 7.69559 94.8109 7.98677 96.0107 8.35415C96.3269 8.45186 96.5213 8.95018 96.7059 9.18273V9.18077Z" fill="url(#paint10_linear_181_33)"/>
<path d="M46.6228 34.2411C46.505 34.3818 46.3676 34.6456 46.1476 34.7922C45.1776 35.441 44.184 36.0546 43.2002 36.6799C42.6131 37.0532 42.1869 36.9301 41.8531 36.3106C41.4231 35.5152 40.9538 34.7394 40.4864 33.9656C40.1565 33.4184 40.2351 33.0061 40.7928 32.6602C41.7844 32.0466 42.7368 31.3646 43.7579 30.8037C44.0289 30.6552 44.6886 30.7119 44.8281 30.9112C45.4741 31.8336 46.0023 32.838 46.5639 33.8171C46.6091 33.8952 46.5934 34.0066 46.6248 34.2411H46.6228Z" fill="url(#paint11_linear_181_33)"/>
<path d="M88.3889 110.753C84.5146 110.513 80.6384 110.31 76.766 110.026C72.285 109.698 67.8628 108.977 63.5585 107.673C59.8747 106.558 56.507 104.875 53.7697 102.081C51.2602 99.5207 49.7815 96.4487 49.0412 92.9937C48.0555 88.3955 47.9279 83.7739 49.1728 79.2187C50.8557 73.0552 55.0755 69.5064 61.3062 68.4726C64.7328 67.9039 68.2261 67.6362 71.7018 67.4858C76.3988 67.2825 81.1096 67.2004 85.8087 67.2942C90.1444 67.3802 94.4782 67.6909 98.8021 68.0446C102.17 68.3202 105.535 68.7149 108.874 69.2426C112.279 69.7819 115.362 71.0775 117.74 73.7294C119.788 76.0158 120.872 78.736 121.26 81.6985C121.808 85.8766 121.685 90.0605 120.624 94.1642C118.719 101.539 113.718 105.885 106.61 108.062C102.559 109.303 98.3957 109.979 94.164 110.233C92.2416 110.349 90.3211 110.484 88.4007 110.611L88.3889 110.753ZM101.447 77.7667C97.2469 77.7745 93.3883 81.0693 92.6991 85.2356C92.4576 86.7032 93.7536 87.8073 95.1929 87.3852C96.0766 87.1272 96.3378 86.414 96.597 85.6675C97.2293 83.8501 98.9789 82.6717 101.056 82.6541C103.161 82.6365 104.805 83.7074 105.451 85.5463C105.6 85.9684 105.669 86.4179 105.777 86.8556C106.009 87.7936 106.637 88.2763 107.582 88.3427C108.485 88.4053 109.353 87.8776 109.563 86.9553C109.712 86.2928 109.638 85.5522 109.532 84.8662C108.905 80.827 105.392 77.7589 101.449 77.7648L101.447 77.7667ZM74.0366 85.1613C73.7852 81.1201 70.445 77.1863 65.585 77.3544C60.9528 77.5146 57.9366 81.9975 57.7599 84.876C57.6852 86.1013 58.2959 86.9045 59.3445 87.0823C60.3676 87.2562 61.1648 86.6719 61.5144 85.4916C62.1741 83.254 63.7451 82.0718 66.0268 82.0991C68.1652 82.1245 69.9325 83.5198 70.4981 85.6284C70.8378 86.8986 71.4367 87.4301 72.3773 87.2992C73.4769 87.1448 74.0464 86.4101 74.0385 85.1594L74.0366 85.1613ZM83.1891 100.883C86.0639 100.937 88.5205 100.224 90.708 98.6764C91.8724 97.8537 92.7796 96.818 93.1075 95.3719C93.3412 94.3401 92.9701 93.492 92.0413 93.0269C91.195 92.6028 90.4095 92.7846 89.6888 93.5682C89.249 94.047 88.8445 94.5648 88.3594 94.9909C85.0959 97.8498 79.0949 97.2948 76.7935 93.4158C76.3026 92.5872 75.258 92.3879 74.3802 92.8178C73.5771 93.2106 73.1863 94.0275 73.5574 94.9498C73.8893 95.7725 74.3095 96.6187 74.8947 97.2753C77.1372 99.7903 79.9943 100.986 83.1891 100.881V100.883Z" fill="url(#paint12_linear_181_33)"/>
<defs>
<linearGradient id="paint0_linear_181_33" x1="161.516" y1="183.305" x2="27.3515" y2="-1.22051" gradientUnits="userSpaceOnUse">
<stop offset="0.36733" stop-color="#AEEA00"/>
<stop offset="0.990453" stop-color="white"/>
</linearGradient>
<linearGradient id="paint1_linear_181_33" x1="50.7711" y1="10.325" x2="43.7017" y2="0.387643" gradientUnits="userSpaceOnUse">
<stop offset="0.36733" stop-color="#AEEA00"/>
<stop offset="0.990453" stop-color="white"/>
</linearGradient>
<linearGradient id="paint2_linear_181_33" x1="134.791" y1="30.9466" x2="128.397" y2="22.1148" gradientUnits="userSpaceOnUse">
<stop offset="0.36733" stop-color="#AEEA00"/>
<stop offset="0.990453" stop-color="white"/>
</linearGradient>
<linearGradient id="paint3_linear_181_33" x1="150.858" y1="138.06" x2="144.849" y2="129.928" gradientUnits="userSpaceOnUse">
<stop offset="0.36733" stop-color="#AEEA00"/>
<stop offset="0.990453" stop-color="white"/>
</linearGradient>
<linearGradient id="paint4_linear_181_33" x1="15.0393" y1="107.965" x2="9.34158" y2="99.9096" gradientUnits="userSpaceOnUse">
<stop offset="0.36733" stop-color="#AEEA00"/>
<stop offset="0.990453" stop-color="white"/>
</linearGradient>
<linearGradient id="paint5_linear_181_33" x1="166.587" y1="111.729" x2="160.925" y2="104.016" gradientUnits="userSpaceOnUse">
<stop offset="0.36733" stop-color="#AEEA00"/>
<stop offset="0.990453" stop-color="white"/>
</linearGradient>
<linearGradient id="paint6_linear_181_33" x1="123.736" y1="6.96966" x2="118.235" y2="-1.0993" gradientUnits="userSpaceOnUse">
<stop offset="0.36733" stop-color="#AEEA00"/>
<stop offset="0.990453" stop-color="white"/>
</linearGradient>
<linearGradient id="paint7_linear_181_33" x1="29.758" y1="134.74" x2="24.7299" y2="126.998" gradientUnits="userSpaceOnUse">
<stop offset="0.36733" stop-color="#AEEA00"/>
<stop offset="0.990453" stop-color="white"/>
</linearGradient>
<linearGradient id="paint8_linear_181_33" x1="170.396" y1="60.6166" x2="165.026" y2="52.9467" gradientUnits="userSpaceOnUse">
<stop offset="0.36733" stop-color="#AEEA00"/>
<stop offset="0.990453" stop-color="white"/>
</linearGradient>
<linearGradient id="paint9_linear_181_33" x1="13.1868" y1="62.728" x2="7.83363" y2="55.2319" gradientUnits="userSpaceOnUse">
<stop offset="0.36733" stop-color="#AEEA00"/>
<stop offset="0.990453" stop-color="white"/>
</linearGradient>
<linearGradient id="paint10_linear_181_33" x1="96.0858" y1="13.4077" x2="91.3189" y2="6.86051" gradientUnits="userSpaceOnUse">
<stop offset="0.36733" stop-color="#AEEA00"/>
<stop offset="0.990453" stop-color="white"/>
</linearGradient>
<linearGradient id="paint11_linear_181_33" x1="46.0062" y1="36.3845" x2="41.4938" y2="29.9361" gradientUnits="userSpaceOnUse">
<stop offset="0.36733" stop-color="#AEEA00"/>
<stop offset="0.990453" stop-color="white"/>
</linearGradient>
<linearGradient id="paint12_linear_181_33" x1="114.419" y1="107.187" x2="89.9966" y2="49.8812" gradientUnits="userSpaceOnUse">
<stop offset="0.36733" stop-color="#AEEA00"/>
<stop offset="0.990453" stop-color="white"/>
</linearGradient>
</defs>
</svg>
