<svg width="179" height="164" viewBox="0 0 179 164" fill="none" xmlns="http://www.w3.org/2000/svg">
<path d="M136.309 72.3582C136.653 71.217 136.965 70.064 137.348 68.9345C138.5 65.542 140.908 63.4432 144.295 62.4114C144.788 62.261 145.004 62.1203 145.083 61.5418C145.815 56.1541 146.622 50.7762 147.374 45.3905C148.001 40.9018 148.576 36.4052 149.185 31.9145C149.693 28.1585 150.212 24.4046 150.738 20.6525C150.93 19.2807 151.726 18.6475 153.077 18.7492C154.263 18.8371 154.989 19.695 155.083 20.9593C155.107 21.2857 155.384 21.7176 155.671 21.8817C162.897 25.9953 170.141 30.0775 177.381 34.1657C177.55 34.2614 177.726 34.3396 177.897 34.4315C178.608 34.8125 179.099 35.3343 178.983 36.2078C178.873 37.0462 178.28 37.3608 177.532 37.564C175.498 38.1131 173.479 38.7131 171.449 39.272C165.2 40.9877 158.95 42.6977 152.698 44.3939C152.132 44.5483 151.855 44.8375 151.777 45.4218C151.382 48.3745 150.958 51.3234 150.549 54.2742C150.194 56.8401 149.848 59.4059 149.513 61.8662C151.133 62.5639 152.782 63.0876 154.241 63.9416C158.567 66.4703 160.739 70.4079 161.342 75.2856C161.937 80.1007 160.623 84.5816 158.999 89.0274C156.429 96.0644 153.491 102.904 149.191 109.112C142.703 118.477 134.53 126.067 125.01 132.277C124.712 132.473 124.419 132.676 124.199 132.825C124.92 136.09 125.743 139.275 126.302 142.507C126.817 145.472 127.168 148.476 127.376 151.477C127.783 157.379 128.034 163.29 128.362 169.198C128.619 173.837 128.941 178.474 129.153 183.115C129.312 186.611 129 190.041 126.96 193.043C128.998 193.373 130.98 193.693 132.959 194.02C133.149 194.051 133.344 194.098 133.521 194.176C134.273 194.51 135.416 194.657 135.355 195.644C135.294 196.642 134.153 196.877 133.326 197.033C131.158 197.443 128.973 197.899 126.777 198.02C119.312 198.432 111.84 198.86 104.364 198.995C95.4434 199.155 86.5147 199.081 77.5919 198.987C72.563 198.933 67.5301 198.747 62.513 198.403C58.7879 198.147 55.0845 197.567 51.3791 197.066C50.7664 196.984 50.144 196.65 49.6255 196.289C48.8185 195.726 48.8519 194.909 49.763 194.553C50.9255 194.098 52.1724 193.828 53.4056 193.588C54.6368 193.347 55.8955 193.238 57.0796 193.08C52.844 184.984 51.0217 176.19 49.2073 167.415C48.5279 164.129 48.1744 160.748 47.9918 157.393C47.7188 152.409 48.577 147.5 49.6432 142.648C50.3894 139.248 51.2789 135.881 52.1233 132.42C50.4424 131.238 48.5946 130.03 46.8431 128.695C35.1888 119.814 26.3052 108.765 20.6813 95.2222C18.8983 90.9308 16.9798 86.6452 15.7643 82.1839C14.1502 76.2549 15.5091 70.7108 19.8055 66.142C22.1187 63.6836 25.0465 62.2336 28.479 61.9405C28.6047 61.9307 28.7264 61.8994 28.8953 61.8701C28.4574 58.0732 28.0195 54.3133 27.5934 50.5535C27.3715 48.5895 27.126 46.6256 26.9807 44.6538C26.9257 43.9171 26.6842 43.5849 25.9675 43.3797C17.8674 41.0679 9.77913 38.7189 1.68103 36.4013C0.895574 36.1765 0.110113 35.9772 0.00996716 35.0373C-0.0941064 34.0699 0.634408 33.6361 1.3747 33.2336C8.83265 29.2001 16.2867 25.1589 23.7407 21.1196C23.8801 21.0434 24.0176 20.9593 24.1432 20.887C23.8546 19.2905 24.6204 18.1101 26.0401 17.9147C27.3813 17.731 28.3592 18.6729 28.5438 20.2597C29.1074 25.1217 29.7043 29.9798 30.262 34.8438C30.6901 38.5782 31.0573 42.3205 31.4814 46.0569C31.9056 49.7913 32.3749 53.5199 32.8088 57.2524C32.9777 58.7024 33.1191 60.1544 33.231 61.6102C33.2939 62.431 33.5256 62.9723 34.3778 63.3963C37.9242 65.1668 39.4951 68.2759 39.984 72.0827C40.9344 70.8066 42.0046 69.6204 42.7547 68.2603C43.1435 67.5568 42.9864 66.5445 43.0375 65.6691C43.4204 59.0952 45.0031 52.8418 48.0428 46.9754C52.1135 39.1137 58.6348 34.0758 66.7663 30.9022C71.051 29.2294 75.4986 28.223 80.072 27.754C80.879 27.6719 81.4917 27.4843 81.9217 26.5776C82.6915 24.9576 84.3076 24.3577 85.9708 24.0118C88.6217 23.4607 91.2766 23.3923 93.8804 24.2599C95.3688 24.7563 96.6373 25.5556 97.2696 27.1091C97.358 27.3261 97.7232 27.5176 97.9864 27.5625C103.924 28.5865 109.745 30.0092 115.111 32.8427C124.788 37.9509 130.86 45.8693 133.483 56.4356C134.622 61.0201 135.017 65.6925 135.253 70.3923C135.288 71.0919 135.791 71.7681 136.077 72.454C136.156 72.4227 136.236 72.3934 136.315 72.3621L136.309 72.3582ZM62.4168 120.628C62.3107 120.826 62.1262 121.125 61.9808 121.439C59.5125 126.825 57.4468 132.348 55.9505 138.089C54.7075 142.857 53.655 147.645 53.2544 152.566C53.1876 153.379 53.382 153.822 54.1361 154.111C55.9505 154.809 57.7158 155.649 59.5597 156.249C64.5277 157.863 69.6666 158.649 74.8663 158.983C79.5889 159.286 84.3193 159.585 89.0498 159.638C94.9879 159.704 100.922 159.462 106.819 158.622C112.093 157.869 117.177 156.537 121.931 154.104C122.202 153.965 122.459 153.465 122.438 153.15C122.306 151.208 122.092 149.273 121.911 147.334C121.434 142.22 120.288 137.259 118.507 132.44C118.014 131.107 118.1 130.837 119.28 130.024C124.189 126.645 129.065 123.235 133.523 119.257C141.338 112.28 147.384 104.065 151.423 94.4073C152.036 92.9416 152.584 91.4486 153.163 89.9634C147.649 89.5863 143.364 87.1494 139.906 83.3661C137.64 88.2164 135.406 93.137 133.051 97.999C130.84 102.566 128.229 106.898 124.92 110.785C120.557 115.911 114.972 119.159 108.669 121.31C102.831 123.302 96.8062 124.142 90.6561 124.312C84.1426 124.49 77.6881 123.988 71.3043 122.727C68.3568 122.145 65.4506 121.352 62.4148 120.627L62.4168 120.628ZM117.617 62.5306C117.65 62.3 117.723 61.9815 117.735 61.663C117.935 56.4844 117.692 51.3371 116.148 46.352C114.491 40.9995 111.265 36.9739 105.866 34.8966C102.259 33.5091 98.493 32.8232 94.6776 32.4792C90.3163 32.0845 85.9452 32.1333 81.5761 32.6121C77.1972 33.0909 72.9262 33.9898 68.8281 35.5922C63.7226 37.5875 59.1807 40.4171 55.6972 44.7398C52.2883 48.9686 50.2696 53.8287 49.1307 59.0815C48.8597 60.3302 48.683 61.5985 48.4218 63.0876C53.6903 60.9067 59.0314 60.2384 64.4236 59.5661C64.4236 59.2632 64.4197 59.0405 64.4236 58.8177C64.5473 53.1701 67.6224 48.7263 72.94 46.7174C77.4466 45.0153 82.1043 44.8824 86.7778 45.8615C91.255 46.7995 94.7463 49.1289 96.6943 53.4027C97.6054 55.3998 97.9844 57.5201 97.9922 59.617C104.547 60.5901 111.029 61.5536 117.613 62.5326L117.617 62.5306ZM83.2079 64.3129C73.7097 64.4653 65.5272 64.6978 57.4566 66.2495C54.6505 66.7888 51.8916 67.5314 49.437 69.083C48.3865 69.7474 47.4714 70.4763 47.0512 71.772C45.7238 75.8621 45.0326 80.044 44.7361 84.3256C44.4356 88.6737 44.7105 92.9553 45.8102 97.1607C47.1396 102.247 49.7041 106.605 53.8592 109.945C58.3029 113.517 63.485 115.51 68.9675 116.798C74.5639 118.113 80.2526 118.688 86.0002 118.815C92.0502 118.948 98.0531 118.69 103.95 117.197C109.513 115.788 114.599 113.461 118.891 109.572C122.273 106.508 124.635 102.709 126.797 98.767C126.944 98.4993 126.927 98.0968 126.874 97.7743C126.41 94.9388 125.678 92.1209 125.491 89.2697C125.152 84.0755 125.468 78.8774 126.473 73.7555C126.658 72.8135 126.363 72.2488 125.743 71.7329C125.348 71.4046 124.896 71.1134 124.423 70.918C122.481 70.1129 120.566 69.2022 118.56 68.6003C111.047 66.3472 103.282 65.5244 95.5043 64.8932C90.982 64.5259 86.4362 64.4555 83.2079 64.3109V64.3129ZM74.4009 182.699C74.4795 181.474 74.56 180.309 74.6268 179.143C74.7092 177.714 74.7524 176.284 74.8703 174.859C74.9841 173.468 75.9306 172.713 77.2247 172.897C79.6066 173.233 81.9826 173.632 84.3724 173.884C88.9045 174.361 93.4366 174.195 97.9451 173.567C99.8322 173.305 100.411 173.602 101.134 175.4C102.157 177.949 103.237 180.477 104.266 183.024C104.506 183.618 104.845 183.858 105.509 183.815C107.979 183.653 110.463 183.641 112.922 183.391C116.724 183.004 120.27 181.826 123.461 179.66C123.944 179.332 124.099 179.006 124.06 178.476C123.958 177.114 123.879 175.752 123.787 174.39C123.551 170.955 123.315 167.519 123.078 164.084C122.972 162.546 122.864 161.008 122.752 159.407C116.918 162.157 110.862 163.57 104.639 164.228C100.588 164.656 96.5018 164.824 92.4273 164.965C85.5996 165.201 78.7897 164.861 71.9974 164.099C67.6303 163.611 63.3259 162.829 59.1296 161.528C57.0992 160.898 55.11 160.134 52.9598 159.38C53.1209 160.703 53.2347 161.959 53.4311 163.204C54.3363 168.95 55.6481 174.605 57.4134 180.151C57.5214 180.491 57.8709 180.87 58.2008 181.007C63.3927 183.166 68.8006 183.391 74.397 182.701L74.4009 182.699ZM53.8356 127.529C55.218 124.429 56.5239 121.496 57.7983 118.635C56.2607 117.771 54.733 117.033 53.3388 116.099C51.9093 115.141 50.5033 114.102 49.2701 112.909C44.1077 107.92 41.659 101.612 40.4808 94.6887C39.7484 90.3777 38.9021 86.0844 38.0596 81.5233C34.4937 86.4635 29.9733 89.3752 23.9606 89.9967C29.6415 105.845 39.8407 118.088 53.8356 127.527V127.529ZM77.3916 192.439H103.856C100.979 188.398 98.9328 183.973 97.1538 179.41C97.0576 179.162 96.4901 178.924 96.1739 178.957C91.5731 179.467 86.986 179.273 82.4028 178.756C81.5447 178.658 80.6807 178.601 79.8442 178.527C79.2433 183.221 79.5536 187.964 77.3916 192.439ZM147.842 66.8025C146.408 66.7849 145.118 67.2891 144.036 68.2916C140.814 71.2756 140.378 76.1044 143.144 79.6473C145.169 82.2405 148.275 83.3427 151.093 84.7145C153.232 85.7561 154.824 84.777 155.663 82.5102C156.766 79.5301 156.87 76.4913 155.993 73.4487C154.932 69.767 151.303 66.8455 147.84 66.8044L147.842 66.8025ZM35.2045 74.2968C35.2222 72.1061 34.6429 70.4392 33.4942 69.0068C32.2571 67.465 30.6488 66.4097 28.6066 66.6676C26.2758 66.9627 24.2493 68.061 22.8256 69.9604C19.9764 73.7594 19.6052 77.996 20.9994 82.4086C21.8615 85.1405 23.6229 85.7815 26.1599 84.4487C27.6503 83.6651 29.1329 82.858 30.5879 82.0119C33.6709 80.216 35.0513 77.4332 35.2025 74.2968H35.2045ZM92.0856 58.8157C92.0856 58.8157 92.115 58.6887 92.1092 58.5656C91.956 55.5777 90.3006 53.5375 87.6752 52.4568C83.0999 50.573 78.4284 50.7313 73.9532 52.8008C71.4751 53.9459 70.1516 56.0643 70.236 58.8138H92.0856V58.8157ZM117.564 40.1201C121.587 47.5577 121.802 55.6382 121.705 63.6817C124.439 64.7623 127.101 65.8156 129.825 66.8924C129.169 56.4023 126.11 47.0086 117.564 40.1201ZM107.534 188.657C109.978 193.385 116.492 194.436 120.378 192.323C122.956 190.922 124.692 187.321 124.101 184.771C119.056 188.061 113.389 188.652 107.534 188.657ZM59.5361 186.561C60.8105 190.76 63.6009 193.037 67.2945 192.974C70.0515 192.927 72.9851 190.463 73.749 187.442C68.9538 188.271 64.2626 187.966 59.5361 186.561ZM131.85 75.4888C130.353 80.7065 130.281 85.8343 130.913 91.0343C132.425 87.5637 133.788 84.0599 135.145 80.5502C135.2 80.4095 135.233 80.2238 135.186 80.089C134.559 78.2872 133.654 76.6789 131.85 75.4869V75.4888Z" fill="url(#paint0_linear_181_3)"/>
<path d="M46.7218 12.0402C46.4528 11.8468 46.1975 11.708 45.9991 11.5126C44.8151 10.3459 43.6545 9.1578 42.4646 7.99506C41.8853 7.42835 41.8421 6.91244 42.4528 6.34182C43.6899 5.18495 44.9231 4.02221 46.1366 2.83797C46.7355 2.25367 47.2304 2.30839 47.7959 2.89269C48.9289 4.06325 50.0894 5.2084 51.2578 6.34378C51.7958 6.8675 51.9097 7.4049 51.3501 7.94034C50.0541 9.17929 48.7345 10.3928 47.4149 11.6044C47.2343 11.7705 46.9928 11.8722 46.7198 12.0402H46.7218Z" fill="url(#paint1_linear_181_3)"/>
<path d="M130.407 23.9353C131.487 24.4512 132.396 24.8714 133.294 25.3189C136.225 26.7825 136.094 26.421 134.56 29.28C134.085 30.1652 133.598 31.0427 133.131 31.9318C132.773 32.6099 132.288 32.7467 131.607 32.395C130.399 31.7735 129.172 31.1892 127.96 30.5756C126.953 30.0656 126.835 29.7158 127.346 28.7445C128.053 27.3981 128.754 26.0458 129.516 24.7287C129.712 24.3906 130.126 24.1776 130.411 23.9353H130.407Z" fill="url(#paint2_linear_181_3)"/>
<path d="M143.773 137.012C143.893 136.666 143.929 136.506 143.999 136.364C144.671 135.005 145.36 133.655 146.018 132.289C146.375 131.546 146.87 131.396 147.593 131.771C148.69 132.34 149.798 132.887 150.907 133.432C151.62 133.784 151.815 134.265 151.432 134.998C150.762 136.283 150.128 137.589 149.486 138.888C149.117 139.637 148.612 139.856 147.826 139.443C146.762 138.884 145.651 138.415 144.594 137.841C144.247 137.651 144.009 137.259 143.773 137.01V137.012Z" fill="url(#paint3_linear_181_3)"/>
<path d="M15.8074 106.752C15.6052 106.969 15.4344 107.264 15.1771 107.41C13.993 108.082 12.7815 108.71 11.5856 109.362C11.0201 109.671 10.5782 109.55 10.2758 109.001C9.53947 107.666 8.83255 106.318 8.0844 104.989C7.77218 104.434 7.93517 104.045 8.4359 103.775C9.69067 103.095 10.9415 102.406 12.2375 101.811C12.5105 101.686 13.1683 101.831 13.3018 102.056C14.1305 103.443 14.861 104.887 15.6209 106.316C15.6798 106.427 15.723 106.55 15.8094 106.754L15.8074 106.752Z" fill="url(#paint4_linear_181_3)"/>
<path d="M167.313 108.423C167.217 108.696 167.184 108.892 167.089 109.052C166.353 110.304 165.621 111.561 164.855 112.796C164.535 113.31 164.079 113.433 163.523 113.079C162.485 112.419 161.432 111.784 160.385 111.135C159.814 110.781 159.694 110.342 160.077 109.757C160.855 108.567 161.607 107.359 162.377 106.164C162.712 105.642 163.168 105.505 163.71 105.837C164.76 106.48 165.809 107.125 166.836 107.803C167.05 107.944 167.17 108.227 167.315 108.423H167.313Z" fill="url(#paint5_linear_181_3)"/>
<path d="M124.517 3.83085C124.378 4.038 124.27 4.27641 124.095 4.44642C122.834 5.67169 121.552 6.87352 120.297 8.1027C119.7 8.687 119.202 8.64791 118.65 8.03821C118.082 7.41092 117.462 6.83248 116.861 6.23841C116.403 5.78504 116.405 5.32971 116.857 4.88611C118.135 3.63153 119.394 2.35545 120.723 1.16144C120.975 0.934757 121.69 0.840956 121.91 1.0227C122.756 1.72229 123.492 2.55673 124.26 3.35013C124.366 3.45956 124.411 3.62762 124.517 3.83085Z" fill="url(#paint6_linear_181_3)"/>
<path d="M30.5219 132.662C30.3589 132.85 30.1939 133.139 29.9465 133.305C28.5484 134.245 27.1424 135.173 25.7148 136.07C25.2063 136.389 24.7252 136.277 24.3933 135.728C23.8906 134.898 23.3801 134.073 22.8734 133.246C22.5593 132.734 22.6849 132.314 23.168 132.002C24.6113 131.071 26.0447 130.124 27.5273 129.26C27.7963 129.104 28.4797 129.176 28.6309 129.387C29.2907 130.299 29.8267 131.3 30.4021 132.271C30.4492 132.351 30.459 132.455 30.5199 132.662H30.5219Z" fill="url(#paint7_linear_181_3)"/>
<path d="M171.128 57.5824C170.941 57.8833 170.798 58.1784 170.599 58.4286C169.771 59.4701 168.915 60.4902 168.088 61.5338C167.55 62.2119 166.998 62.378 166.279 61.7683C165.561 61.1605 164.797 60.6055 164.051 60.029C163.505 59.6069 163.462 59.1047 163.882 58.5947C164.873 57.3909 165.855 56.1773 166.924 55.0439C167.143 54.8114 167.846 54.7195 168.112 54.8934C169.06 55.5129 169.922 56.2653 170.796 56.9922C170.953 57.1232 171.014 57.3694 171.132 57.5824H171.128Z" fill="url(#paint8_linear_181_3)"/>
<path d="M13.9011 59.734C13.7656 60.0252 13.6929 60.2421 13.5731 60.4258C12.8662 61.5123 12.1377 62.5871 11.4386 63.6775C11.0518 64.2814 10.6277 64.4397 9.98947 64.0019C9.0803 63.3766 8.14364 62.7942 7.20502 62.2119C6.56486 61.8132 6.38028 61.3677 6.85352 60.6935C7.58007 59.6617 8.25753 58.5947 8.95266 57.5414C9.28452 57.0372 9.7558 56.8105 10.286 57.1232C11.3758 57.7642 12.4323 58.4599 13.4848 59.1634C13.6733 59.2884 13.7695 59.5484 13.8991 59.736L13.9011 59.734Z" fill="url(#paint9_linear_181_3)"/>
<path d="M96.7059 10.1077C96.2974 11.7101 95.9832 13.0917 95.565 14.442C95.4963 14.6628 94.9425 14.9032 94.6578 14.8563C93.3834 14.6511 92.1109 14.3971 90.8758 14.0316C90.6107 13.9535 90.3044 13.3027 90.3652 12.9803C90.6127 11.6573 90.9465 10.3422 91.3628 9.06216C91.459 8.76317 92.0422 8.38406 92.3407 8.43096C93.5797 8.62247 94.8109 8.91365 96.0107 9.28103C96.3269 9.37874 96.5213 9.87706 96.7059 10.1096V10.1077Z" fill="url(#paint10_linear_181_3)"/>
<path d="M46.6228 35.168C46.505 35.3087 46.3676 35.5725 46.1476 35.7191C45.1776 36.3679 44.184 36.9815 43.2002 37.6068C42.6131 37.9801 42.1869 37.857 41.8531 37.2375C41.4231 36.4421 40.9538 35.6663 40.4864 34.8925C40.1565 34.3453 40.2351 33.933 40.7928 33.5871C41.7844 32.9735 42.7368 32.2914 43.7579 31.7306C44.0289 31.5821 44.6886 31.6387 44.8281 31.8381C45.4741 32.7604 46.0023 33.7649 46.5639 34.7439C46.6091 34.8221 46.5934 34.9335 46.6248 35.168H46.6228Z" fill="url(#paint11_linear_181_3)"/>
<path d="M88.3889 111.68C84.5146 111.44 80.6384 111.237 76.766 110.953C72.285 110.625 67.8628 109.904 63.5585 108.6C59.8747 107.485 56.507 105.802 53.7697 103.008C51.2602 100.448 49.7815 97.3756 49.0412 93.9206C48.0555 89.3224 47.9279 84.7007 49.1728 80.1455C50.8557 73.9821 55.0755 70.4333 61.3062 69.3995C64.7328 68.8308 68.2261 68.5631 71.7018 68.4126C76.3988 68.2094 81.1096 68.1273 85.8087 68.2211C90.1444 68.3071 94.4782 68.6178 98.8021 68.9715C102.17 69.2471 105.535 69.6418 108.874 70.1694C112.279 70.7088 115.362 72.0044 117.74 74.6562C119.788 76.9426 120.872 79.6629 121.26 82.6254C121.808 86.8034 121.685 90.9873 120.624 95.0911C118.719 102.466 113.718 106.812 106.61 108.989C102.559 110.23 98.3957 110.906 94.164 111.16C92.2416 111.276 90.3211 111.41 88.4007 111.538L88.3889 111.68ZM101.447 78.6936C97.2469 78.7014 93.3883 81.9961 92.6991 86.1625C92.4576 87.6301 93.7536 88.7342 95.1929 88.3121C96.0766 88.0541 96.3378 87.3408 96.597 86.5943C97.2293 84.777 98.9789 83.5986 101.056 83.581C103.161 83.5634 104.805 84.6343 105.451 86.4732C105.6 86.8953 105.669 87.3447 105.777 87.7825C106.009 88.7205 106.637 89.2032 107.582 89.2696C108.485 89.3321 109.353 88.8045 109.563 87.8821C109.712 87.2197 109.638 86.479 109.532 85.7931C108.905 81.7538 105.392 78.6858 101.449 78.6916L101.447 78.6936ZM74.0366 86.0882C73.7852 82.047 70.445 78.1132 65.585 78.2813C60.9528 78.4415 57.9366 82.9244 57.7599 85.8029C57.6852 87.0282 58.2959 87.8313 59.3445 88.0092C60.3676 88.1831 61.1648 87.5988 61.5144 86.4185C62.1741 84.1809 63.7451 82.9986 66.0268 83.026C68.1652 83.0514 69.9325 84.4467 70.4981 86.5553C70.8378 87.8255 71.4367 88.357 72.3773 88.2261C73.4769 88.0717 74.0464 87.3369 74.0385 86.0863L74.0366 86.0882ZM83.1891 101.81C86.0639 101.864 88.5205 101.151 90.708 99.6033C91.8724 98.7806 92.7796 97.7449 93.1075 96.2988C93.3412 95.267 92.9701 94.4189 92.0413 93.9538C91.195 93.5297 90.4095 93.7115 89.6888 94.4951C89.249 94.9739 88.8445 95.4917 88.3594 95.9177C85.0959 98.7767 79.0949 98.2217 76.7935 94.3427C76.3026 93.5141 75.258 93.3148 74.3802 93.7447C73.5771 94.1375 73.1863 94.9543 73.5574 95.8767C73.8893 96.6994 74.3095 97.5456 74.8947 98.2022C77.1372 100.717 79.9943 101.913 83.1891 101.808V101.81Z" fill="url(#paint12_linear_181_3)"/>
<defs>
<linearGradient id="paint0_linear_181_3" x1="161.516" y1="184.232" x2="27.3515" y2="-0.293634" gradientUnits="userSpaceOnUse">
<stop offset="0.36733" stop-color="#AEEA00"/>
<stop offset="0.990453" stop-color="white"/>
</linearGradient>
<linearGradient id="paint1_linear_181_3" x1="50.7711" y1="11.2519" x2="43.7017" y2="1.31452" gradientUnits="userSpaceOnUse">
<stop offset="0.36733" stop-color="#AEEA00"/>
<stop offset="0.990453" stop-color="white"/>
</linearGradient>
<linearGradient id="paint2_linear_181_3" x1="134.791" y1="31.8735" x2="128.397" y2="23.0416" gradientUnits="userSpaceOnUse">
<stop offset="0.36733" stop-color="#AEEA00"/>
<stop offset="0.990453" stop-color="white"/>
</linearGradient>
<linearGradient id="paint3_linear_181_3" x1="150.858" y1="138.987" x2="144.849" y2="130.854" gradientUnits="userSpaceOnUse">
<stop offset="0.36733" stop-color="#AEEA00"/>
<stop offset="0.990453" stop-color="white"/>
</linearGradient>
<linearGradient id="paint4_linear_181_3" x1="15.0393" y1="108.892" x2="9.34158" y2="100.836" gradientUnits="userSpaceOnUse">
<stop offset="0.36733" stop-color="#AEEA00"/>
<stop offset="0.990453" stop-color="white"/>
</linearGradient>
<linearGradient id="paint5_linear_181_3" x1="166.587" y1="112.656" x2="160.925" y2="104.943" gradientUnits="userSpaceOnUse">
<stop offset="0.36733" stop-color="#AEEA00"/>
<stop offset="0.990453" stop-color="white"/>
</linearGradient>
<linearGradient id="paint6_linear_181_3" x1="123.736" y1="7.89654" x2="118.235" y2="-0.172425" gradientUnits="userSpaceOnUse">
<stop offset="0.36733" stop-color="#AEEA00"/>
<stop offset="0.990453" stop-color="white"/>
</linearGradient>
<linearGradient id="paint7_linear_181_3" x1="29.758" y1="135.667" x2="24.7299" y2="127.925" gradientUnits="userSpaceOnUse">
<stop offset="0.36733" stop-color="#AEEA00"/>
<stop offset="0.990453" stop-color="white"/>
</linearGradient>
<linearGradient id="paint8_linear_181_3" x1="170.396" y1="61.5435" x2="165.026" y2="53.8736" gradientUnits="userSpaceOnUse">
<stop offset="0.36733" stop-color="#AEEA00"/>
<stop offset="0.990453" stop-color="white"/>
</linearGradient>
<linearGradient id="paint9_linear_181_3" x1="13.1868" y1="63.6549" x2="7.83363" y2="56.1588" gradientUnits="userSpaceOnUse">
<stop offset="0.36733" stop-color="#AEEA00"/>
<stop offset="0.990453" stop-color="white"/>
</linearGradient>
<linearGradient id="paint10_linear_181_3" x1="96.0858" y1="14.3346" x2="91.3189" y2="7.78739" gradientUnits="userSpaceOnUse">
<stop offset="0.36733" stop-color="#AEEA00"/>
<stop offset="0.990453" stop-color="white"/>
</linearGradient>
<linearGradient id="paint11_linear_181_3" x1="46.0062" y1="37.3114" x2="41.4938" y2="30.863" gradientUnits="userSpaceOnUse">
<stop offset="0.36733" stop-color="#AEEA00"/>
<stop offset="0.990453" stop-color="white"/>
</linearGradient>
<linearGradient id="paint12_linear_181_3" x1="114.419" y1="108.114" x2="89.9966" y2="50.808" gradientUnits="userSpaceOnUse">
<stop offset="0.36733" stop-color="#AEEA00"/>
<stop offset="0.990453" stop-color="white"/>
</linearGradient>
</defs>
</svg>
