<svg width="96" height="111" viewBox="0 0 96 111" fill="none" xmlns="http://www.w3.org/2000/svg">
<g clip-path="url(#clip0_181_25)">
<path d="M59.3477 60.0732C63.4242 64.7896 65.6109 70.3629 66.8323 76.3683C67.5367 79.8322 67.9214 83.3434 67.824 86.8862C67.7772 88.5842 67.4418 90.247 66.706 91.7932C65.3236 94.6988 63.0852 96.4295 59.8249 96.7815C59.546 98.4334 59.2635 100.091 58.987 101.75C58.7118 103.408 58.5278 105.089 57.7536 106.587C59.1313 106.87 60.4897 107.136 61.8422 107.434C62.1655 107.506 62.4901 107.649 62.7714 107.827C63.2895 108.155 63.31 108.57 62.7642 108.832C62.0886 109.159 61.3685 109.463 60.6352 109.584C58.5326 109.93 56.4193 110.241 54.2999 110.455C46.891 111.199 39.4569 110.985 32.0313 110.917C28.9526 110.89 25.8678 110.704 22.8012 110.426C20.3668 110.205 17.9517 109.745 15.533 109.359C15.1507 109.298 14.7744 109.11 14.4318 108.916C13.7935 108.553 13.779 107.983 14.4546 107.712C15.2973 107.375 16.199 107.183 17.0801 106.947C17.4035 106.861 17.7413 106.83 18.0539 106.776C18.0539 106.031 17.9168 105.28 18.0923 104.611C18.2727 103.923 18.7211 103.292 19.1238 102.684C19.3414 102.356 19.5085 102.127 19.4207 101.673C18.5468 97.1578 17.7161 92.6331 16.8625 88.1145C16.8277 87.9276 16.7135 87.7443 16.5993 87.5877C15.462 86.0281 14.9079 84.2392 14.8477 82.3458C14.6518 76.0928 15.4993 69.9794 17.46 64.0335C17.573 63.6912 17.6932 63.3526 17.8279 62.9594C17.674 62.8756 17.5117 62.7773 17.3422 62.6948C13.1792 60.674 9.44649 58.0439 6.2632 54.6553C3.18569 51.3807 1.04587 47.5843 0.30775 43.0936C-0.504902 38.1514 0.319772 33.441 2.51129 28.9601C3.94305 26.0314 5.78234 23.4219 8.30324 21.3417C10.3914 19.617 12.7151 18.3839 15.42 18.0161C16.0475 17.9312 16.6966 18.004 17.3638 18.004C19.2741 12.2329 22.503 7.53828 27.7276 4.39359C32.9834 1.23069 38.6335 0.83745 44.5036 1.95891C45.1323 0.978239 45.9618 0.263371 47.0834 0.103163C49.252 -0.207544 51.2969 0.135932 53.0256 1.62271C53.5798 2.0997 53.8431 2.74053 53.9236 3.47724C53.9416 3.63867 54.1556 3.85834 54.3227 3.90932C57.3966 4.85236 60.3058 6.12675 62.8099 8.20581C67.1148 11.7789 69.8629 16.2963 70.8607 21.8599C71.3752 24.7303 71.3259 27.6056 70.8607 30.4747C70.5782 32.2188 70.2452 33.9544 69.9519 35.6973C69.9266 35.8466 69.9675 36.0687 70.0661 36.1682C72.6831 38.8141 73.3491 42.0401 72.9019 45.629C72.5834 48.1911 71.7515 50.519 69.9903 52.4306C68.5081 54.0399 66.6772 54.9757 64.4773 55.1298C64.2717 55.1444 64 55.2694 63.8882 55.4332C62.656 57.2501 61.1738 58.8146 59.3465 60.0708L59.3477 60.0732ZM23.2784 57.9007C23.1991 58.0148 23.1474 58.0755 23.1089 58.1434C18.9218 65.5033 17.3266 73.4991 17.4131 81.9004C17.4384 84.3994 18.6129 86.2733 20.6481 87.6351C22.0895 88.5988 23.6727 89.242 25.3269 89.7056C29.3324 90.8283 33.4294 91.2446 37.5732 91.3102C40.8959 91.3624 44.2066 91.275 47.4717 90.5589C49.3663 90.1438 51.232 89.6353 52.8284 88.4616C53.6339 87.8693 54.3648 87.1314 54.3696 86.0633C54.384 83.4418 54.4021 80.8129 54.2422 78.1986C54.045 74.975 53.3069 71.8461 52.1276 68.8325C51.797 67.9853 52.0446 67.2134 52.7239 66.9318C53.4704 66.6223 54.2927 66.9852 54.6052 67.8506C55.7953 71.1494 56.5671 74.5551 56.8797 78.0481C57.0672 80.1381 57.0973 82.2414 57.1706 84.3411C57.1826 84.687 57.3004 84.8678 57.6058 84.948C59.968 85.5633 62.2978 85.5184 64.5927 84.619C64.9629 84.4746 65.1288 84.2659 65.0771 83.852C64.8295 81.8542 64.6576 79.8456 64.3462 77.8587C63.6995 73.7382 62.3747 69.8398 60.3587 66.1927C59.492 64.6234 58.5447 63.1038 57.1622 61.918C56.8292 61.6328 56.5539 61.5369 56.1091 61.7542C55.5802 62.0127 54.9863 62.1596 54.4069 62.2821C53.1218 62.5552 51.8811 62.9315 50.661 63.4436C48.9804 64.1488 47.1831 64.4704 45.3679 64.5736C41.86 64.7726 38.3822 64.4947 34.9513 63.7264C30.6091 62.7543 26.5567 61.1728 23.276 57.8995L23.2784 57.9007ZM21.8659 22.7617C21.4788 24.2448 20.784 25.4282 19.8379 26.4623C16.9178 29.6506 14.8526 33.3221 13.6841 37.5057C13.0866 39.643 12.78 41.8107 13.1828 44.0136C13.7285 46.9956 15.3226 49.3526 17.6103 51.2654C20.4017 53.5981 23.6415 55.0643 27.0387 56.2173C32.0481 57.9177 37.1741 59.1083 42.4238 59.7528C45.6684 60.1521 48.9094 60.3596 52.1612 59.8535C55.1005 59.396 57.6743 58.1932 59.8394 56.1044C61.7424 54.2681 62.7714 51.9681 63.3809 49.4485C64.5073 44.7915 65.4859 40.0945 67.0571 35.5577C67.1917 35.1681 67.0439 35.0116 66.7433 34.8501C64.5843 33.6874 62.4769 32.413 60.2625 31.3692C54.568 28.6833 48.5933 26.79 42.4659 25.4233C39.2838 24.7133 36.0524 24.2157 32.8319 23.6914C31.2583 23.4353 29.6606 23.3079 28.0702 23.178C26.0181 23.0105 23.9624 22.8988 21.8647 22.7605L21.8659 22.7617ZM24.9758 20.5358C25.0059 20.446 25.0287 20.395 25.0408 20.3404C25.4218 18.5538 26.1335 16.9274 27.4379 15.6324C30.2593 12.83 33.6926 12.0848 37.4445 12.9222C41.7566 13.8835 44.4398 17.5707 44.2715 22.0347C44.2547 22.4886 44.1802 22.9413 44.1429 23.2945C48.4009 24.6223 52.5724 25.9246 56.8112 27.2463C56.9614 26.1564 57.1225 25.0046 57.2788 23.8516C57.7007 20.736 57.821 17.6205 57.2596 14.5073C56.8292 12.1261 56.0634 9.87343 54.5379 7.96307C53.789 7.02488 52.9823 6.1401 51.7357 5.80512C47.6736 4.71279 43.5587 4.02219 39.3439 4.00156C37.2774 3.99185 35.235 4.16905 33.2647 4.83416C26.5855 7.088 22.4261 11.8627 19.9845 18.3875C20.8236 18.7808 21.4776 19.3075 21.8058 20.1753C21.843 20.2748 21.9969 20.3877 22.1027 20.3938C23.0584 20.4532 24.0153 20.4909 24.9783 20.5346L24.9758 20.5358ZM19.9196 90.3817C19.9028 90.4521 19.8799 90.4933 19.8872 90.5285C20.701 94.4379 21.5113 98.3484 22.3395 102.254C22.4646 102.844 22.3636 103.321 21.9224 103.732C21.6146 104.019 21.2804 104.293 21.0364 104.629C20.4642 105.419 20.677 106.182 21.5497 106.614C21.7276 106.701 21.9152 106.779 22.1063 106.824C24.4397 107.377 26.7731 107.387 29.0896 106.74C30.6632 106.299 31.548 105.183 31.7596 103.592C31.9868 101.874 32.1022 100.142 32.2501 98.4151C32.333 97.4527 32.9305 96.8361 33.8838 96.8568C36.4263 96.9138 38.9689 96.9818 41.5102 97.0764C42.6474 97.1189 43.1559 97.5777 43.43 98.6955C43.7594 100.038 44.0299 101.398 44.4194 102.723C44.6731 103.584 44.6142 104.286 44.0996 105.048C43.4445 106.019 43.8087 106.921 44.9111 107.355C45.113 107.435 45.3234 107.507 45.5362 107.548C47.7241 107.968 49.8976 107.843 52.0819 107.458C54.4069 107.048 55.6294 105.593 56.0382 103.367C56.4685 101.019 56.8148 98.6542 57.2019 96.2657C55.157 95.2086 54.2987 93.3577 53.9813 91.1742C53.3778 91.4764 52.8561 91.7726 52.3079 92.0056C48.8349 93.4803 45.1611 93.9439 41.4429 94.058C39.2045 94.1272 36.9541 94.0871 34.7193 93.9342C32.4544 93.7788 30.192 93.5009 27.9488 93.1404C25.1297 92.6865 22.4008 91.8915 19.9184 90.3805L19.9196 90.3817ZM20.7563 56.6384C20.4798 56.4867 20.2201 56.3472 19.9641 56.2015C17.4696 54.7924 15.1663 53.1394 13.3655 50.86C10.2423 46.9094 9.65566 42.4115 10.6955 37.6186C11.061 35.9328 11.6476 34.2955 12.1417 32.6036C10.8903 32.3317 9.7891 31.5731 8.76126 30.7066C7.72982 29.8376 6.92438 28.7829 6.45554 27.3034C5.90015 28.3119 5.39164 29.1506 4.96127 30.0281C3.15444 33.7226 2.33337 37.6149 2.81303 41.7318C3.19291 44.9857 4.49604 47.8683 6.4315 50.4777C8.66749 53.4925 11.4649 55.8823 14.5893 57.8922C15.9429 58.7624 17.3674 59.5222 18.7655 60.3354C19.4652 59.0367 20.0999 57.8582 20.7563 56.6384ZM67.8012 32.4761C68.7918 27.6942 69.0106 22.894 67.015 18.2382C65.0459 13.642 61.978 10.0652 57.3161 7.80772C59.0375 11.461 59.3032 12.2438 59.7865 16.3424C60.1111 19.1 59.9584 21.8648 59.5857 24.6138C59.4222 25.8239 59.2539 27.0339 59.1073 28.102C62.0465 29.5803 64.9245 31.0282 67.8012 32.4749V32.4761ZM14.3813 28.3374C13.8127 28.034 13.4196 27.676 13.5073 27.0327C13.5951 26.3931 14.1168 26.2754 14.6145 26.0945C16.0595 25.5678 17.3314 24.7485 18.4061 23.6404C18.9615 23.0675 19.03 22.3697 18.792 21.6208C18.6141 21.0625 18.1921 20.7894 17.6692 20.7919C16.7159 20.7955 15.7361 20.7652 14.8141 20.9666C12.8017 21.4084 11.1247 22.5384 9.60637 23.9099C8.76607 24.6696 8.46313 25.6612 8.837 26.7038C9.45731 28.4345 10.7725 29.5123 12.4747 30.0936C12.8967 30.2381 13.2958 30.0864 13.5494 29.6519C13.8019 29.2198 14.0832 28.8047 14.3813 28.3374ZM40.7745 106.305C41.1267 105.32 41.4537 104.428 41.7615 103.528C41.8216 103.352 41.8528 103.138 41.8119 102.96C41.6052 102.043 41.3623 101.133 41.1532 100.216C41.0774 99.8849 40.9272 99.7721 40.5809 99.7721C39.6625 99.7733 38.7429 99.7126 37.8244 99.6992C36.8338 99.6847 35.8433 99.6956 34.8467 99.6956C34.5558 101.929 34.7205 104.201 33.6626 106.305H40.7733H40.7745ZM41.1436 21.3538C41.3203 19.1218 40.3886 17.4603 38.4555 16.5111C36.9985 15.7951 35.4718 15.5936 33.8621 15.7841C31.6622 16.0439 29.7929 16.8437 28.5258 18.8633C32.8295 19.276 37.0262 20.1025 41.1436 21.355V21.3538ZM56.8424 87.5283C56.7799 88.6121 56.6272 89.6401 56.6801 90.656C56.7895 92.7278 57.8594 94.1611 60.2493 93.8104C60.9141 93.7133 61.6077 93.4268 62.1643 93.0433C64.1058 91.7034 64.8042 89.6777 65.0483 87.3741C62.3386 88.1897 59.6651 88.2468 56.8412 87.5271L56.8424 87.5283ZM68.8675 39.0313C67.2999 43.2392 66.6928 47.6619 65.5881 51.9645C70.042 50.7981 71.8753 42.7295 68.8675 39.0313Z" fill="#1E2934"/>
<path d="M91.6387 94.0896C91.8118 94.132 92.003 94.1782 92.2266 94.2328C91.813 95.2644 91.123 96.0655 90.3332 96.7718C89.547 97.4746 88.7007 98.1093 87.8039 98.8351C90.3993 98.5281 92.6954 97.7768 94.4602 95.7766C94.6381 95.8749 94.8088 95.9696 95.0144 96.0825C94.2245 97.1979 93.1486 97.9054 91.9657 98.465C90.3524 99.2284 88.655 99.6046 86.8674 99.5609C86.5909 99.5536 86.312 99.6604 85.9225 99.7357C86.9852 100.96 88.2198 101.618 89.5831 102.061C89.7225 102.106 89.9365 102.016 90.0807 101.929C91.4416 101.105 92.7255 100.185 93.722 98.8436C93.9048 98.931 94.0899 99.0208 94.3123 99.1276C93.4792 100.378 92.3793 101.297 91.1699 102.118C92.2578 102.375 93.9997 101.736 95.595 100.491C95.7176 100.594 95.8474 100.704 95.9809 100.817C95.9472 100.896 95.9376 100.963 95.9003 101C94.7391 102.187 93.2821 102.868 91.6832 102.89C90.2454 102.91 88.893 103.261 87.5021 103.463C86.8794 103.553 86.2435 103.547 85.539 103.588C86.6835 104.415 87.8868 104.376 89.1599 104.134C89.1863 104.657 89.5374 104.626 89.9112 104.646C91.7674 104.751 93.6223 104.879 95.4772 105.009C95.6443 105.021 95.8066 105.109 96.0013 105.169C94.9098 106.085 79.8745 106.148 78.2792 105.104C79.6605 104.932 81.0406 104.759 82.4892 104.578C82.3762 104.492 82.2908 104.412 82.1922 104.354C80.9769 103.634 80.1342 102.59 79.5463 101.312C79.4622 101.13 79.3263 100.931 79.1604 100.837C77.4077 99.8352 76.7982 99.1058 76.1562 97.1675C76.3462 97.0765 76.5385 96.983 76.7754 96.8689C77.136 98.1506 77.8453 99.1543 78.8719 99.8219C78.5293 98.4176 78.0568 96.9842 77.8549 95.512C77.6481 93.9998 78.1025 92.5239 78.617 91.0383C78.8238 91.0978 79.0234 91.1561 79.265 91.2252C78.4451 93.3541 78.2792 95.4938 78.9645 97.7355C79.0318 97.5875 79.0883 97.4952 79.1183 97.3933C79.2518 96.9321 79.2782 96.4041 79.5235 96.0157C80.3686 94.6746 80.6294 93.1926 80.8518 91.6561C81.0899 90.014 82.3016 88.6219 83.7779 87.9835C83.8284 88.1728 83.8789 88.3597 83.9378 88.5806C82.3521 89.5261 81.4673 90.9157 81.4036 92.8601C82.0275 92.3273 82.5589 91.7314 83.2129 91.3466C84.3609 90.6706 85.2553 89.8149 85.8372 88.5976C86.0584 88.1352 86.4418 87.7504 86.7616 87.3159C86.9527 87.4713 87.1222 87.6084 87.2881 87.7431C86.8205 88.4143 86.3601 89.0758 85.8985 89.7385C85.9273 89.7761 85.9562 89.8149 85.985 89.8526C87.2413 89.3865 88.4843 88.8792 89.7562 88.4629C91.5365 87.8791 93.2905 88.0757 95.0564 88.8136C94.9783 89.0151 94.9098 89.1935 94.8244 89.4144C93.0104 88.7238 91.2059 88.6304 89.3474 89.3307C90.4173 89.5685 91.4392 89.7967 92.5115 90.0346C92.3877 90.3089 92.3095 90.4849 92.2819 90.5444C90.7924 90.3951 89.3739 90.1451 87.9565 90.1511C87.1367 90.1548 86.3156 90.5626 85.5018 90.8102C85.3912 90.8441 85.283 90.9861 85.2337 91.1039C84.5809 92.6744 84.1986 94.2947 84.3345 96.0582C87.4444 91.9547 92.2566 91.4825 94.6104 92.36C94.5479 92.5421 94.4842 92.7254 94.4217 92.9062C91.3129 92.2593 88.5853 93.0191 86.2279 95.0775C85.6484 95.5836 85.2217 96.2669 84.7228 96.8689C84.4932 97.1457 84.498 97.4163 84.6302 97.7586C85.0558 98.8558 85.8973 99.1434 86.8938 98.4771C88.3605 97.4964 89.8259 96.5073 90.9535 95.1115C91.2036 94.802 91.4007 94.4513 91.6399 94.0932L91.6387 94.0896ZM82.7837 100.546C82.8907 99.9372 83.0037 99.4857 83.0337 99.0281C83.0482 98.8169 82.9448 98.5596 82.8138 98.3861C82.369 97.8011 81.8376 97.278 81.4361 96.6663C81.1319 96.2014 80.9757 95.6383 80.74 95.0848C79.9755 96.3956 79.5487 97.7999 79.7915 99.2526C79.8781 99.7721 80.5802 100.335 81.1307 100.583C81.5948 100.792 82.2487 100.573 82.7837 100.545V100.546ZM84.296 91.5226C84.2431 91.4704 84.1902 91.417 84.1373 91.3648C83.2994 92.2193 82.4567 93.0676 81.6296 93.933C81.519 94.0483 81.4132 94.2607 81.4397 94.4003C81.7018 95.7669 82.1922 97.0122 83.4473 97.9212C83.5435 97.5862 83.725 97.2925 83.6853 97.034C83.3956 95.1382 83.6877 93.3152 84.2948 91.5226H84.296ZM85.1784 100.329C84.6987 100.545 84.1037 100.813 83.4833 101.094C83.5543 101.429 83.6036 101.766 83.7057 102.087C83.7502 102.229 83.8813 102.412 84.0075 102.446C85.4789 102.848 86.96 102.947 88.3761 102.56C87.3459 101.84 86.2904 101.105 85.1784 100.328V100.329ZM80.4648 101.201C81.0706 103.287 83.6649 104.592 85.0546 104.334C84.5448 103.766 84.07 103.226 83.2561 102.984C82.518 102.763 81.8713 102.216 81.1981 101.792C80.9348 101.625 80.7088 101.4 80.4648 101.201ZM84.8911 99.7017C84.9019 99.6362 84.9127 99.5694 84.9235 99.5039C84.546 99.3425 84.1686 99.1798 83.7406 98.9966C83.6733 99.465 83.6192 99.8376 83.5519 100.305C84.0772 100.068 84.4835 99.885 84.8911 99.7017ZM83.0217 102.118C82.9412 101.759 82.8859 101.513 82.8306 101.267C82.5276 101.315 82.2536 101.358 81.8617 101.419C82.2776 101.669 82.5926 101.86 83.0217 102.118Z" fill="#1E2934"/>
<path d="M26.8285 26.0217C30.7535 26.1395 34.2001 26.6565 37.6346 27.3022C42.079 28.1384 46.4356 29.2914 50.6864 30.8413C52.5954 31.538 54.484 32.2881 56.1381 33.5212C57.9341 34.8599 58.9007 36.6622 59.0702 38.893C59.4404 43.7672 58.1541 48.2215 55.5431 52.2789C54.1029 54.5157 51.8729 55.625 49.3255 56.0826C46.5354 56.5827 43.7608 56.3217 40.9838 55.8702C36.578 55.1541 32.2574 54.0909 28.0259 52.6733C25.2826 51.7546 22.6078 50.6525 20.2852 48.8538C18.4027 47.395 16.9324 45.6315 16.442 43.2077C16.0597 41.3155 16.1955 39.4112 16.6668 37.5737C17.2282 35.3866 17.8821 33.2105 18.678 31.0998C19.719 28.3399 21.7242 26.6116 24.6803 26.1722C25.5278 26.046 26.3946 26.0496 26.8273 26.0217H26.8285ZM49.5455 40.2875C49.4662 39.7511 49.4422 39.2001 49.2979 38.6818C48.7401 36.6659 46.789 36.0311 45.2394 37.3383C43.5516 38.7631 42.7306 41.7015 43.4663 43.7915C43.7572 44.6192 44.2621 45.2807 45.1517 45.5368C46.1615 45.8269 47.3516 45.3402 48.133 44.334C49.0551 43.147 49.4638 41.7877 49.5443 40.2875H49.5455ZM29.466 33.236C29.2376 33.4241 29.014 33.5891 28.8121 33.7773C27.6929 34.815 26.4078 35.2373 24.9039 34.8708C24.4819 34.7676 24.1802 34.9121 24.1141 35.3599C23.9698 36.3479 23.7366 37.3407 23.7546 38.3286C23.7751 39.4659 24.1982 40.5048 25.3222 41.0473C26.4378 41.5862 27.7927 41.1784 28.7099 40.0145C29.8868 38.5204 30.2174 36.7654 30.1356 34.9133C30.1092 34.3259 30.1284 33.6814 29.4672 33.2347L29.466 33.236ZM33.3069 48.0528C32.7816 48.0079 31.9617 48.2178 31.2284 48.7179C30.8185 48.997 30.6526 49.3951 30.9255 49.8648C31.1899 50.3212 31.565 50.3345 32.0002 50.0954C32.8561 49.6245 33.7601 49.6694 34.6738 49.8758C35.7292 50.1136 36.4529 50.7933 37.0756 51.6478C37.2343 51.865 37.6178 52.0798 37.8498 52.0349C38.0951 51.9876 38.3932 51.6611 38.4629 51.4014C38.5266 51.1623 38.3704 50.8139 38.2201 50.5724C37.1706 48.8829 35.6247 48.0916 33.3069 48.0528Z" fill="#1E2934"/>
</g>
<defs>
<clipPath id="clip0_181_25">
<rect width="96" height="111" fill="white"/>
</clipPath>
</defs>
</svg>
