<svg width="11" height="14" viewBox="0 0 11 14" fill="none" xmlns="http://www.w3.org/2000/svg">
<path fill-rule="evenodd" clip-rule="evenodd" d="M5.78846 0H4.96154C4.50508 0 4.13462 0.370462 4.13462 0.826923V12.4038C4.13462 12.8603 4.50508 13.2308 4.96154 13.2308H5.78846C6.24492 13.2308 6.61538 12.8603 6.61538 12.4038V0.826923C6.61538 0.370462 6.24492 0 5.78846 0ZM9.92308 6.61539H9.09615C8.63969 6.61539 8.26923 6.98585 8.26923 7.44231V12.4038C8.26923 12.8603 8.63969 13.2308 9.09615 13.2308H9.92308C10.3795 13.2308 10.75 12.8603 10.75 12.4038V7.44231C10.75 6.98585 10.3795 6.61539 9.92308 6.61539ZM1.65385 3.72115H0.826923C0.370462 3.72115 0 4.09162 0 4.54808V12.4038C0 12.8603 0.370462 13.2308 0.826923 13.2308H1.65385C2.11031 13.2308 2.48077 12.8603 2.48077 12.4038V4.54808C2.48077 4.09162 2.11031 3.72115 1.65385 3.72115Z" fill="white"/>
</svg>
