<svg width="19" height="18" viewBox="0 0 19 18" fill="none" xmlns="http://www.w3.org/2000/svg">
<g clip-path="url(#clip0_13_360)">
<path fill-rule="evenodd" clip-rule="evenodd" d="M8.83651 0H7.5775C6.88253 0 6.31849 0.551385 6.31849 1.23077V18.4615C6.31849 19.1409 6.88253 19.6923 7.5775 19.6923H8.83651C9.53149 19.6923 10.0955 19.1409 10.0955 18.4615V1.23077C10.0955 0.551385 9.53149 0 8.83651 0ZM15.1316 9.84615H13.8726C13.1776 9.84615 12.6135 10.3975 12.6135 11.0769V18.4615C12.6135 19.1409 13.1776 19.6923 13.8726 19.6923H15.1316C15.8265 19.6923 16.3906 19.1409 16.3906 18.4615V11.0769C16.3906 10.3975 15.8265 9.84615 15.1316 9.84615ZM2.54146 5.53846H1.28245C0.587474 5.53846 0.0234375 6.08985 0.0234375 6.76923V18.4615C0.0234375 19.1409 0.587474 19.6923 1.28245 19.6923H2.54146C3.23643 19.6923 3.80047 19.1409 3.80047 18.4615V6.76923C3.80047 6.08985 3.23643 5.53846 2.54146 5.53846Z" fill="white"/>
</g>
<defs>
<clipPath id="clip0_13_360">
<rect width="18.413" height="18" fill="white" transform="translate(0.0234375)"/>
</clipPath>
</defs>
</svg>
