<?xml version="1.0" encoding="UTF-8"?><svg id="b" xmlns="http://www.w3.org/2000/svg" viewBox="0 0 807.15 714.02"><g id="c"><g><g><path d="M691.46,250.86c3.88,15.82,5.76,32.14,8.78,49.43-55.91-19.08-112.47-25.3-168.16-31.8-3.03-11.75-4.94-23.43-9.04-34.29-11.96-31.71-34.67-53.36-66.55-64.12-38.21-12.91-76.82-12.47-114.17,3.39-36.26,15.41-57.52,43.54-64.53,82.33-.71,3.91-.92,7.9-1.46,12.68-56.95,5.9-113.58,12.9-168.7,31.38,.72-7.23,1.14-14.12,2.12-20.93,3.82-26.66,10.86-52.37,22.54-76.75,23.45-48.92,60.78-83.58,109.43-106.55,30.1-14.21,61.76-23.16,94.62-28.36,27.07-4.27,54.27-5.71,81.55-4.75,55.05,1.94,108.17,12.54,157.44,38.23,61.67,32.15,99.67,83,116.13,150.11Z"/><path d="M804.67,414.56c4.56,29.41,2.32,58.19-8.65,86.07-13.03,33.1-36.63,54.65-70.71,64.67-3.22,.95-5.24,2.37-6.85,5.52-20.72,40.64-52.33,70.82-91.38,93.48-35.42,20.55-73.9,32.65-114,40.19-46.03,8.66-92.54,10.36-139.1,8.72-53.91-1.91-106.84-9.98-157.16-30.83-37.33-15.47-70.57-36.89-97.76-67.09-12.05-13.38-22.32-28.06-30.34-44.22-1.51-3.05-3.46-4.68-6.69-5.7-20.94-6.67-39.65-16.87-53.5-34.58-12.37-15.82-20.31-33.68-24.3-53.26-5.91-28.95-5.72-57.79,3.87-85.98,10.43-30.68,30.77-53.08,59.35-68.06,3.01-1.57,4.23-3.13,4.39-6.67,1.97-42.11,8.26-83.36,25.22-122.4,26.33-60.62,70.46-103.77,129.77-131.86,31.28-14.8,64.13-24.58,98.46-29.23,11.99-1.62,24.01-3.03,36.15-4.55C369.75,8.31,382.19-.03,404.29,.25c20.8,.27,33.46,9.19,40.94,28.93,40.57,3.26,80.25,10.75,118.19,26.17,42.09,17.1,78.82,41.84,108.2,76.71,26.38,31.32,43.35,67.49,53.03,107.16,6.08,24.89,9.65,50.14,10.17,75.77,.09,4.25,1.44,6.57,5.48,8.69,36.85,19.3,58.02,49.94,64.37,90.88Zm-31.79,30.28c.42-31.08-7.94-58.41-34.25-79.09,8.47,52.63,8.51,104.15-2.64,155.59,27.4-18.35,36.46-45.39,36.89-76.5Zm-65.29,20.4c1.9-21.95,1.18-43.89-.82-65.84-1.79-19.51-4.67-38.76-9.93-57.66-.88-3.14-2.32-4.65-5.2-5.8-22.27-8.87-45.51-14.03-69.09-17.35-23.97-3.38-48.06-5.95-72.17-8.15-23.52-2.13-47.1-3.81-70.68-4.83-25.46-1.1-50.96-1.19-76.45-1.72-47.97,.25-95.9,1.53-143.63,6.53-28.53,2.99-57.16,5.58-85.41,10.36-19.91,3.37-39.25,10.14-58.86,15.37-2.81,.75-4.17,2.29-5.01,5.31-7.49,26.65-10.95,53.82-11.96,81.44-1.14,31.56,1.37,62.69,9.29,93.31,7.9,30.57,21.75,58,44.02,80.67,23.57,23.99,52.11,40.35,83.15,52.56,45.15,17.77,92.53,24.06,140.56,25.76,43.92,1.56,87.78,.28,131.23-7.7,33.53-6.16,65.85-15.82,96.1-31.83,25.87-13.69,48.77-30.93,66.37-54.7,25.48-34.4,34.9-74.12,38.49-115.73Zm-7.35-164.95c-3.02-17.29-4.9-33.61-8.78-49.43-16.46-67.11-54.46-117.96-116.13-150.11-49.27-25.69-102.39-36.29-157.44-38.23-27.28-.96-54.48,.48-81.55,4.75-32.86,5.2-64.52,14.15-94.62,28.36-48.65,22.97-85.98,57.63-109.43,106.55-11.68,24.38-18.72,50.09-22.54,76.75-.98,6.81-1.4,13.7-2.12,20.93,55.12-18.48,111.75-25.48,168.7-31.38,.54-4.78,.75-8.77,1.46-12.68,7.01-38.79,28.27-66.92,64.53-82.33,37.35-15.86,75.96-16.3,114.17-3.39,31.88,10.76,54.59,32.41,66.55,64.12,4.1,10.86,6.01,22.54,9.04,34.29,55.69,6.5,112.25,12.72,168.16,31.8Zm-385.02-34.82h177.06c-3.29-26.67-19.76-48.78-44.95-59.28-22.33-9.3-45.57-9.64-69-5.73-35.74,5.95-59.16,30.98-63.11,65.01Zm-243.69,255.96c-11.73-52.19-11.35-104.21-2.59-156.83-47.8,33.67-46.2,128.9,2.59,156.83Z"/></g><path d="M394.49,335.65c38.98,1.03,73.15,1.31,107.25,3.01,27.87,1.39,55.71,3.94,83.45,7.01,16.7,1.84,32.76,6.82,46.47,17.31,16.19,12.38,24.74,29.59,29.88,48.67,5.55,20.61,6.04,41.64,4.39,62.83-1.26,16.13-4.47,31.76-10.7,46.72-12.05,28.89-34.7,46.11-62.94,57.24-21.82,8.6-44.41,14.01-67.63,17.06-53.63,7.04-107.48,8.06-161.44,6.06-15.47-.57-30.97-.97-46.39-2.23-39.05-3.21-77.65-8.68-113.49-25.99-33.75-16.3-53.2-43.36-59.72-79.97-5.19-29.13-5.22-58.14,3.06-86.78,10.24-35.44,34.73-54.87,70.41-59.97,24.13-3.45,48.5-5.71,72.85-7.07,36.41-2.02,72.89-2.78,104.55-3.91Zm93.93,122.78c-.26,9.56,2.31,19.88,8.48,29.16,14.44,21.73,41.73,26.36,59.86,10.19,21.42-19.1,24.11-53.31,5.96-75.66-15.2-18.71-42.4-20.11-59.32-3.03-10.37,10.46-15.09,23.19-14.97,39.34Zm-169.67-2.58c.44-9.4-2.48-19.25-8.15-28.33-14.46-23.16-43.27-27.63-62.18-9.66-19.62,18.63-21.44,53.29-3.89,73.88,16.5,19.36,41.71,20.87,59.03,3.57,10.54-10.53,15.36-23.3,15.19-39.45Z"/></g></g></svg>