<?xml version="1.0" encoding="UTF-8"?><svg id="b" xmlns="http://www.w3.org/2000/svg" viewBox="0 0 911.6 1014.01"><g id="c"><g><path d="M694.19,365.54c1.75-5.84,3.34-11.74,5.29-17.52,5.87-17.36,18.13-28.1,35.38-33.38,2.51-.77,3.61-1.49,4.01-4.45,3.73-27.57,7.84-55.09,11.67-82.65,3.19-22.97,6.12-45.98,9.22-68.96,2.59-19.22,5.23-38.43,7.91-57.63,.98-7.02,5.03-10.26,11.91-9.74,6.04,.45,9.74,4.84,10.22,11.31,.12,1.67,1.53,3.88,2.99,4.72,36.8,21.05,73.69,41.94,110.56,62.86,.86,.49,1.76,.89,2.63,1.36,3.62,1.95,6.12,4.62,5.53,9.09-.56,4.29-3.58,5.9-7.39,6.94-10.36,2.81-20.64,5.88-30.98,8.74-31.82,8.78-63.65,17.53-95.49,26.21-2.88,.79-4.29,2.27-4.69,5.26-2.01,15.11-4.17,30.2-6.25,45.3-1.81,13.13-3.57,26.26-5.28,38.85,8.25,3.57,16.65,6.25,24.08,10.62,22.03,12.94,33.09,33.09,36.16,58.05,3.03,24.64-3.66,47.57-11.93,70.32-13.09,36.01-28.05,71.01-49.95,102.78-33.04,47.92-74.66,86.76-123.14,118.54-1.52,1-3.01,2.04-4.13,2.8,3.67,16.71,7.86,33.01,10.71,49.55,2.62,15.17,4.41,30.54,5.47,45.9,2.07,30.2,3.35,60.45,5.02,90.68,1.31,23.74,2.95,47.47,4.03,71.22,.81,17.89-.78,35.44-11.17,50.8,10.38,1.69,20.47,3.33,30.55,5,.97,.16,1.96,.4,2.86,.8,3.83,1.71,9.65,2.46,9.34,7.51-.31,5.11-6.12,6.31-10.33,7.11-11.04,2.1-22.17,4.43-33.35,5.05-38.02,2.11-76.07,4.3-114.14,4.99-45.43,.82-90.9,.44-136.34-.04-25.61-.28-51.24-1.23-76.79-2.99-18.97-1.31-37.83-4.28-56.7-6.84-3.12-.42-6.29-2.13-8.93-3.98-4.11-2.88-3.94-7.06,.7-8.88,5.92-2.33,12.27-3.71,18.55-4.94,6.27-1.23,12.68-1.79,18.71-2.6-21.57-41.43-30.85-86.43-40.09-131.33-3.46-16.82-5.26-34.12-6.19-51.29-1.39-25.5,2.98-50.62,8.41-75.45,3.8-17.4,8.33-34.63,12.63-52.34-8.56-6.05-17.97-12.23-26.89-19.06-59.35-45.45-104.59-101.99-133.23-171.29-9.08-21.96-18.85-43.89-25.04-66.72-8.22-30.34-1.3-58.71,20.58-82.09,11.78-12.58,26.69-20,44.17-21.5,.64-.05,1.26-.21,2.12-.36-2.23-19.43-4.46-38.67-6.63-57.91-1.13-10.05-2.38-20.1-3.12-30.19-.28-3.77-1.51-5.47-5.16-6.52-41.25-11.83-82.44-23.85-123.68-35.71-4-1.15-8-2.17-8.51-6.98-.53-4.95,3.18-7.17,6.95-9.23,37.98-20.64,75.94-41.32,113.9-61.99,.71-.39,1.41-.82,2.05-1.19-1.47-8.17,2.43-14.21,9.66-15.21,6.83-.94,11.81,3.88,12.75,12,2.87,24.88,5.91,49.74,8.75,74.63,2.18,19.11,4.05,38.26,6.21,57.38,2.16,19.11,4.55,38.19,6.76,57.29,.86,7.42,1.58,14.85,2.15,22.3,.32,4.2,1.5,6.97,5.84,9.14,18.06,9.06,26.06,24.97,28.55,44.45,4.84-6.53,10.29-12.6,14.11-19.56,1.98-3.6,1.18-8.78,1.44-13.26,1.95-33.64,10.01-65.64,25.49-95.66,20.73-40.23,53.94-66.01,95.35-82.25,21.82-8.56,44.47-13.71,67.76-16.11,4.11-.42,7.23-1.38,9.42-6.02,3.92-8.29,12.15-11.36,20.62-13.13,13.5-2.82,27.02-3.17,40.28,1.27,7.58,2.54,14.04,6.63,17.26,14.58,.45,1.11,2.31,2.09,3.65,2.32,30.24,5.24,59.88,12.52,87.21,27.02,49.28,26.14,80.2,66.66,93.56,120.73,5.8,23.46,7.81,47.37,9.01,71.42,.18,3.58,2.74,7.04,4.2,10.55,.4-.16,.81-.31,1.21-.47Zm-376.3,247.01c-.54,1.01-1.48,2.54-2.22,4.15-12.57,27.56-23.09,55.82-30.71,85.2-6.33,24.4-11.69,48.9-13.73,74.08-.34,4.16,.65,6.43,4.49,7.91,9.24,3.57,18.23,7.87,27.62,10.94,25.3,8.26,51.47,12.28,77.95,13.99,24.05,1.55,48.14,3.08,72.23,3.35,30.24,.34,60.46-.9,90.49-5.2,26.86-3.85,52.75-10.67,76.96-23.12,1.38-.71,2.69-3.27,2.58-4.88-.67-9.94-1.76-19.84-2.68-29.76-2.43-26.17-8.27-51.56-17.34-76.22-2.51-6.82-2.07-8.2,3.94-12.36,25-17.29,49.83-34.74,72.53-55.1,39.8-35.7,70.59-77.74,91.16-127.16,3.12-7.5,5.91-15.14,8.86-22.74-28.08-1.93-49.9-14.4-67.51-33.76-11.54,24.82-22.92,50-34.91,74.88-11.26,23.37-24.56,45.54-41.41,65.43-22.22,26.23-50.66,42.85-82.76,53.86-29.73,10.19-60.41,14.49-91.73,15.36-33.17,.91-66.04-1.66-98.55-8.11-15.01-2.98-29.81-7.04-45.27-10.75Zm281.11-297.3c.17-1.18,.54-2.81,.6-4.44,1.02-26.5-.22-52.84-8.08-78.35-8.44-27.39-24.87-47.99-52.36-58.62-18.37-7.1-37.55-10.61-56.98-12.37-22.21-2.02-44.47-1.77-66.72,.68-22.3,2.45-44.05,7.05-64.92,15.25-26,10.21-49.13,24.69-66.87,46.81-17.36,21.64-27.64,46.51-33.44,73.39-1.38,6.39-2.28,12.88-3.61,20.5,26.83-11.16,54.03-14.58,81.49-18.02,0-1.55-.02-2.69,0-3.83,.63-28.9,16.29-51.64,43.37-61.92,22.95-8.71,46.67-9.39,70.47-4.38,22.8,4.8,40.58,16.72,50.5,38.59,4.64,10.22,6.57,21.07,6.61,31.8,33.38,4.98,66.39,9.91,99.92,14.92Zm-175.23,9.12c-48.37,.78-90.04,1.97-131.14,9.91-14.29,2.76-28.34,6.56-40.84,14.5-5.35,3.4-10.01,7.13-12.15,13.76-6.76,20.93-10.28,42.33-11.79,64.24-1.53,22.25-.13,44.16,5.47,65.68,6.77,26.03,19.83,48.33,40.99,65.42,22.63,18.28,49.02,28.48,76.94,35.07,28.5,6.73,57.47,9.67,86.74,10.32,30.81,.68,61.38-.64,91.41-8.28,28.33-7.21,54.23-19.12,76.09-39.02,17.22-15.68,29.25-35.12,40.26-55.29,.75-1.37,.66-3.43,.39-5.08-2.36-14.51-6.09-28.93-7.04-43.52-1.73-26.58-.12-53.18,5-79.39,.94-4.82-.56-7.71-3.72-10.35-2.01-1.68-4.31-3.17-6.72-4.17-9.89-4.12-19.64-8.78-29.86-11.86-38.26-11.53-77.8-15.74-117.41-18.97-23.03-1.88-46.18-2.24-62.62-2.98Zm-44.85,605.81c.4-6.27,.81-12.23,1.15-18.2,.42-7.31,.64-14.63,1.24-21.92,.58-7.12,5.4-10.98,11.99-10.04,12.13,1.72,24.23,3.76,36.4,5.05,23.08,2.44,46.16,1.59,69.12-1.62,9.61-1.34,12.56,.18,16.24,9.38,5.21,13.04,10.71,25.98,15.95,39.01,1.22,3.04,2.95,4.27,6.33,4.05,12.58-.83,25.23-.89,37.75-2.17,19.36-1.98,37.42-8.01,53.67-19.09,2.46-1.68,3.25-3.35,3.05-6.06-.52-6.97-.92-13.94-1.39-20.91-1.2-17.58-2.4-35.16-3.61-52.74-.54-7.87-1.09-15.74-1.66-23.93-29.71,14.07-60.55,21.3-92.24,24.67-20.63,2.19-41.44,3.05-62.19,3.77-34.77,1.21-69.45-.53-104.04-4.43-22.24-2.5-44.16-6.5-65.53-13.16-10.34-3.22-20.47-7.13-31.42-10.99,.82,6.77,1.4,13.2,2.4,19.57,4.61,29.4,11.29,58.34,20.28,86.72,.55,1.74,2.33,3.68,4.01,4.38,26.44,11.05,53.98,12.2,82.48,8.67Zm-104.73-282.32c7.04-15.86,13.69-30.87,20.18-45.51-7.83-4.42-15.61-8.2-22.71-12.98-7.28-4.9-14.44-10.22-20.72-16.32-26.29-25.53-38.76-57.81-44.76-93.24-3.73-22.06-8.04-44.03-12.33-67.37-18.16,25.28-41.18,40.18-71.8,43.36,28.93,81.1,80.87,143.75,152.14,192.05Zm119.96,332.16h134.77c-14.65-20.68-25.07-43.32-34.13-66.67-.49-1.27-3.38-2.49-4.99-2.32-23.43,2.61-46.79,1.62-70.13-1.03-4.37-.5-8.77-.79-13.03-1.17-3.06,24.02-1.48,48.29-12.49,71.19ZM752.92,337.11c-7.3-.09-13.87,2.49-19.38,7.62-16.41,15.27-18.63,39.98-4.54,58.11,10.31,13.27,26.13,18.91,40.48,25.93,10.89,5.33,19,.32,23.27-11.28,5.62-15.25,6.15-30.8,1.68-46.37-5.4-18.84-23.88-33.79-41.52-34Zm-573.61,38.35c.09-11.21-2.86-19.74-8.71-27.07-6.3-7.89-14.49-13.29-24.89-11.97-11.87,1.51-22.19,7.13-29.44,16.85-14.51,19.44-16.4,41.12-9.3,63.7,4.39,13.98,13.36,17.26,26.28,10.44,7.59-4.01,15.14-8.14,22.55-12.47,15.7-9.19,22.73-23.43,23.5-39.48Zm289.67-79.22s.15-.65,.12-1.28c-.78-15.29-9.21-25.73-22.58-31.26-23.3-9.64-47.09-8.83-69.88,1.76-12.62,5.86-19.36,16.7-18.93,30.77h111.27Zm129.75-95.67c20.49,38.06,21.58,79.41,21.09,120.57,13.92,5.53,27.48,10.92,41.35,16.43-3.34-53.68-18.92-101.75-62.44-137Zm-51.08,760.1c12.45,24.19,45.62,29.57,65.41,18.76,13.13-7.17,21.97-25.6,18.96-38.65-25.69,16.84-54.55,19.86-84.37,19.89Zm-244.43-10.73c6.49,21.49,20.7,33.14,39.51,32.82,14.04-.24,28.98-12.85,32.87-28.31-24.42,4.24-48.31,2.68-72.38-4.51ZM671.48,381.56c-7.62,26.7-7.99,52.94-4.77,79.55,7.7-17.76,14.64-35.69,21.55-53.65,.28-.72,.45-1.67,.21-2.36-3.19-9.22-7.8-17.45-16.99-23.55Z"/><path d="M237.96,56.88c-1.37-.99-2.67-1.7-3.68-2.7-6.03-5.97-11.94-12.05-18-18-2.95-2.9-3.17-5.54-.06-8.46,6.3-5.92,12.58-11.87,18.76-17.93,3.05-2.99,5.57-2.71,8.45,.28,5.77,5.99,11.68,11.85,17.63,17.66,2.74,2.68,3.32,5.43,.47,8.17-6.6,6.34-13.32,12.55-20.04,18.75-.92,.85-2.15,1.37-3.54,2.23Z"/><path d="M664.14,117.75c5.5,2.64,10.13,4.79,14.7,7.08,14.93,7.49,14.26,5.64,6.45,20.27-2.42,4.53-4.9,9.02-7.28,13.57-1.82,3.47-4.29,4.17-7.76,2.37-6.15-3.18-12.4-6.17-18.57-9.31-5.13-2.61-5.73-4.4-3.13-9.37,3.6-6.89,7.17-13.81,11.05-20.55,1-1.73,3.11-2.82,4.56-4.06Z"/><path d="M732.2,696.39c.61-1.77,.79-2.59,1.15-3.32,3.42-6.95,6.93-13.86,10.28-20.85,1.82-3.8,4.34-4.57,8.02-2.65,5.59,2.91,11.23,5.71,16.88,8.5,3.63,1.8,4.62,4.26,2.67,8.01-3.41,6.58-6.64,13.26-9.91,19.91-1.88,3.83-4.45,4.95-8.45,2.84-5.42-2.86-11.08-5.26-16.46-8.2-1.77-.97-2.98-2.98-4.18-4.25Z"/><path d="M80.53,541.54c-1.03,1.11-1.9,2.62-3.21,3.37-6.03,3.44-12.2,6.65-18.29,9.99-2.88,1.58-5.13,.96-6.67-1.85-3.75-6.83-7.35-13.73-11.16-20.53-1.59-2.84-.76-4.83,1.79-6.21,6.39-3.48,12.76-7.01,19.36-10.05,1.39-.64,4.74,.1,5.42,1.25,4.22,7.1,7.94,14.49,11.81,21.8,.3,.57,.52,1.2,.96,2.24Z"/><path d="M852.08,550.09c-.49,1.4-.66,2.4-1.14,3.22-3.75,6.41-7.48,12.84-11.38,19.16-1.63,2.63-3.95,3.26-6.78,1.45-5.29-3.38-10.65-6.63-15.98-9.95-2.91-1.81-3.52-4.06-1.57-7.05,3.96-6.09,7.79-12.27,11.71-18.39,1.71-2.67,4.03-3.37,6.79-1.67,5.35,3.29,10.69,6.59,15.92,10.06,1.09,.72,1.7,2.17,2.44,3.17Z"/><path d="M634.14,14.87c-.71,1.06-1.26,2.28-2.15,3.15-6.42,6.27-12.95,12.42-19.34,18.71-3.04,2.99-5.58,2.79-8.39-.33-2.89-3.21-6.05-6.17-9.11-9.21-2.33-2.32-2.32-4.65-.02-6.92,6.51-6.42,12.92-12.95,19.69-19.06,1.28-1.16,4.92-1.64,6.04-.71,4.31,3.58,8.06,7.85,11.97,11.91,.54,.56,.77,1.42,1.31,2.46Z"/><path d="M155.46,674.13c-.83,.96-1.67,2.44-2.93,3.29-7.12,4.81-14.28,9.56-21.55,14.15-2.59,1.63-5.04,1.06-6.73-1.75-2.56-4.25-5.16-8.47-7.74-12.7-1.6-2.62-.96-4.77,1.5-6.37,7.35-4.76,14.65-9.61,22.2-14.03,1.37-.8,4.85-.43,5.62,.65,3.36,4.67,6.09,9.79,9.02,14.76,.24,.41,.29,.94,.6,2Z"/><path d="M871.51,289.93c-.95,1.54-1.68,3.05-2.69,4.33-4.22,5.33-8.58,10.55-12.79,15.89-2.74,3.47-5.55,4.32-9.21,1.2-3.66-3.11-7.55-5.95-11.35-8.9-2.78-2.16-3-4.73-.86-7.34,5.05-6.16,10.05-12.37,15.49-18.17,1.12-1.19,4.7-1.66,6.05-.77,4.83,3.17,9.22,7.02,13.67,10.74,.8,.67,1.11,1.93,1.71,3.02Z"/><path d="M70.82,300.94c-.69,1.49-1.06,2.6-1.67,3.54-3.6,5.56-7.31,11.06-10.87,16.64-1.97,3.09-4.13,3.9-7.38,1.66-4.63-3.2-9.4-6.18-14.18-9.16-3.26-2.04-4.2-4.32-1.79-7.77,3.7-5.28,7.15-10.74,10.69-16.13,1.69-2.58,4.09-3.74,6.79-2.14,5.55,3.28,10.93,6.84,16.29,10.44,.96,.64,1.45,1.97,2.11,2.93Z"/><path d="M492.51,46.99c-2.08,8.2-3.68,15.27-5.81,22.18-.35,1.13-3.17,2.36-4.62,2.12-6.49-1.05-12.97-2.35-19.26-4.22-1.35-.4-2.91-3.73-2.6-5.38,1.26-6.77,2.96-13.5,5.08-20.05,.49-1.53,3.46-3.47,4.98-3.23,6.31,.98,12.58,2.47,18.69,4.35,1.61,.5,2.6,3.05,3.54,4.24Z"/><path d="M237.46,175.23c-.6,.72-1.3,2.07-2.42,2.82-4.94,3.32-10,6.46-15.01,9.66-2.99,1.91-5.16,1.28-6.86-1.89-2.19-4.07-4.58-8.04-6.96-12-1.68-2.8-1.28-4.91,1.56-6.68,5.05-3.14,9.9-6.63,15.1-9.5,1.38-.76,4.74-.47,5.45,.55,3.29,4.72,5.98,9.86,8.84,14.87,.23,.4,.15,.97,.31,2.17Z"/><path d="M450.16,566.76c-19.73-1.23-39.47-2.27-59.19-3.72-22.82-1.68-45.34-5.37-67.26-12.04-18.76-5.71-35.91-14.32-49.85-28.62-12.78-13.1-20.31-28.82-24.08-46.5-5.02-23.53-5.67-47.18,.67-70.49,8.57-31.54,30.06-49.7,61.79-54.99,17.45-2.91,35.24-4.28,52.94-5.05,23.92-1.04,47.91-1.46,71.84-.98,22.08,.44,44.15,2.03,66.17,3.84,17.15,1.41,34.29,3.43,51.29,6.13,17.34,2.76,33.04,9.39,45.15,22.96,10.43,11.7,15.95,25.62,17.93,40.78,2.79,21.38,2.16,42.79-3.24,63.79-9.7,37.74-35.17,59.98-71.37,71.12-20.63,6.35-41.83,9.81-63.38,11.11-9.79,.59-19.57,1.28-29.35,1.93l-.06,.73Zm66.5-168.8c-21.39,.04-41.04,16.9-44.55,38.22-1.23,7.51,5.37,13.16,12.7,11,4.5-1.32,5.83-4.97,7.15-8.79,3.22-9.3,12.13-15.33,22.71-15.42,10.72-.09,19.09,5.39,22.38,14.8,.76,2.16,1.11,4.46,1.66,6.7,1.18,4.8,4.38,7.27,9.19,7.61,4.6,.32,9.02-2.38,10.09-7.1,.76-3.39,.38-7.18-.16-10.69-3.19-20.67-21.08-36.37-41.16-36.34Zm-139.59,37.84c-1.28-20.68-18.29-40.81-43.04-39.95-23.59,.82-38.95,23.76-39.85,38.49-.38,6.27,2.73,10.38,8.07,11.29,5.21,.89,9.27-2.1,11.05-8.14,3.36-11.45,11.36-17.5,22.98-17.36,10.89,.13,19.89,7.27,22.77,18.06,1.73,6.5,4.78,9.22,9.57,8.55,5.6-.79,8.5-4.55,8.46-10.95Zm46.61,80.45c14.64,.28,27.15-3.37,38.29-11.29,5.93-4.21,10.55-9.51,12.22-16.91,1.19-5.28-.7-9.62-5.43-12-4.31-2.17-8.31-1.24-11.98,2.77-2.24,2.45-4.3,5.1-6.77,7.28-16.62,14.63-47.18,11.79-58.9-8.06-2.5-4.24-7.82-5.26-12.29-3.06-4.09,2.01-6.08,6.19-4.19,10.91,1.69,4.21,3.83,8.54,6.81,11.9,11.42,12.87,25.97,18.99,42.24,18.45Z"/></g></g></svg>