<?xml version="1.0" encoding="UTF-8"?><svg id="b" xmlns="http://www.w3.org/2000/svg" viewBox="0 0 943.87 1340.54"><g id="c"><g><g><path d="M609.9,587.11c22.05,21.74,43.7,43.08,65.61,64.68,7.15-27.4,14.19-54.45,21.26-81.48,1.76-6.75,2.83-14.45,9.49-17.93,5.55-2.9,12.1-4.2,18.37-5.32,24.8-4.4,49.7-8.27,74.5-12.66,33.93-6,67.81-12.29,101.71-18.47,6.68-1.22,13.33-2.63,20.03-3.75,10.8-1.8,18.58,3.29,18.35,12.68-.13,5.55-1.83,11.1-3.09,16.58-10.13,44.04-20.33,88.07-30.51,132.1-.04,.16,.01,.33-.01-.12,6.2,3.75,12.53,6.76,17.88,11,12.53,9.92,17.97,23.94,18.79,39.27,1.69,31.51-6.78,60.21-27.27,84.6-11.83,14.09-27.4,21.95-45.82,23.21-9.37,.64-19.03-.71-26.84-5.91-7.28-4.85-14.18-3.78-21.69-2.61-25.87,4.02-51.76,7.95-77.66,11.8-21.83,3.25-43.65,6.55-65.52,9.44-11.47,1.52-23.05,2.2-34.01,3.21,25.44,15.01,39.29,38.98,42.82,68.75,3.48,29.42-2.82,56.74-21.44,80.44,6.27,2.72,12.57,5.06,18.47,8.15,3.92,2.05,7.65,4.78,10.8,7.88,7.48,7.38,7.75,16.97,1.05,25.05-8.36,10.09-19.81,15.4-31.65,19.94-26.07,10-53.18,16.21-80.62,20.78-23.86,3.97-47.86,7.44-71.92,9.88-22.81,2.31-45.78,3.44-68.7,4.29-36.25,1.34-72.53,2.81-108.79,2.73-29.92-.07-59.87-1.69-89.73-3.74-27.82-1.91-55.64-4.53-83.28-8.2-35.61-4.74-71.08-10.9-104.1-25.99-8.75-4-17.13-9.59-24.36-15.94-10.27-9.02-9.64-21.02,.48-30.37,9.11-8.42,20.39-12.85,32.04-16.43,3.46-1.06,6.94-2.01,10.7-3.09-10.37-19.71-13.41-40.82-12.68-62.33,1.01-29.77,7.14-58.56,20.34-85.51,1.49-3.04,1.5-5.21-.27-8.17-13.42-22.49-20.17-47.05-22.4-73.02-4.66-54.25,9.32-103.66,39.23-148.62,15.94-23.97,36.07-43.88,62.02-57.25,.26-.13,.39-.49,.6-.77-6.39-7.82-13.07-15.42-19.06-23.52-3.32-4.48-6.51-7.01-12.54-7.93-24.23-3.67-41.78-17.51-54.11-38.36-9.17-15.52-14.57-32.25-16.2-50.21-.13-1.48-.59-2.93-.87-4.28-8.89-.53-17.79-.23-26.35-1.83-7.49-1.4-15.33-3.75-21.67-7.79-11.14-7.08-13.67-19.83-9.26-34.82,4.2-14.28,13.87-24.46,24.83-33.53,20.16-16.65,42.92-28.82,67.51-37.52,3.81-1.35,4.83-3.14,4.68-7.17-1.49-39.2,.65-78.09,11.24-116.11,11.85-42.52,33.22-79.12,67.97-107.09,27.3-21.98,58.4-36.43,92.13-45.4,7.52-2,15.21-3.34,22.79-5.14,1.23-.29,2.95-1.2,3.27-2.19,6.31-19.62,21.74-27.63,40.23-31.24,14.53-2.83,29.12-2.51,43.28,2.48,10.43,3.67,19.21,9.55,25.37,19.07,.87,1.35,3.53,2.12,5.38,2.16,31.59,.62,62.39,5.97,92.34,15.87,33.82,11.17,64.82,27.5,90.21,52.94,27.28,27.34,44.14,60.73,54.45,97.62,8.14,29.13,11.66,58.88,11.2,89.13-.03,1.67,.44,3.81,1.51,4.96,10.15,10.91,16.24,24.11,22.08,37.55,1.51,3.48,3.91,6.88,6.69,9.47,14.21,13.27,22.88,29.62,27.05,48.36,7.08,31.82,3.29,62.02-14.89,89.65-3.18,4.83-6.86,9.58-11.22,13.3-6.32,5.38-9.79,12.08-12.9,19.53-13.62,32.66-34.84,59.44-63.54,80.22-1.34,.97-2.59,2.04-3.83,3.01Zm25.07,215.56c.43-.7,.67-.94,.75-1.23,9.71-38.34,19.46-76.68,28.98-115.07,.43-1.72-.65-4.46-1.95-5.85-9.43-10.09-18.9-20.18-28.76-29.85-14.73-14.45-29.83-28.53-44.69-42.85-3.42-3.29-6.44-4.5-11.29-2.08-6.18,3.08-12.94,5.07-19.57,7.15-37.67,11.83-76.6,16.12-115.76,17.83-48.07,2.09-96.04,.66-143.5-8.72-39.14-7.74-75.81-21.37-108.74-44.21-3.03-2.1-5.39-2.24-8.57-.62-23.4,11.88-43.19,28.02-58.3,49.57-27.85,39.73-40.11,83.92-37.4,132.35,1.03,18.44,5.05,36.07,13.28,52.66,16.2,32.7,42.88,52.15,78.1,61.87-3.38-21.42-1.71-41.87,6.26-61.59,8.05-19.92,21-35.63,41.57-46.04-7.46,0-13.48-.38-19.41,.13-4.23,.37-8.41,1.79-12.52,3.01-3.8,1.13-7.49,2.62-11.21,3.97-3.79,1.38-7.35,1.22-9.82-2.3-2.37-3.39-1.62-6.89,.54-10.21,4.78-7.36,11.39-12.58,19.46-15.69,5.64-2.17,11.61-3.51,17.66-5.29,0-4.42-.41-9.12,.09-13.71,1.05-9.7,2.05-19.45,4.08-28.97,1.32-6.21,6.45-9.4,11.09-8.78,5.75,.77,9.64,4.72,9.89,11.29,.5,13.3,.63,26.62,.65,39.93,0,3.07,.98,4.71,3.63,6.23,4.15,2.37,7.95,5.35,11.94,8,.76,.5,1.76,1.08,2.57,.99,8.83-1.01,17.64-2.15,26.85-3.3,1-4.63,2.14-9.94,3.28-15.26,4.61-21.53,9.03-43.11,13.89-64.59,2.37-10.48,9.11-15.19,19.61-15.58,15.13-.56,30.24-1.45,45.36-2.2,24.92-1.25,49.84-2.49,74.76-3.75,14.12-.71,28.23-1.42,42.35-2.2,22.57-1.24,45.13-2.75,67.71-3.71,11.44-.49,18.05,8.1,15.76,19.32-1.95,9.56-3.76,19.15-5.7,28.71-7.45,36.69-14.9,73.38-22.4,110.05-4.03,19.7-8.15,39.38-12.38,59.82,17-12.37,35.13-20.57,54.6-25.55-.87-11.92-1.86-23.34-2.51-34.79-.92-16.26-1.76-32.54-2.27-48.82-.2-6.48,3.7-11.2,8.57-11.79,4.56-.55,8.64,2.51,10.34,8.94,2.06,7.81,3.25,15.85,5.09,23.73,.9,3.86,1.26,9.46,3.84,11.03,11.02,6.68,22.77,12.15,34.22,18.05Zm-4.09-534.65c-1.27-22.96-4.01-46.12-10.08-68.82-14.46-54.05-46.22-94.2-96.36-119.29-34.95-17.49-72.46-25.52-111.22-27.46-35.28-1.76-70.4,.39-105.07,7.81-19.59,4.19-38.55,10.08-54.81,22.29-23.93,17.97-37.7,42.92-46.95,70.64-10.13,30.37-13.65,61.85-13.95,93.69-.13,14.08,.82,28.18,1.31,42.9,51.15-12.59,101.67-22.25,152.52-27.7,.95-11.68,1.14-23.02,2.92-34.11,4.37-27.29,16.65-50.31,39.39-66.82,24.59-17.85,52.46-23.28,82.15-19.92,41.93,4.76,70.95,26.48,85.36,66.68,5.41,15.1,7.43,30.87,8.7,46.74,.21,2.65,.48,4.1,3.7,4.54,20.68,2.78,41.32,5.82,62.38,8.84ZM164.98,511.94c1.02,1.45,1.82,2.69,2.73,3.85,18.71,24,41.82,42.53,68.98,56.24,39.93,20.15,82.9,27.26,126.88,29.77,34.08,1.95,68.18,1.79,102.27-.75,31.37-2.34,62.15-7.37,91.86-18.02,62.67-22.48,97.36-67.68,106.88-132.78,3.92-26.79,3.7-53.77-.9-80.51-3.24-18.86-8.51-37.15-19-53.5-5.66-8.82-12.3-15.74-23.37-18.58-33.17-8.52-67-11.89-100.99-13.31-43.23-1.81-86.52-1.47-129.71,1.81-22.67,1.72-45.4,3.32-67.92,6.33-36.46,4.88-72.66,11.48-108.33,20.69-13.58,3.51-27.14,7.13-40.96,10.77,41.96,52.91,33.79,150.45-8.42,188Zm654.61,284.98c-6.23-27,3.51-45.7,15.19-57.6,3.17-3.23,4.11-6.22,3.64-10.51-2.82-25.98,12.26-47.07,37.85-52.85,3.71-.84,5.41-2.35,6.27-6.14,8.16-36.18,16.54-72.3,24.83-108.45,1.53-6.68,2.93-13.39,4.44-20.32-1.69,0-2.69-.15-3.64,.02-27.07,4.76-54.12,9.7-81.22,14.3-33.49,5.68-67.01,11.15-100.55,16.54-3.97,.64-5.78,2.17-6.81,6.16-12.01,46.49-24.19,92.94-36.38,139.39-9.07,34.57-18.22,69.11-27.61,104.73,55.07-8.48,109.51-16.87,164.01-25.26ZM245.02,1062.44c2.66,0,5.33,.1,7.99-.03,2.65-.13,5.29-.61,7.94-.74,29.13-1.47,50.49-14.75,62.65-41.64,10.29-22.73,14.7-46.06,5.95-70.44-2.58-7.18-2.88-7.11-10.32-6.62-15.76,1.04-31.54,1.82-47.31,2.7-6.42,.36-11-2.55-14.64-7.73-1.09-1.55-3.42-3.01-5.27-3.13-20.31-1.29-37.9-8.65-52.87-22.52-2.53-2.35-5.92-4.06-9.2-5.26-6.66-2.43-13.49-4.41-20.32-6.34-1.73-.49-3.97-.65-5.54,.03-36.2,15.82-51.75,55.17-46.33,87.14,3.73,22.03,16.16,38.5,34.73,50.6,28.18,18.37,59.76,23.49,92.54,23.96Zm265.89-141.54c43.38,20.67,67.71,53.14,64.93,102.97,15.23-3.99,29.3-9.25,42.04-17.48,30.93-19.99,47.32-47.68,43.93-85.37-3.55-39.46-40.37-66.04-79.12-57.8-24.71,5.25-45.76,17.11-64.63,33.4-.93,.8-1.78,2-2.08,3.17-1.79,7.03-3.4,14.11-5.06,21.11Zm-187.37-82.09c-.63-4.59-.86-9.28-1.94-13.76-9.7-40.26-53.73-57.18-88.31-33.55-24.06,16.44-33.98,39.98-31.04,68.79,3.06,30.07,29.78,52.29,61.44,47.98,35.37-4.81,59.44-33.67,59.85-69.46ZM170.54,419.8c-.77-8.93-1-17.94-2.42-26.76-2.34-14.52-7.02-28.21-16.58-39.87-13.51-16.48-32.66-17.62-47.36-2.23-3.85,4.03-7.23,8.78-9.76,13.75-12.47,24.4-13.62,50.25-8.54,76.61,2.73,14.18,8.28,27.23,17.96,38.25,12.99,14.79,31.06,15.49,44.85,1.45,2.99-3.04,5.54-6.63,7.77-10.29,9.5-15.59,12.62-32.93,14.09-50.91ZM210.02,93.99c-34.7,20.71-57.1,51.25-70.74,88.6-14.48,39.66-17.43,80.89-15.78,122.66,0,.24,.36,.46,.63,.78,15.32-3.76,30.67-7.52,46.24-11.34-.39-4.57-.95-8.69-1.06-12.83-1-36.13-.44-72.15,6.93-107.76,4.76-23.02,11.42-45.32,23.73-65.56,3.06-5.03,6.68-9.71,10.05-14.55ZM868.63,738.94c-1.81,1.26-3.23,2.13-4.52,3.15-11.53,9.12-20.75,19.73-21.83,35.28-1.09,15.64,6.64,26.45,21.81,28.77,11.86,1.82,22.41-2.83,30.65-11.19,18.4-18.66,25.18-41.9,23.3-67.43-1.25-17.01-10.03-25.99-24.42-28.38-13.21-2.19-27.27,5.97-29.67,17.63-1.6,7.77,.36,15.12,4.68,22.17ZM538.17,255.83c-.52-4.51-1.44-9.54-1.6-14.59-.17-5.52-3.36-6.74-7.95-6.95-14.44-.66-28.87-2.07-43.3-1.98-24.08,.14-48.16,.91-72.21,2.04-11.73,.55-23.4,2.46-35.07,3.9-1.04,.13-2.65,1.2-2.8,2.03-1.04,6.13-1.78,12.3-2.62,18.52,28.19-1.02,55.38-2.38,82.59-2.87,27.38-.49,54.78-.11,82.96-.11Zm-150.83,683.93c19.23,12.07,36.26,25.54,43.33,47.97,7.04,22.32,3.3,43.27-9.66,63.55,9.14-3.77,15.72-8.89,19.01-17.53,7.77-20.39,4.07-39.41-7.23-57.32-1.8-2.85-2.22-5.28-.44-7.69,5.59-7.57,11.12-15.23,17.3-22.3,3.66-4.18,8.52-7.31,13.5-11.47-25.88,1.63-50.85,3.2-75.81,4.78Zm-251.58-52.7c-10.68-7.72-20.98-15.16-31.25-22.58-12.83,21.03-19.51,71.7-11.99,94.91,2.49-14.94,6.9-28.35,13.93-40.78,7.23-12.78,17.04-23.22,29.31-31.55ZM69.22,359.91c-7.53,4.81-15.5,9.2-22.63,14.68-5.69,4.38-10.9,9.68-15.32,15.35-4.13,5.3-2.49,9.25,4.09,10.18,8.08,1.14,16.34,1.07,23.47,1.46,3.6-14.44,6.89-27.65,10.39-41.67Zm533.81,473.38c10.21,2.68,19.83,5.2,28.35,7.43-1.26-2.46-2.94-5.9-4.78-9.26-.44-.8-1.29-1.51-2.13-1.91-7.39-3.58-14.81-7.08-22.87-10.9,.54,5.52,1,10.28,1.42,14.64Z"/><path d="M266.56,1340.53c-9.58,.17-14.82-4.82-18.2-12.36-9.05-20.26-18.04-40.55-27.1-60.82-14.6-32.67-29.25-65.31-43.81-97.99-1.61-3.61-3.44-7.32-4.05-11.16-1.65-10.42,5.09-17.49,17.05-18.59,25.79-2.37,51.6-4.61,77.37-7.17,27.75-2.76,55.48-5.8,83.21-8.76,23.76-2.53,47.51-5.24,71.29-7.6,6.65-.66,12.32,1.93,16.57,7.35,24.42,31.12,48.89,62.2,73.33,93.31,15.3,19.48,30.62,38.94,45.79,58.52,2.39,3.09,4.74,6.55,5.84,10.22,2.85,9.42-2.45,17.6-12.17,18.92-23.34,3.17-46.72,6.05-70.08,9.05-21.71,2.79-43.41,5.62-65.13,8.36-23.38,2.95-46.77,5.76-70.14,8.72-22.22,2.81-44.42,5.76-66.63,8.6-4.61,.59-9.24,.99-13.16,1.4Zm266.94-57.55c-.97-1.5-1.66-2.78-2.54-3.9-19.06-24.34-38.1-48.69-57.21-72.98-16.44-20.89-32.93-41.75-49.57-62.49-1.46-1.82-4.16-3.79-6.23-3.74-6.44,.15-12.86,1.27-19.29,1.97-20.46,2.24-40.92,4.54-61.39,6.67-18.16,1.89-36.35,3.6-54.52,5.39-19.17,1.89-38.34,3.75-57.5,5.67-8.21,.82-16.41,1.77-24.77,2.68,.4,1.31,.55,2.11,.87,2.84,22.25,49.19,44.54,98.35,66.69,147.58,1.27,2.83,3.06,3.06,5.46,2.77,11.69-1.42,23.38-2.86,35.07-4.32,20.24-2.54,40.47-5.12,60.7-7.64,17.45-2.17,34.91-4.25,52.36-6.42,20.07-2.5,40.14-5.05,60.21-7.58,17.05-2.15,34.1-4.29,51.64-6.49Z"/><path d="M743.78,1048.91c3.22,1.33,7.39,2.48,10.98,4.61,37.26,22.06,74.4,44.3,111.62,66.44,22.81,13.57,45.72,26.96,68.48,40.59,9.48,5.67,11.84,16.2,5.35,23.61-1.99,2.27-4.84,4.09-7.65,5.3-66.6,28.74-133.25,57.36-199.88,86.02-8.83,3.8-17.61,7.71-26.4,11.59-8.18,3.61-15.34,2.06-22.1-3.69-45.82-39.05-91.7-78.01-137.6-116.97-7.73-6.56-15.51-13.08-23.45-19.39-4.48-3.56-7.49-7.87-6.69-13.59,.89-6.31,5.09-9.95,11.18-12,53.01-17.84,105.97-35.8,158.93-53.77,15.99-5.43,31.9-11.07,47.88-16.52,2.63-.9,5.42-1.31,9.33-2.22Zm165.28,125.58c-1.41-.99-2.3-1.69-3.26-2.27-53.99-32.58-107.96-65.19-162.04-97.61-1.86-1.11-5.06-1.16-7.2-.44-51.55,17.44-103.05,35.05-154.55,52.64-10.27,3.51-20.53,7.04-31.22,10.71,3.32,2.77,6.14,5.07,8.91,7.44,45.35,38.86,90.71,77.7,135.98,116.65,2.65,2.28,4.57,2.45,7.76,1.05,30.93-13.57,61.92-27.02,92.98-40.32,37.26-15.95,74.61-31.71,112.65-47.87Z"/><path d="M495.01,316.07c16.02,.53,38.5,.87,60.92,2.13,20.07,1.12,39.39,5.28,56.18,17.52,16.99,12.4,27.08,29.54,31.16,49.47,8.37,40.89,4.69,80.61-16.55,117.48-13.08,22.71-33.82,35.55-58.17,43.11-20.48,6.36-41.63,9.22-62.95,11.25-35.35,3.36-70.76,3.53-106.19,2.83-24.9-.5-49.88-1.34-74.22-7.14-43.27-10.31-72.54-40.09-81.83-81.4-7.82-34.78-3.59-68.2,16.72-98.23,19.73-29.17,47.95-45.19,82.59-49.95,48.42-6.66,97.2-5.91,152.34-7.06Zm-69.38,103.92c-.62-2.28-1.11-4.18-1.65-6.07-14.24-49.61-68.89-64.85-105.52-36.47-33.03,25.59-39.08,78.31-13.09,111.03,18.89,23.78,53.82,31.35,80.55,16.92,21.49-11.59,34.02-30.21,38.82-53.86,.96-4.74,2.95-6.2,6.89-6.43,13.59-.78,27.18-1.61,40.78-2.05,5.28-.17,10.59,.6,15.89,1.02,3.68,.29,5.68,1.65,5.85,6.08,.19,5.06,1.39,10.21,2.92,15.08,7.31,23.25,22.18,38.96,46.74,43.02,22.27,3.69,40.96-4.13,55.16-21.59,20.46-25.17,24.17-53.9,14.47-83.96-10.26-31.8-43.55-48.33-73.63-37.58-22.98,8.21-35.87,26.01-42.65,48.53-1.52,5.06-3.8,5.37-8.03,5.18-12.1-.54-24.23-1.02-36.34-.86-8.92,.12-17.83,1.28-27.16,2Z"/><path d="M447.39,850.76c.56,0,1.89,.07,3.22-.01,4.27-.26,7.17,1.27,7.56,5.88,.36,4.24-2.53,7.71-7.03,8.05-10.6,.8-21.21,1.41-31.81,2.06-16.24,.99-32.48,1.96-48.71,2.92-1.49,.09-2.99,.1-4.49,.07-4.21-.08-7.03-1.97-7.43-6.38-.36-3.95,2.53-7.22,6.86-7.59,7.61-.65,15.24-1.09,22.86-1.55,19.4-1.16,38.8-2.28,58.97-3.46Z"/><path d="M359.29,805.12c-.24,6.69,3.56,8.92,9.75,5.41,3.78-2.14,6.01-1.72,7.95,2.27-4.78,5.48-10.92,7.71-18.1,6.88-4.45-.51-7.53-3-9.1-7.42-4.88-13.72,9.21-31.51,23.43-29.48,4.2,.6,6.91,3.41,7.27,7.15,.37,3.92-.71,8.01-1.47,11.96-.1,.5-2.02,.79-3.12,.95-5.4,.78-10.82,1.48-16.6,2.27Zm1.3-8.71c.29,.51,.57,1.03,.86,1.54,2.58-.33,5.15-.71,7.73-.99,3.07-.33,3.66-2.67,2.51-4.55-.75-1.22-3.88-2.32-4.98-1.72-2.37,1.31-4.12,3.75-6.13,5.72Z"/><path d="M280.99,1253.2c-2.96,.06-6.27-2.88-6.52-7.17-.23-4,2.49-6.96,6.99-7.51,30.14-3.71,60.28-7.39,90.42-11.1,18.28-2.25,36.56-4.54,54.84-6.77,1.64-.2,3.32-.14,4.99-.12,4.24,.03,7.05,1.91,7.47,6.34,.41,4.32-1.63,7.08-5.95,7.74-6.9,1.05-13.81,1.97-20.74,2.82-27.35,3.33-54.7,6.61-82.06,9.89-15.98,1.92-31.97,3.81-49.45,5.89Z"/><path d="M259.19,1202.8c-.4,0-1.4,.05-2.39,0-4.43-.25-6.65-2.92-6.92-7.05-.27-4.19,2.34-6.63,6.2-7.11,14.66-1.84,29.35-3.42,44.02-5.12,18.79-2.18,37.58-4.38,56.37-6.58,15.17-1.78,30.31-3.72,45.5-5.32,7.63-.8,11.37,1.39,11.77,6.02,.39,4.45-3.42,7.11-10.64,7.97-24.05,2.86-48.07,5.89-72.11,8.77-23.72,2.84-47.46,5.58-71.79,8.44Z"/><path d="M852.92,1166.66c-15.75,6.49-30.53,12.66-45.42,18.59-1.38,.55-3.76,.15-5.02-.74-31.23-21.98-62.37-44.09-93.53-66.19-.77-.54-1.45-1.2-2.67-2.23,12.05-4.33,23.67-8.05,34.89-12.73,5.89-2.46,10.07-1.51,15.24,1.83,30.67,19.79,61.58,39.21,92.41,58.75,1.1,.7,2.18,1.44,4.09,2.71Z"/><path d="M658.12,1146.37c14.26-4.8,27.66-9.38,41.14-13.76,1.28-.42,3.3,.04,4.45,.84,27.97,19.37,55.88,38.85,83.78,58.32,.38,.27,.63,.73,1.34,1.59-9.85,3.99-19.43,7.9-29.04,11.76-5.37,2.15-11.04,6.37-16.07,5.72-5.04-.65-9.5-6.12-14.12-9.62-22.64-17.16-45.25-34.35-67.86-51.55-1.04-.79-1.94-1.76-3.62-3.29Z"/><path d="M729.22,1217.41c-11.92,4.61-22.05,8.62-32.27,12.36-1.4,.51-3.77,.29-4.88-.61-20.63-16.46-41.13-33.07-61.66-49.66-.5-.41-.89-.96-1.85-2.01,8.76-3.03,17.26-5.62,25.47-8.92,5.46-2.19,9.4-1.72,14.24,2.14,18.66,14.92,37.77,29.26,56.73,43.8,1.03,.79,2.15,1.48,4.22,2.89Z"/><path d="M402,437.07c-.88,16.32-6.11,30.31-18.59,40.8-20.04,16.85-49.44,11.44-62.69-11.19-12.1-20.66-8.59-48.79,8.22-65.88,22.09-22.46,58.61-13.59,68.95,16.96,2.1,6.19,2.77,12.86,4.1,19.31Z"/><path d="M596.21,430.03c-.36,17.1-3.86,30.39-13.94,41.1-19.82,21.05-49.74,16.14-60.69-10.57-8.95-21.81-6.16-42.79,9.75-60.86,8.88-10.08,20.4-14.94,33.96-11.98,15.1,3.29,23.87,13.72,28.33,27.89,1.72,5.47,2.07,11.37,2.59,14.42Z"/></g><polygon points="711.04 566.56 643.27 829.69 823.98 806.53 829.62 767.59 852.92 735.97 852.92 698.78 870.28 689.66 890.61 681.58 927.88 530.42 852.92 540.98 711.04 566.56"/></g></g></svg>