<svg width="65" height="65" viewBox="0 0 65 65" fill="none" xmlns="http://www.w3.org/2000/svg">
<path d="M22.2251 32.6001L28.5155 38.8905C28.8613 39.2363 29.4222 39.2363 29.7681 38.8905L42.9751 25.6834M38.887 6.81865L38.2285 5.89641C35.4698 2.03453 29.7304 2.03453 26.9717 5.89641L26.3132 6.81865C24.8566 8.85765 22.4113 9.94951 19.9209 9.67278L16.9847 9.34655C12.5794 8.85706 8.85706 12.5794 9.34655 16.9847L9.67278 19.9209C9.94951 22.4113 8.85765 24.8566 6.81865 26.3132L5.89641 26.9717C2.03453 29.7304 2.03453 35.4698 5.89641 38.2285L6.81865 38.887C8.85765 40.3437 9.94951 42.789 9.67278 45.2794L9.34655 48.2155C8.85706 52.6207 12.5794 56.3433 16.9847 55.8536L19.9209 55.5275C22.4113 55.2508 24.8566 56.3426 26.3132 58.3816L26.9717 59.3036C29.7304 63.1655 35.4698 63.1655 38.2285 59.3036L38.887 58.3816C40.3437 56.3426 42.789 55.2508 45.2794 55.5275L48.2155 55.8536C52.6207 56.3433 56.3433 52.6207 55.8536 48.2155L55.5275 45.2794C55.2508 42.789 56.3426 40.3437 58.3816 38.887L59.3036 38.2285C63.1655 35.4698 63.1655 29.7304 59.3036 26.9717L58.3816 26.3132C56.3426 24.8566 55.2508 22.4113 55.5275 19.9209L55.8536 16.9847C56.3433 12.5794 52.6207 8.85706 48.2155 9.34655L45.2794 9.67278C42.789 9.94951 40.3437 8.85765 38.887 6.81865Z" stroke="#AEEA00" stroke-width="5" stroke-linecap="round" stroke-linejoin="round"/>
</svg>
