<svg width="18" height="18" viewBox="0 0 18 18" fill="none" xmlns="http://www.w3.org/2000/svg">
<path fill-rule="evenodd" clip-rule="evenodd" d="M10.3522 4C10.3522 2.61928 11.4767 1.5 12.8636 1.5C14.2506 1.5 15.375 2.61928 15.375 4C15.375 5.38071 14.2506 6.5 12.8636 6.5C12.1633 6.5 11.5303 6.21447 11.0753 5.7551L7.59877 8.12212C7.63087 8.28187 7.64775 8.44687 7.64775 8.6154C7.64775 8.94915 7.58175 9.2682 7.46219 9.5598L11.2742 12.0643C11.7069 11.7121 12.2605 11.5 12.8636 11.5C14.2506 11.5 15.375 12.6193 15.375 14C15.375 15.3807 14.2506 16.5 12.8636 16.5C11.4767 16.5 10.3522 15.3807 10.3522 14C10.3522 13.6384 10.4296 13.2941 10.5688 12.9833L6.78755 10.499C6.34647 10.8823 5.7687 11.1154 5.13636 11.1154C3.74938 11.1154 2.625 9.99607 2.625 8.6154C2.625 7.23467 3.74938 6.11539 5.13636 6.11539C5.93392 6.11539 6.6439 6.48544 7.10359 7.06138L10.4729 4.76731C10.3945 4.52519 10.3522 4.2672 10.3522 4Z" fill="white"/>
</svg>
