<svg width="800" height="738" viewBox="0 0 800 738" fill="none" xmlns="http://www.w3.org/2000/svg">
<g clip-path="url(#clip0_161_52)">
<path d="M709.1 653.905C765.9 584.84 800 496.402 800 400C800 303.599 765.9 215.162 709.1 146.096C641.9 209.873 600 300.043 600 400C600 499.957 641.9 590.125 709.1 653.905Z" fill="#AEEA00"/>
<path d="M636.385 722.715C552.26 640.95 500 526.58 500 400C500 273.422 552.26 159.051 636.385 77.2855C570.16 28.6965 488.431 0 400 0C311.568 0 229.839 28.6965 163.617 77.2855C247.739 159.051 300 273.422 300 400C300 526.58 247.739 640.95 163.617 722.715C229.839 771.305 311.568 800 400 800C488.431 800 570.16 771.305 636.385 722.715Z" fill="#AEEA00"/>
<path d="M0 400C0 303.599 34.1023 215.162 90.901 146.096C158.098 209.873 200 300.043 200 400C200 499.957 158.098 590.125 90.901 653.905C34.1024 584.84 0 496.402 0 400Z" fill="#AEEA00"/>
</g>
<defs>
<clipPath id="clip0_161_52">
<rect width="800" height="800" fill="white"/>
</clipPath>
</defs>
</svg>
