<svg width="40" height="42" viewBox="0 0 40 42" fill="none" xmlns="http://www.w3.org/2000/svg">
<ellipse cx="19.7007" cy="20.9843" rx="19.6539" ry="20.5047" fill="#AEEA00" fill-opacity="0.18"/>
<path d="M18.6573 8.70563C18.9251 8.00463 19.3259 7.71916 20.038 7.72875C20.7085 7.73799 21.1161 8.04331 21.3571 8.71898C22.6643 8.83056 23.9429 9.08659 25.1653 9.6144C26.5215 10.1997 27.7053 11.0465 28.6517 12.2401C29.5016 13.3121 30.0484 14.5502 30.3603 15.908C30.5562 16.7599 30.6713 17.6242 30.688 18.5015C30.6909 18.647 30.7341 18.7264 30.8643 18.7989C32.0516 19.4595 32.7337 20.5083 32.9383 21.9096C33.0853 22.9163 33.0131 23.9014 32.6596 24.8557C32.2398 25.9886 31.4794 26.7263 30.3813 27.0692C30.2775 27.1017 30.2128 27.1504 30.1609 27.2582C29.4929 28.6489 28.4748 29.6822 27.2165 30.4575C26.0753 31.1609 24.8354 31.5751 23.5433 31.8335C22.0602 32.1299 20.5616 32.1881 19.0614 32.1316C17.3246 32.0666 15.6189 31.7904 13.9978 31.0764C12.795 30.5468 11.724 29.8137 10.8479 28.78C10.4596 28.3217 10.1287 27.8192 9.87029 27.2664C9.82164 27.162 9.75881 27.1062 9.65473 27.0709C8.98002 26.8426 8.37684 26.4939 7.93058 25.8873C7.53201 25.3458 7.27649 24.7345 7.14761 24.0643C6.95718 23.0734 6.96363 22.0862 7.2723 21.1213C7.60837 20.0712 8.26407 19.3045 9.18463 18.7917C9.28161 18.7377 9.32092 18.6843 9.32608 18.5631C9.38955 17.1217 9.59222 15.7098 10.1384 14.3735C10.9868 12.2986 12.4087 10.8216 14.3197 9.86016C15.3273 9.35323 16.386 9.01882 17.4922 8.85966C17.8785 8.80387 18.2658 8.75595 18.657 8.70392L18.6573 8.70563ZM15.915 16.9099C15.932 16.7466 15.9391 16.6097 15.9617 16.4758C16.1879 15.1481 16.8726 14.1853 18.0412 13.6578C19.2444 13.1149 20.4884 13.0999 21.7199 13.5414C22.7471 13.9101 23.4789 14.6508 23.8642 15.7365C23.9963 16.1082 24.0579 16.508 24.1555 16.9102C25.9499 17.1327 27.7723 17.3453 29.5738 17.9987C29.4768 17.4065 29.4163 16.8483 29.2909 16.3068C28.7606 14.0097 27.5362 12.2692 25.5491 11.1687C23.9615 10.2894 22.25 9.92656 20.4762 9.86016C19.5972 9.8273 18.7208 9.87625 17.8486 10.0227C16.7895 10.2004 15.7693 10.5067 14.7998 10.9931C13.2319 11.7794 12.0294 12.9657 11.2738 14.6405C10.8975 15.475 10.6707 16.355 10.5473 17.2672C10.5157 17.5003 10.5021 17.7361 10.4789 17.9836C12.255 17.3511 14.0797 17.1115 15.9146 16.9095L15.915 16.9099ZM20.0045 18.1219C18.4585 18.1305 16.9145 18.1743 15.3766 18.3454C14.4573 18.4478 13.5348 18.5361 12.6246 18.7C11.983 18.8154 11.3599 19.0471 10.728 19.2261C10.6375 19.2518 10.5937 19.3045 10.5663 19.4079C10.3253 20.3201 10.2134 21.25 10.1812 22.1954C10.1445 23.2757 10.2254 24.3412 10.4802 25.3893C10.7351 26.4357 11.181 27.3745 11.8989 28.1505C12.6584 28.9717 13.578 29.5313 14.5781 29.9496C16.0329 30.5578 17.5595 30.7728 19.1068 30.8313C20.5223 30.8847 21.9355 30.8409 23.3352 30.5677C24.4155 30.3569 25.4569 30.0262 26.4316 29.4782C27.2652 29.0096 28.0034 28.4192 28.5705 27.6059C29.3911 26.4285 29.6946 25.0689 29.8106 23.6447C29.8719 22.8934 29.8487 22.1424 29.7839 21.3911C29.7262 20.7233 29.6334 20.0644 29.4639 19.4174C29.4359 19.31 29.3895 19.2583 29.2964 19.2189C28.5792 18.9157 27.83 18.7387 27.0706 18.6251C26.2982 18.5094 25.522 18.4214 24.7452 18.3464C23.9873 18.2732 23.2279 18.2157 22.4678 18.1811C21.6474 18.1435 20.8258 18.1404 20.0045 18.1222V18.1219ZM22.8731 16.8068C22.7671 15.894 22.2364 15.1372 21.4245 14.7778C20.705 14.4594 19.9561 14.4478 19.2015 14.5813C18.0496 14.7853 17.2953 15.642 17.1677 16.8065H22.8728L22.8731 16.8068ZM9.31609 25.5683C8.93814 23.7816 8.95006 22.0014 9.23231 20.1999C7.69215 21.3524 7.74402 24.6123 9.31609 25.5683ZM30.8108 20.2393C31.0837 22.0407 31.085 23.8042 30.7257 25.5649C31.6086 24.9368 31.9002 24.0116 31.914 22.9464C31.9279 21.8826 31.6582 20.9471 30.8108 20.2393Z" fill="#AEEA00"/>
<path d="M19.7223 19.2094C20.9783 19.2447 22.0793 19.2543 23.178 19.3124C24.076 19.36 24.973 19.4473 25.8668 19.5524C26.4049 19.6154 26.9224 19.7858 27.3642 20.1449C27.8858 20.5686 28.1613 21.1577 28.3269 21.8108C28.5058 22.5162 28.5215 23.2361 28.4684 23.9614C28.4278 24.5135 28.3244 25.0485 28.1236 25.5605C27.7353 26.5494 27.0055 27.1388 26.0956 27.5198C25.3926 27.8141 24.6647 27.9993 23.9165 28.1037C22.1885 28.3447 20.4534 28.3796 18.7147 28.3111C18.2163 28.2916 17.7168 28.2779 17.22 28.2348C15.9618 28.1249 14.718 27.9377 13.5632 27.3452C12.4758 26.7873 11.8491 25.861 11.639 24.6079C11.4717 23.6109 11.4708 22.6179 11.7376 21.6376C12.0675 20.4245 12.8566 19.7595 14.0063 19.5849C14.7838 19.4668 15.569 19.3895 16.3536 19.3429C17.5267 19.2738 18.7022 19.2481 19.7223 19.2094ZM22.7488 23.412C22.7404 23.7392 22.8232 24.0925 23.022 24.4101C23.4873 25.1539 24.3666 25.3124 24.9508 24.7589C25.641 24.1051 25.7277 22.9342 25.1428 22.1692C24.6531 21.5287 23.7767 21.4808 23.2315 22.0654C22.8974 22.4235 22.7449 22.8592 22.7488 23.412ZM17.2819 23.3237C17.296 23.0019 17.2019 22.6648 17.0193 22.354C16.5533 21.5613 15.625 21.4083 15.0157 22.0233C14.3836 22.661 14.3249 23.8474 14.8904 24.5521C15.4221 25.2148 16.2343 25.2665 16.7924 24.6743C17.132 24.3139 17.2873 23.8765 17.2819 23.3237Z" fill="#AEEA00"/>
</svg>
