<svg width="334" height="387" viewBox="0 0 334 387" fill="none" xmlns="http://www.w3.org/2000/svg">
<mask id="mask0_196_9" style="mask-type:luminance" maskUnits="userSpaceOnUse" x="0" y="0" width="334" height="387">
<path d="M334 0H0V387H334V0Z" fill="white"/>
</mask>
<g mask="url(#mask0_196_9)">
<path d="M206.481 209.444C220.663 225.888 228.271 245.319 232.521 266.257C234.971 278.334 236.31 290.576 235.971 302.927C235.808 308.847 234.641 314.645 232.081 320.036C227.272 330.166 219.484 336.2 208.141 337.427C207.17 343.187 206.188 348.966 205.226 354.75C204.268 360.53 203.628 366.391 200.934 371.614C205.728 372.601 210.454 373.528 215.159 374.567C216.284 374.818 217.413 375.317 218.392 375.937C220.195 377.081 220.266 378.528 218.367 379.441C216.017 380.581 213.511 381.641 210.96 382.063C203.645 383.269 196.292 384.354 188.918 385.1C163.142 387.694 137.277 386.948 111.442 386.71C100.731 386.616 89.9984 385.968 79.3292 384.999C70.8595 384.228 62.457 382.624 54.0419 381.279C52.7118 381.066 51.4026 380.41 50.2107 379.734C47.9899 378.468 47.9395 376.481 50.29 375.536C53.2219 374.361 56.359 373.692 59.4245 372.869C60.5497 372.569 61.725 372.461 62.8125 372.273C62.8125 369.676 62.3356 367.057 62.9461 364.725C63.5738 362.326 65.1338 360.126 66.5349 358.006C67.292 356.863 67.8733 356.064 67.5679 354.481C64.5274 338.739 61.6373 322.964 58.6675 307.21C58.5464 306.558 58.1491 305.919 57.7518 305.373C53.7949 299.936 51.8671 293.699 51.6576 287.097C50.9761 265.296 53.9247 243.982 60.7463 223.252C61.1394 222.058 61.5576 220.878 62.0263 219.507C61.4908 219.215 60.9261 218.872 60.3364 218.584C45.8526 211.539 32.8659 202.369 21.7907 190.555C11.0836 179.138 3.63878 165.902 1.07073 150.245C-1.75662 133.014 1.11256 116.591 8.73722 100.969C13.7185 90.758 20.1177 81.66 28.8884 74.4074C36.1534 68.3943 44.238 64.0951 53.6488 62.8127C55.8319 62.5167 58.0903 62.7706 60.4116 62.7706C67.0578 42.6497 78.2917 26.282 96.469 15.318C114.755 4.29064 134.412 2.91961 154.835 6.82957C157.023 3.41047 159.909 0.918094 163.811 0.35953C171.356 -0.723745 178.47 0.473779 184.485 5.65741C186.413 7.32043 187.329 9.55468 187.609 12.1232C187.672 12.686 188.416 13.4519 188.998 13.6296C199.692 16.9175 209.814 21.3607 218.526 28.6093C233.504 41.0668 243.065 56.8167 246.536 76.2141C248.326 86.2217 248.155 96.2464 246.536 106.249C245.553 112.33 244.395 118.381 243.374 124.458C243.286 124.979 243.429 125.753 243.772 126.1C252.877 135.325 255.194 146.572 253.638 159.085C252.53 168.017 249.635 176.134 243.508 182.798C238.351 188.409 231.981 191.672 224.327 192.209C223.612 192.26 222.667 192.696 222.278 193.267C217.991 199.602 212.834 205.056 206.476 209.436L206.481 209.444ZM80.9895 201.87C80.7136 202.268 80.5337 202.479 80.3997 202.716C65.8321 228.376 60.2821 256.253 60.5831 285.545C60.6711 294.257 64.7574 300.791 71.8382 305.538C76.8531 308.898 82.3613 311.141 88.1165 312.757C102.052 316.672 116.306 318.123 130.723 318.352C142.284 318.534 153.802 318.229 165.162 315.732C171.754 314.285 178.245 312.512 183.799 308.42C186.601 306.355 189.144 303.782 189.161 300.058C189.211 290.919 189.274 281.753 188.718 272.638C188.032 261.399 185.464 250.49 181.361 239.983C180.21 237.03 181.072 234.338 183.435 233.357C186.032 232.278 188.893 233.543 189.981 236.56C194.121 248.061 196.806 259.935 197.894 272.114C198.546 279.4 198.651 286.733 198.906 294.054C198.948 295.26 199.358 295.89 200.42 296.17C208.639 298.315 216.744 298.159 224.729 295.023C226.017 294.519 226.594 293.792 226.414 292.349C225.553 285.383 224.955 278.38 223.871 271.453C221.621 257.087 217.012 243.495 209.998 230.78C206.983 225.308 203.687 220.01 198.877 215.876C197.718 214.882 196.76 214.547 195.213 215.305C193.373 216.206 191.307 216.718 189.291 217.146C184.82 218.098 180.503 219.41 176.258 221.195C170.411 223.654 164.158 224.775 157.843 225.135C145.638 225.829 133.538 224.86 121.601 222.181C106.494 218.792 92.3952 213.278 80.9811 201.866L80.9895 201.87ZM76.0751 79.3582C74.7283 84.529 72.311 88.6549 69.0194 92.2603C58.8599 103.376 51.6747 116.177 47.6093 130.763C45.5305 138.215 44.4638 145.772 45.8652 153.453C47.7638 163.849 53.3099 172.067 61.2692 178.736C70.9809 186.869 82.2527 191.981 94.0722 196.001C111.501 201.929 129.335 206.08 147.599 208.327C158.888 209.719 170.164 210.443 181.478 208.678C191.704 207.083 200.659 202.89 208.191 195.607C214.812 189.205 218.392 181.186 220.513 172.401C224.432 156.165 227.836 139.789 233.303 123.971C233.771 122.613 233.257 122.067 232.211 121.504C224.7 117.451 217.368 113.007 209.663 109.368C189.851 100.004 169.064 93.4028 147.746 88.6379C136.675 86.1624 125.432 84.4276 114.228 82.5996C108.753 81.7067 103.194 81.2625 97.6609 80.8096C90.5213 80.2257 83.3692 79.8362 76.071 79.354L76.0751 79.3582ZM86.895 71.5977C86.9997 71.2846 87.079 71.1068 87.1211 70.9164C88.4467 64.6874 90.9228 59.017 95.461 54.502C105.277 44.7315 117.222 42.1333 130.276 45.0529C145.278 48.4045 154.613 61.2599 154.028 76.8235C153.969 78.4061 153.71 79.9844 153.581 81.2158C168.395 85.8452 182.908 90.3856 197.656 94.9937C198.178 91.1938 198.739 87.1781 199.283 83.1581C200.75 72.2956 201.169 61.4335 199.216 50.5794C197.718 42.2773 195.054 34.4234 189.746 27.763C187.141 24.492 184.334 21.4072 179.997 20.2393C165.864 16.4309 151.548 14.0232 136.884 13.9512C129.694 13.9174 122.588 14.5352 115.733 16.8541C92.4954 24.7121 78.0242 41.359 69.5294 64.1076C72.4488 65.4789 74.7242 67.3152 75.866 70.3408C75.9955 70.6877 76.5309 71.0813 76.899 71.1026C80.224 71.3097 83.5532 71.4411 86.9037 71.5935L86.895 71.5977ZM69.3036 315.114C69.2452 315.36 69.1655 315.504 69.1909 315.626C72.0222 329.256 74.8414 342.89 77.7229 356.507C78.1581 358.564 77.8067 360.227 76.2717 361.66C75.2008 362.661 74.0381 363.616 73.1892 364.787C71.1984 367.542 71.9387 370.202 74.975 371.708C75.594 372.011 76.2467 372.283 76.9115 372.44C85.0298 374.368 93.1481 374.403 101.208 372.147C106.682 370.61 109.761 366.719 110.497 361.172C111.287 355.182 111.689 349.144 112.203 343.123C112.492 339.767 114.571 337.618 117.887 337.69C126.733 337.889 135.579 338.126 144.421 338.455C148.377 338.604 150.147 340.203 151.1 344.1C152.246 348.781 153.187 353.523 154.543 358.142C155.425 361.144 155.22 363.592 153.43 366.248C151.151 369.634 152.418 372.779 156.253 374.292C156.956 374.571 157.688 374.822 158.428 374.965C166.04 376.429 173.602 375.993 181.202 374.651C189.291 373.221 193.544 368.148 194.966 360.388C196.463 352.201 197.668 343.956 199.015 335.629C191.9 331.943 188.914 325.49 187.81 317.877C185.71 318.931 183.895 319.964 181.988 320.776C169.905 325.918 157.123 327.534 144.187 327.932C136.399 328.173 128.569 328.033 120.794 327.5C112.914 326.958 105.043 325.99 97.2385 324.733C87.4304 323.15 77.9361 320.378 69.2994 315.11L69.3036 315.114ZM72.2146 197.469C71.2527 196.94 70.3491 196.454 69.4584 195.946C60.7797 191.033 52.7661 185.27 46.5008 177.323C35.6347 163.549 33.5937 147.867 37.2114 131.157C38.4831 125.279 40.524 119.571 42.243 113.672C37.8892 112.724 34.0579 110.079 30.4819 107.058C26.8934 104.028 24.0911 100.351 22.4599 95.1928C20.5276 98.7089 18.7584 101.633 17.2611 104.692C10.9748 117.573 8.1182 131.144 9.78702 145.497C11.1087 156.842 15.6425 166.892 22.3763 175.99C30.1557 186.501 39.8883 194.833 50.7586 201.84C55.468 204.874 60.4241 207.523 65.2883 210.358C67.7227 205.831 69.9309 201.722 72.2146 197.469ZM235.892 113.227C239.338 96.5553 240.099 79.8195 233.156 63.5871C226.306 47.5625 215.632 35.092 199.412 27.2214C205.401 39.9585 206.326 42.6877 208.007 56.9774C209.137 66.5917 208.605 76.2312 207.309 85.8155C206.74 90.0345 206.154 94.2532 205.644 97.9771C215.87 103.131 225.883 108.179 235.892 113.223V113.227ZM50.035 98.7978C48.0567 97.74 46.689 96.4919 46.9942 94.249C47.2996 92.019 49.1147 91.6087 50.8463 90.978C55.8737 89.1416 60.2988 86.2852 64.0379 82.4218C65.9702 80.4244 66.2086 77.9915 65.3805 75.3805C64.7616 73.434 63.2934 72.4818 61.4741 72.4905C58.1574 72.5031 54.7485 72.3974 51.5407 73.0996C44.5393 74.64 38.7047 78.5797 33.4222 83.3614C30.4986 86.0101 29.4447 89.4673 30.7454 93.1023C32.9036 99.1364 37.4793 102.894 43.4016 104.921C44.8698 105.425 46.2583 104.896 47.1406 103.381C48.0191 101.874 48.9978 100.427 50.035 98.7978ZM141.861 370.631C143.087 367.197 144.224 364.087 145.295 360.949C145.504 360.335 145.613 359.589 145.471 358.969C144.751 355.771 143.906 352.599 143.179 349.402C142.915 348.247 142.393 347.854 141.188 347.854C137.992 347.858 134.793 347.647 131.597 347.6C128.151 347.549 124.705 347.587 121.237 347.587C120.225 355.374 120.798 363.295 117.118 370.631H141.857H141.861ZM143.145 74.4496C143.76 66.6678 140.519 60.875 133.793 57.5656C128.724 55.0693 123.412 54.3667 117.812 55.0309C110.158 55.9367 103.654 58.7252 99.246 65.7665C114.219 67.2054 128.82 70.087 143.145 74.4538V74.4496ZM197.764 305.166C197.547 308.945 197.015 312.529 197.2 316.071C197.58 323.294 201.303 328.291 209.617 327.069C211.93 326.73 214.343 325.731 216.28 324.394C223.035 319.723 225.465 312.66 226.314 304.628C216.886 307.472 207.585 307.671 197.76 305.162L197.764 305.166ZM239.602 136.082C234.148 150.753 232.035 166.172 228.192 181.173C243.688 177.107 250.066 148.976 239.602 136.082Z" fill="white"/>
<path d="M318.826 328.042C319.428 328.19 320.094 328.351 320.872 328.541C319.433 332.138 317.032 334.931 314.284 337.394C311.549 339.844 308.604 342.057 305.484 344.587C314.514 343.517 322.503 340.898 328.643 333.924C329.262 334.267 329.855 334.597 330.571 334.99C327.823 338.879 324.079 341.346 319.964 343.297C314.351 345.959 308.445 347.27 302.226 347.118C301.264 347.092 300.294 347.465 298.939 347.727C302.636 351.996 306.931 354.29 311.674 355.834C312.159 355.991 312.904 355.677 313.406 355.374C318.14 352.501 322.607 349.294 326.074 344.617C326.71 344.922 327.354 345.235 328.128 345.607C325.23 349.967 321.403 353.171 317.195 356.033C320.98 356.929 327.04 354.701 332.591 350.361C333.017 350.72 333.469 351.103 333.933 351.497C333.816 351.773 333.783 352.006 333.653 352.135C329.613 356.274 324.544 358.648 318.981 358.725C313.979 358.794 309.273 360.018 304.434 360.722C302.268 361.036 300.055 361.015 297.604 361.158C301.586 364.042 305.773 363.906 310.202 363.062C310.294 364.885 311.515 364.777 312.816 364.847C319.274 365.213 325.727 365.659 332.181 366.113C332.762 366.154 333.327 366.461 334.004 366.67C330.207 369.864 277.897 370.084 272.346 366.444C277.152 365.844 281.954 365.241 286.994 364.61C286.6 364.31 286.303 364.031 285.96 363.829C281.732 361.319 278.8 357.679 276.755 353.223C276.462 352.588 275.989 351.895 275.412 351.567C269.314 348.074 267.194 345.531 264.96 338.773C265.621 338.456 266.29 338.13 267.114 337.732C268.369 342.201 270.837 345.7 274.408 348.028C273.216 343.132 271.572 338.134 270.87 333.001C270.151 327.729 271.731 322.583 273.521 317.404C274.241 317.611 274.935 317.815 275.776 318.055C272.923 325.478 272.346 332.938 274.731 340.754C274.965 340.238 275.161 339.916 275.266 339.561C275.73 337.953 275.822 336.112 276.675 334.758C279.616 330.082 280.523 324.915 281.297 319.558C282.125 313.833 286.341 308.979 291.477 306.753C291.653 307.413 291.829 308.065 292.033 308.835C286.517 312.132 283.438 316.976 283.217 323.756C285.387 321.898 287.236 319.82 289.511 318.479C293.505 316.122 296.617 313.139 298.642 308.894C299.411 307.282 300.745 305.941 301.858 304.426C302.523 304.968 303.113 305.446 303.69 305.915C302.063 308.255 300.461 310.562 298.855 312.872C298.955 313.003 299.056 313.139 299.156 313.27C303.527 311.645 307.851 309.876 312.277 308.425C318.471 306.389 324.573 307.075 330.717 309.647C330.445 310.35 330.207 310.972 329.91 311.742C323.599 309.334 317.32 309.009 310.854 311.45C314.577 312.279 318.132 313.075 321.863 313.904C321.432 314.861 321.16 315.474 321.064 315.682C315.882 315.161 310.947 314.29 306.015 314.311C303.163 314.324 300.306 315.745 297.475 316.609C297.09 316.727 296.714 317.222 296.542 317.633C294.271 323.108 292.941 328.757 293.414 334.906C304.234 320.599 320.976 318.953 329.165 322.012C328.948 322.647 328.726 323.286 328.509 323.916C317.693 321.661 308.203 324.31 300.001 331.486C297.985 333.251 296.5 335.633 294.765 337.732C293.966 338.697 293.982 339.641 294.442 340.834C295.923 344.659 298.851 345.662 302.318 343.339C307.421 339.92 312.519 336.471 316.442 331.605C317.312 330.526 317.998 329.303 318.83 328.055L318.826 328.042ZM288.018 350.552C288.39 348.43 288.784 346.856 288.888 345.26C288.938 344.524 288.579 343.627 288.123 343.022C286.575 340.982 284.726 339.158 283.33 337.026C282.271 335.405 281.728 333.442 280.908 331.512C278.248 336.082 276.763 340.978 277.608 346.043C277.909 347.854 280.352 349.817 282.267 350.681C283.882 351.41 286.157 350.65 288.018 350.552ZM293.28 319.092C293.096 318.91 292.912 318.724 292.728 318.542C289.812 321.521 286.88 324.479 284.003 327.496C283.618 327.898 283.25 328.639 283.342 329.125C284.254 333.89 285.96 338.232 290.327 341.401C290.662 340.233 291.293 339.209 291.155 338.308C290.147 331.698 291.163 325.342 293.276 319.092H293.28ZM296.35 349.796C294.681 350.549 292.611 351.483 290.452 352.463C290.699 353.631 290.871 354.806 291.226 355.925C291.381 356.42 291.837 357.058 292.276 357.177C297.395 358.578 302.548 358.923 307.475 357.574C303.891 355.064 300.219 352.505 296.35 349.796ZM279.95 352.836C282.058 360.109 291.084 364.659 295.919 363.759C294.145 361.779 292.493 359.896 289.662 359.052C287.094 358.282 284.844 356.375 282.502 354.896C281.586 354.314 280.799 353.53 279.95 352.836ZM295.35 347.609C295.388 347.38 295.425 347.147 295.463 346.919C294.149 346.356 292.836 345.789 291.347 345.15C291.113 346.783 290.925 348.083 290.691 349.712C292.518 348.886 293.932 348.248 295.35 347.609ZM288.846 356.033C288.566 354.781 288.374 353.924 288.181 353.066C287.127 353.233 286.174 353.383 284.81 353.596C286.257 354.468 287.353 355.134 288.846 356.033Z" fill="white"/>
<path d="M93.3406 90.7244C106.996 91.1351 118.988 92.9376 130.937 95.1888C146.4 98.1042 161.557 102.124 176.346 107.528C182.988 109.957 189.559 112.572 195.314 116.871C201.562 121.539 204.925 127.822 205.515 135.6C206.803 152.594 202.328 168.124 193.243 182.27C188.233 190.068 180.474 193.936 171.611 195.531C161.904 197.275 152.251 196.365 142.589 194.791C127.261 192.294 112.229 188.587 97.5065 183.645C87.9621 180.442 78.6561 176.599 70.5753 170.328C64.0258 165.242 58.9104 159.094 57.2042 150.643C55.8741 144.046 56.3466 137.407 57.9863 131C59.9395 123.375 62.2146 115.788 64.9836 108.429C68.6054 98.8067 75.5819 92.781 85.8666 91.2491C88.8152 90.8091 91.831 90.8216 93.3364 90.7244H93.3406ZM172.377 140.462C172.101 138.592 172.017 136.671 171.515 134.864C169.575 127.835 162.786 125.622 157.395 130.18C151.523 135.147 148.667 145.392 151.226 152.679C152.238 155.564 153.995 157.871 157.09 158.763C160.603 159.775 164.744 158.078 167.462 154.57C170.671 150.431 172.093 145.692 172.373 140.462H172.377ZM102.517 115.877C101.722 116.533 100.944 117.108 100.242 117.764C96.348 121.382 91.8769 122.854 86.6446 121.577C85.1764 121.217 84.1267 121.721 83.8967 123.282C83.3947 126.727 82.5833 130.188 82.646 133.632C82.7173 137.597 84.1893 141.219 88.0999 143.111C91.9813 144.99 96.6952 143.568 99.8863 139.51C103.981 134.301 105.131 128.182 104.847 121.725C104.755 119.677 104.821 117.43 102.521 115.872L102.517 115.877ZM115.88 167.535C114.052 167.379 111.2 168.111 108.649 169.854C107.222 170.827 106.645 172.215 107.595 173.853C108.515 175.444 109.82 175.491 111.334 174.657C114.312 173.015 117.457 173.172 120.636 173.891C124.308 174.72 126.825 177.09 128.992 180.069C129.544 180.827 130.878 181.576 131.686 181.419C132.539 181.254 133.576 180.116 133.819 179.21C134.04 178.377 133.497 177.162 132.974 176.32C129.322 170.43 123.944 167.671 115.88 167.535Z" fill="white"/>
</g>
</svg>
